<?xml version="1.0" standalone="no"?>
<!DOCTYPE svg PUBLIC "-//W3C//DTD SVG 20010904//EN"
 "http://www.w3.org/TR/2001/REC-SVG-20010904/DTD/svg10.dtd">
<svg version="1.0" xmlns="http://www.w3.org/2000/svg"
 width="500.000000pt" height="500.000000pt" viewBox="0 0 500.000000 500.000000"
 preserveAspectRatio="xMidYMid meet">
<metadata>
Created by potrace 1.15, written by Peter Selinger 2001-2017
</metadata>
<g transform="translate(0.000000,500.000000) scale(0.100000,-0.100000)"
fill="#000000" stroke="none">
<path d="M2395 4912 c-3 -3 -5 -41 -5 -84 0 -43 -3 -78 -7 -79 -7 -1 -47 -3
-140 -8 -21 -1 -22 -7 -25 -78 l-3 -78 -82 -3 -83 -3 0 -79 0 -80 -69 0 c-44
0 -72 -5 -79 -13 -6 -7 -12 -44 -14 -82 l-3 -70 -77 -3 -78 -3 0 -89 0 -90
-410 0 -410 0 0 -407 0 -408 -47 2 c-27 2 -67 0 -90 -3 l-43 -5 0 -75 0 -74
-79 0 -80 0 0 -72 c0 -40 0 -79 0 -85 -1 -9 -24 -13 -81 -13 l-80 0 0 -80 0
-80 -37 -1 c-21 0 -58 -1 -83 -2 l-45 -2 0 -50 c-1 -27 -2 -65 -3 -82 l-2 -33
-85 0 -85 0 0 -98 c0 -63 4 -102 12 -110 7 -7 42 -12 85 -12 l73 0 0 -67 c0
-72 8 -96 31 -93 8 1 42 2 77 1 l62 -1 0 -80 0 -80 80 0 c57 0 80 -4 81 -12 0
-7 0 -46 -1 -86 l-1 -72 80 0 81 0 0 -75 0 -75 90 0 90 0 0 -415 0 -415 410 0
410 0 0 -85 0 -84 78 -3 77 -3 3 -75 c2 -44 8 -78 15 -82 7 -4 42 -8 80 -8
l67 0 0 -79 0 -78 38 -7 c20 -3 58 -6 85 -6 l47 0 0 -80 0 -80 85 0 85 0 0
-80 0 -80 110 0 110 0 0 80 0 80 80 0 80 0 0 80 c0 90 -7 84 92 80 69 -2 76 7
72 103 l-3 67 78 0 79 0 7 38 c3 20 5 53 4 72 -4 54 4 60 82 60 l69 0 2 43 c1
23 2 61 2 85 0 23 5 42 11 43 5 0 190 1 410 2 l400 2 3 413 2 412 85 0 85 0 0
75 0 75 80 0 80 0 0 68 c0 96 9 105 98 100 l72 -3 1 55 c2 69 10 105 27 106 6
1 41 2 77 3 l65 1 0 80 0 79 83 3 82 3 3 85 c5 132 6 130 -88 130 l-79 0 -3
83 -3 82 -77 3 -77 3 -6 33 c-4 18 -5 53 -3 77 l3 44 -82 3 c-79 3 -83 4 -89
28 -4 14 -4 50 0 79 7 63 5 65 -95 65 l-69 0 0 64 c0 96 0 96 -91 96 l-79 0 0
405 0 405 -412 2 -413 3 3 44 c2 25 1 64 -3 88 l-6 43 -70 0 c-66 0 -70 1 -79
26 -6 15 -8 42 -4 60 3 19 3 45 0 59 -6 24 -9 25 -86 25 l-79 0 3 70 c4 73 -4
92 -41 91 -124 -3 -117 -8 -123 83 l-5 78 -75 2 -75 3 -5 71 c-3 39 -9 75 -15
80 -11 10 -191 23 -200 14z m-35 -1197 c8 -10 11 -32 7 -61 -4 -37 -1 -50 15
-66 19 -19 20 -19 69 17 134 96 236 128 278 86 16 -16 18 -25 10 -61 -17 -76
-34 -95 -59 -65 -28 34 -118 2 -249 -88 -100 -69 -324 -289 -319 -314 2 -11
21 -24 53 -35 81 -28 351 -22 550 12 71 12 573 76 660 85 179 17 347 -57 391
-171 25 -65 15 -161 -20 -191 -29 -24 -95 -47 -190 -64 -34 -6 -72 -16 -86
-23 -47 -22 -80 -129 -44 -143 8 -3 20 -1 27 6 6 6 15 11 19 11 15 0 8 -17
-17 -44 -52 -56 -100 -14 -75 66 7 24 21 55 32 71 l19 27 -28 0 c-15 -1 -75
-9 -133 -18 l-105 -18 5 -29 c12 -73 5 -161 -17 -198 -12 -20 -19 -38 -15 -40
35 -19 387 -87 449 -87 8 0 13 13 13 38 0 21 9 66 21 99 19 58 19 63 4 94 -14
27 -15 38 -5 75 13 47 49 91 37 46 -3 -15 2 -39 14 -61 l19 -38 -29 -74 c-30
-75 -34 -91 -32 -121 1 -22 38 -33 56 -18 12 10 15 9 15 -3 0 -9 -4 -19 -10
-22 -20 -13 -9 -25 23 -25 59 0 65 -12 37 -70 l-25 -50 -91 -4 c-118 -5 -287
-45 -520 -121 -255 -84 -408 -111 -523 -93 -122 19 -161 50 -269 217 -41 64
-80 119 -86 123 -43 29 -127 -40 -200 -164 -27 -45 -70 -114 -95 -153 -45 -68
-46 -71 -33 -99 14 -27 13 -37 -8 -105 -32 -104 -37 -169 -15 -178 10 -3 26
-1 36 5 29 19 31 15 9 -28 -21 -42 -53 -53 -78 -28 -20 20 -14 112 13 187 20
55 23 75 15 91 -11 21 -35 27 -45 10 -3 -5 -13 -10 -21 -10 -11 0 -12 4 -5 19
9 17 5 19 -37 25 -57 7 -101 33 -134 78 -30 40 -68 129 -68 157 0 27 -2 26
-66 -5 -74 -36 -167 -43 -210 -15 -49 30 -86 117 -92 210 -4 68 7 176 24 238
5 17 1 22 -17 25 -32 4 -51 44 -44 90 7 50 44 148 55 148 6 0 5 -11 0 -26 -19
-48 -29 -110 -23 -132 6 -24 41 -30 61 -10 15 15 28 2 14 -15 -14 -16 -30 -88
-42 -183 -8 -61 -6 -79 10 -124 45 -124 119 -141 272 -64 48 24 50 28 62 101
3 18 13 49 22 70 16 34 18 35 21 15 3 -12 0 -46 -6 -74 -6 -28 -9 -53 -7 -56
7 -6 116 79 176 138 l51 49 -42 83 c-37 74 -41 87 -36 136 3 29 13 65 22 79
16 24 16 24 -4 14 -11 -6 -42 -11 -70 -11 -44 0 -50 -3 -53 -22 -2 -17 -9 -22
-24 -21 -24 3 -38 -23 -49 -91 -11 -68 -51 -132 -108 -176 -30 -22 -60 -40
-68 -40 -9 0 -24 -7 -35 -15 -22 -16 -54 -20 -54 -6 0 6 11 16 24 23 35 19
147 97 174 121 25 23 27 43 11 97 -9 30 -18 39 -42 44 -27 6 -29 9 -24 40 l5
33 -75 11 c-98 13 -113 27 -113 104 0 45 7 72 30 118 28 56 38 65 159 144 114
76 191 143 191 169 0 19 53 113 78 140 32 34 52 34 77 -1 27 -36 33 -159 11
-222 -13 -39 -14 -47 -1 -67 21 -32 19 -65 -8 -104 -33 -50 -97 -49 -97 1 0
17 57 137 82 171 8 12 7 27 -3 60 -26 81 -69 58 -133 -71 -48 -95 -87 -134
-203 -197 -104 -58 -135 -84 -119 -100 10 -10 197 -10 414 0 150 8 172 7 172
-6 0 -8 -7 -18 -16 -21 -9 -4 -14 -9 -11 -12 3 -3 19 2 35 12 46 26 63 14 56
-40 -5 -35 -1 -55 16 -91 25 -53 46 -69 116 -90 68 -21 101 -19 109 4 3 11 13
22 23 26 9 4 82 32 162 62 402 154 400 153 400 135 0 -13 -32 -37 -65 -50 -16
-6 -118 -46 -225 -88 -107 -42 -206 -80 -219 -85 -41 -16 -16 -20 55 -9 38 6
98 15 134 20 142 21 495 82 502 87 5 2 -2 24 -16 47 -22 38 -23 46 -13 89 6
26 8 49 6 51 -2 2 -44 -2 -94 -9 -346 -51 -516 -65 -649 -55 -107 8 -139 23
-164 74 -31 62 38 224 144 336 72 76 76 89 11 36 -23 -19 -69 -46 -102 -61
-66 -29 -63 -24 -143 -207 -23 -55 -42 -74 -42 -45 0 7 18 59 40 115 22 55 40
111 40 123 0 15 -23 45 -65 85 -76 73 -80 93 -38 179 26 53 51 76 38 34 -5
-16 7 -33 60 -84 l67 -64 -4 -66 c-1 -36 -2 -65 0 -65 9 0 163 110 195 139 40
37 46 55 22 65 -21 7 -37 54 -29 80 8 25 61 76 79 76 7 0 18 -7 25 -15z m-885
-19 c8 -13 13 -31 9 -40 -7 -19 -16 -20 -33 -3 -19 19 -36 -11 -50 -92 -7 -38
-18 -77 -25 -86 -11 -15 -14 -12 -25 26 -20 67 -40 99 -60 99 -10 0 -24 7 -31
15 -22 26 11 81 43 69 14 -5 49 -66 62 -108 7 -25 13 -18 20 24 9 54 42 120
59 120 9 0 22 -11 31 -24z m2125 -164 c0 -17 -5 -34 -11 -37 -6 -5 -9 -32 -6
-74 6 -74 -10 -126 -40 -134 -61 -17 -92 -17 -101 -1 -8 14 -14 15 -42 5 -42
-14 -93 -14 -107 0 -9 9 -19 6 -39 -10 -21 -16 -30 -19 -41 -9 -8 6 -11 18 -8
25 4 12 -2 13 -28 7 -17 -4 -53 -8 -79 -8 -25 -1 -50 -4 -54 -8 -4 -5 -15 -8
-23 -8 -9 0 -22 -9 -29 -21 -9 -13 -19 -18 -32 -14 -10 3 -21 1 -25 -5 -5 -9
-41 -6 -53 5 -9 8 13 35 29 35 10 0 19 4 19 8 0 19 -14 21 -41 6 -16 -8 -66
-20 -112 -26 -124 -17 -132 -16 -132 7 0 16 10 22 47 28 56 11 57 15 67 176 4
78 10 116 19 119 9 3 12 -18 12 -81 0 -81 1 -86 23 -89 32 -4 37 -60 6 -81
-12 -9 -28 -13 -35 -10 -8 3 -14 0 -14 -7 0 -15 67 -9 113 9 32 13 33 25 11
141 -15 81 -14 110 5 110 11 0 17 -22 36 -150 9 -57 18 -106 20 -108 2 -3 15
2 28 11 21 14 24 14 35 -1 17 -26 31 2 26 52 -10 95 -9 189 2 193 7 2 14 -22
18 -69 12 -126 18 -163 27 -173 13 -13 27 4 31 39 5 43 32 56 59 29 24 -24 17
-47 -12 -38 -10 4 -19 2 -19 -3 0 -14 18 -19 52 -14 27 4 29 7 22 36 -3 17
-12 49 -20 71 -30 87 1 107 34 23 23 -60 29 -36 9 33 -15 48 -12 69 7 69 14 0
31 -69 41 -168 4 -35 14 -71 24 -83 17 -21 17 -21 77 -3 77 23 126 25 141 5
10 -13 12 -4 13 50 0 36 -3 69 -7 72 -9 9 -43 -22 -43 -40 0 -7 -4 -13 -10
-13 -5 0 -10 7 -10 15 0 20 -9 19 -75 -6 -31 -11 -63 -18 -71 -15 -21 8 -34
50 -25 82 10 39 33 45 25 6 -3 -17 -1 -32 5 -36 16 -10 119 25 126 42 8 22 -2
27 -31 13 -17 -7 -31 -8 -36 -3 -13 13 -6 47 9 47 6 0 15 3 19 8 12 12 44 8
44 -6 0 -6 16 -17 35 -23 35 -11 35 -11 35 20 0 18 5 37 11 43 17 17 49 -27
49 -65z m-1370 -1296 c50 -107 87 -218 100 -298 26 -165 84 -323 138 -380 43
-46 51 -37 34 39 -12 53 -13 81 -4 135 12 83 41 132 100 169 62 39 115 45 223
24 l90 -18 15 22 c8 11 20 21 27 21 6 0 97 31 202 69 288 104 278 102 273 72
-4 -23 39 -71 63 -71 9 0 24 11 32 24 9 13 23 31 32 40 16 15 19 15 50 -11 19
-16 43 -35 55 -43 21 -15 21 -15 -15 -67 -41 -61 -61 -66 -113 -26 l-35 26
-26 -31 c-33 -41 -69 -42 -113 -3 l-33 30 18 31 c11 17 17 33 15 35 -4 4 -222
-73 -273 -95 -11 -5 -38 -17 -60 -26 l-40 -16 30 -10 c84 -26 291 -70 380 -80
55 -6 104 -15 109 -19 6 -5 -2 -35 -18 -74 -25 -56 -32 -65 -55 -65 -65 -1
-165 -37 -348 -126 -260 -126 -328 -153 -429 -169 -31 -5 -44 -13 -52 -31 -15
-31 -32 -31 -32 0 0 27 -14 42 -52 51 -66 17 -166 138 -189 228 -12 51 -24 59
-35 25 -20 -63 -115 -163 -242 -255 -99 -72 -166 -103 -221 -103 -35 0 -49 6
-76 33 -43 43 -59 102 -51 194 3 40 7 77 8 84 2 7 -12 16 -29 21 -39 10 -48
35 -40 118 5 59 48 170 65 170 5 0 0 -26 -10 -57 -25 -73 -28 -140 -8 -153 23
-15 39 -12 57 10 10 11 21 20 25 20 11 0 10 -34 -1 -46 -16 -17 -41 -116 -41
-166 0 -66 26 -83 113 -74 82 8 178 55 292 143 106 82 150 138 149 191 -2 42
-56 207 -109 332 l-37 85 12 70 c7 39 14 73 17 78 11 19 27 0 63 -77z m-820
-212 c0 -14 3 -14 15 -4 19 16 34 5 17 -12 -7 -7 -12 -16 -12 -20 0 -17 23 -7
52 23 28 28 33 29 55 18 14 -7 34 -26 45 -42 24 -33 37 -117 19 -117 -6 0 -11
14 -11 30 0 17 -5 30 -11 30 -6 0 -8 -7 -5 -16 9 -22 -11 -54 -34 -54 -11 0
-20 -5 -20 -11 0 -8 13 -9 42 -5 36 6 40 5 28 -9 -7 -8 -19 -15 -26 -15 -8 0
-14 -5 -14 -10 0 -6 11 -8 25 -4 29 7 34 -10 8 -24 -25 -13 -113 -21 -113 -11
0 5 -7 9 -15 9 -8 0 -15 -9 -15 -19 0 -30 -21 -37 -41 -13 -9 12 -28 22 -41
22 -50 0 -63 21 -67 114 -3 74 -1 86 13 86 12 0 15 6 10 25 -10 38 12 30 41
-15 14 -22 28 -40 31 -40 3 0 5 17 3 38 -1 20 -1 43 0 50 2 18 21 15 21 -4z
m23 -395 c19 -27 10 -62 -43 -163 -45 -86 -50 -121 -20 -131 23 -7 102 16 173
52 27 13 52 22 55 18 10 -10 -72 -86 -120 -111 -135 -69 -191 22 -113 185 19
40 35 79 35 87 0 19 -47 18 -84 -1 -16 -9 -31 -14 -33 -12 -1 2 2 18 8 36 19
54 114 81 142 40z m2260 -140 c6 -9 7 -24 4 -33 -6 -14 -10 -15 -27 -4 -31 20
-34 14 -66 -154 -9 -45 -28 -32 -49 35 -16 48 -25 63 -42 65 -34 5 -48 28 -35
57 7 14 18 25 26 25 24 0 56 -41 69 -87 6 -24 14 -43 18 -43 3 0 9 21 13 46 9
68 34 116 59 112 11 -2 25 -10 30 -19z"/>
<path d="M3255 3084 c-165 -18 -265 -34 -265 -43 0 -4 25 -31 55 -61 60 -59
65 -70 35 -70 -24 0 -26 -13 -5 -30 11 -9 59 -5 232 23 120 20 258 41 306 48
48 7 90 16 93 20 3 5 -15 28 -39 52 -68 69 -186 86 -412 61z"/>
<path d="M1873 2799 c-24 -17 -43 -36 -43 -44 0 -7 9 -35 21 -62 11 -26 21
-63 22 -80 1 -34 14 -44 23 -18 4 8 11 15 18 15 16 -1 86 -68 86 -83 0 -13
-65 -87 -76 -87 -4 0 -23 10 -42 22 -29 18 -37 19 -40 7 -7 -21 -148 -164
-193 -195 -47 -32 -50 -62 -15 -132 39 -77 108 -94 185 -44 33 21 68 65 156
199 94 141 122 176 158 197 85 50 144 23 207 -96 62 -117 165 -204 260 -222
l35 -6 2 58 c1 31 11 84 22 116 12 33 21 70 21 83 0 28 -26 41 -51 25 -23 -14
-29 -15 -29 -3 0 18 52 71 68 71 53 -1 58 -55 17 -174 -27 -81 -27 -122 1
-133 8 -3 24 3 36 13 21 19 21 19 15 -8 -4 -14 -10 -34 -13 -43 -6 -15 -1 -16
42 -11 138 15 465 99 497 126 14 13 -347 90 -419 90 -39 0 -39 0 -18 56 15 40
19 43 117 79 103 38 197 81 197 90 0 5 -71 115 -74 115 -4 0 -361 -62 -443
-76 -57 -10 -103 -21 -103 -25 0 -4 14 -19 30 -32 38 -32 37 -43 -1 -90 -33
-41 -57 -46 -95 -21 -42 28 -48 50 -24 91 11 19 20 37 18 38 -2 1 -34 -2 -73
-7 -38 -5 -115 -8 -170 -6 -88 3 -106 7 -148 32 -65 38 -104 89 -118 153 -7
29 -15 53 -18 53 -3 -1 -25 -14 -48 -31z"/>
<path d="M2620 1779 c-58 -23 -101 -95 -73 -123 4 -4 19 -39 34 -79 l26 -72
69 2 c74 1 145 24 324 103 52 23 111 49 130 57 l35 15 -100 29 c-231 68 -386
91 -445 68z m154 -73 c20 -19 36 -39 36 -45 0 -16 -60 -81 -75 -81 -21 0 -75
50 -75 69 0 17 56 91 69 91 5 0 25 -15 45 -34z"/>
</g>
</svg>
