<?xml version="1.0" standalone="no"?>
<!DOCTYPE svg PUBLIC "-//W3C//DTD SVG 20010904//EN"
 "http://www.w3.org/TR/2001/REC-SVG-20010904/DTD/svg10.dtd">
<svg version="1.0" xmlns="http://www.w3.org/2000/svg"
 width="640.000000pt" height="640.000000pt" viewBox="0 0 640.000000 640.000000"
 preserveAspectRatio="xMidYMid meet">

<g transform="translate(0.000000,640.000000) scale(0.100000,-0.100000)"
fill="#000000" stroke="none">
<path d="M3084 5916 c-3 -8 -4 -49 -2 -90 l3 -76 -91 0 c-108 0 -104 4 -104
-110 l0 -79 -87 -3 -88 -3 -3 -92 -3 -92 -92 -3 -92 -3 3 -72 c5 -115 5 -116
-92 -112 l-81 4 -3 -89 c-2 -50 -7 -95 -13 -102 -7 -8 -106 -12 -372 -12 -199
0 -404 -1 -454 -1 l-93 -1 0 -460 0 -460 -100 0 -100 0 0 -90 0 -89 -93 -3
-92 -3 -2 -65 c-1 -36 -2 -77 -2 -93 -1 -15 -4 -26 -8 -26 -5 1 -45 1 -90 0
l-83 -1 0 -90 0 -89 -92 -3 -93 -3 -3 -92 -3 -92 -92 -3 -92 -3 0 -105 0 -105
93 -3 92 -3 0 -94 0 -95 95 0 94 0 3 -92 3 -92 85 0 85 -1 5 -90 5 -90 93 -3
92 -3 0 -84 0 -84 98 -3 97 -3 5 -465 5 -465 462 -3 462 -2 3 -98 3 -97 85 -3
85 -3 0 -72 c-1 -113 -6 -107 96 -107 l89 0 0 -95 0 -95 90 0 90 0 0 -90 0
-89 98 -3 97 -3 0 -90 0 -90 110 0 110 0 3 93 3 92 89 0 90 0 0 90 0 89 93 3
92 3 3 92 3 92 92 3 92 3 3 88 3 87 74 0 c108 0 105 -3 105 106 l0 94 463 2
462 3 3 467 2 468 95 0 95 0 0 85 0 85 95 0 95 0 0 89 c0 105 -1 104 112 99
l73 -3 3 93 3 92 89 0 89 0 3 93 3 92 90 5 90 5 3 107 3 107 -93 3 -93 3 -3
93 -3 92 -89 0 -90 0 0 90 c0 65 -3 90 -12 91 -7 0 -49 1 -93 2 l-80 2 -5 90
-5 90 -92 3 -93 3 0 89 0 90 -95 0 -95 0 0 193 c-1 105 -2 313 -3 461 l-2 269
-462 0 -462 0 -3 101 -3 101 -35 -3 c-19 -1 -59 1 -87 4 l-53 5 0 90 0 89 -95
0 -94 0 -3 93 -3 92 -92 3 -93 3 0 94 0 95 -90 0 -89 0 -3 88 -3 87 -108 3
c-87 2 -108 0 -113 -12z m-44 -1331 c9 -10 11 -32 7 -67 -6 -44 -3 -55 17 -78
l22 -27 55 39 c223 161 368 168 318 17 -16 -48 -24 -54 -50 -35 -34 23 -61 20
-142 -18 -111 -52 -239 -149 -378 -286 -129 -128 -150 -159 -129 -186 52 -61
362 -59 820 6 162 23 331 46 375 51 44 5 107 14 140 19 242 39 457 -27 526
-161 24 -48 26 -156 3 -200 -26 -51 -122 -80 -429 -128 -201 -32 -255 -43
-255 -50 1 -3 7 -32 14 -63 16 -67 5 -140 -33 -203 -12 -21 -20 -39 -19 -41
16 -15 406 -89 508 -96 l45 -3 -3 35 c-1 19 2 49 7 65 l9 30 1 -35 c1 -42 16
-60 48 -60 24 0 31 -14 13 -25 -23 -14 -7 -25 39 -25 28 0 52 -3 54 -7 3 -5
-6 -32 -19 -60 l-23 -53 -69 0 c-113 0 -433 -65 -537 -110 -46 -20 -183 -62
-290 -90 -274 -72 -464 -58 -560 40 -21 21 -75 94 -119 162 -84 128 -115 155
-163 143 -43 -10 -115 -95 -188 -220 -38 -66 -89 -145 -113 -177 l-43 -57 22
-22 c25 -25 22 -58 -12 -154 -12 -33 -24 -82 -26 -108 -6 -59 9 -81 49 -73 32
6 35 0 12 -32 -17 -24 -53 -29 -72 -10 -21 21 -13 106 19 199 30 86 30 91 14
115 -14 22 -22 25 -48 20 -25 -5 -29 -4 -19 6 21 21 13 28 -33 28 -66 0 -145
38 -176 86 -29 44 -69 145 -69 174 0 32 -18 32 -84 0 -81 -40 -167 -50 -219
-25 -45 21 -90 91 -106 164 -15 68 -15 201 0 201 6 0 8 -7 5 -17 -10 -26 14
-123 40 -165 52 -82 153 -90 279 -23 79 41 85 48 85 91 0 43 32 145 38 119 2
-10 -1 -43 -8 -72 -15 -67 -8 -77 34 -52 46 27 203 166 217 191 9 16 2 38 -37
118 -42 89 -46 103 -40 147 4 30 17 60 34 82 32 40 194 154 203 143 4 -4 9
-39 11 -79 3 -62 8 -77 34 -110 47 -58 86 -76 174 -81 69 -4 78 -2 82 14 5 20
14 24 343 149 105 40 214 82 243 94 28 11 52 16 52 11 0 -20 -28 -32 -310
-140 -47 -18 -126 -50 -177 -72 -51 -21 -99 -38 -107 -38 -8 0 -18 -5 -22 -12
-16 -26 206 0 581 67 50 9 126 22 170 29 104 16 107 18 88 59 -9 17 -22 39
-30 48 -12 14 -12 25 -1 70 l14 53 64 -65 c58 -57 62 -64 41 -67 -18 -3 -22
-9 -19 -30 4 -39 26 -39 281 2 122 19 276 44 341 54 75 11 121 23 124 31 2 7
-20 36 -50 65 -72 70 -113 81 -293 80 -77 -1 -176 -7 -220 -12 -158 -21 -402
-53 -515 -67 -63 -8 -162 -21 -220 -30 -234 -34 -451 -29 -521 12 -68 40 -66
118 7 268 38 80 106 161 211 254 39 36 70 68 67 73 -7 11 -44 10 -44 -1 0 -5
-28 -36 -61 -69 -53 -52 -83 -71 -201 -129 -5 -3 -8 -2 -8 1 0 2 37 30 83 62
110 77 177 136 177 155 0 9 -11 21 -24 29 -47 25 -41 94 12 137 32 27 45 28
62 8z m-1001 -27 c12 -31 4 -40 -20 -27 -15 7 -24 7 -35 -2 -21 -17 -19 9 3
33 22 24 42 23 52 -4z m-170 -35 c12 -14 28 -50 37 -80 8 -29 20 -51 25 -48
11 8 12 -45 0 -63 -5 -9 -14 6 -26 45 -23 72 -36 94 -55 92 -30 -3 -39 1 -45
21 -7 23 10 60 30 60 7 0 23 -12 34 -27z m98 -35 c-3 -8 -6 -5 -6 6 -1 11 2
17 5 13 3 -3 4 -12 1 -19z m679 -83 c63 -59 64 -61 64 -112 0 -28 -4 -63 -10
-77 -8 -22 -7 -26 7 -26 15 0 16 -1 1 -12 -9 -7 -42 -68 -74 -136 -55 -118
-80 -155 -51 -76 8 22 28 75 44 119 39 103 34 123 -52 203 -72 67 -78 87 -49
158 25 60 36 70 47 42 4 -12 37 -50 73 -83z m-689 28 c-3 -10 -5 -4 -5 12 0
17 2 24 5 18 2 -7 2 -21 0 -30z m2464 5 c21 -26 24 -60 8 -90 -6 -11 -12 -60
-13 -108 -1 -105 -14 -125 -84 -136 -37 -6 -48 -4 -59 11 -12 18 -15 18 -69 1
-55 -17 -104 -15 -104 4 0 6 -7 10 -15 10 -8 0 -15 -5 -15 -10 0 -18 -49 -35
-62 -22 -9 9 -7 15 8 26 26 20 13 29 -22 15 -16 -6 -60 -12 -99 -14 -38 -1
-78 -6 -89 -10 -11 -5 -26 -3 -37 3 -13 8 -20 9 -25 1 -4 -6 -1 -15 7 -19 19
-12 -6 -39 -30 -33 -10 3 -21 0 -25 -5 -5 -8 -56 -5 -56 3 0 21 15 34 35 29
30 -7 39 9 16 30 -16 15 -20 15 -52 -1 -18 -9 -58 -18 -89 -21 -30 -2 -62 -6
-70 -9 -32 -12 -99 -17 -107 -9 -3 3 -3 12 1 21 4 11 12 14 26 10 11 -3 25 -3
32 2 7 4 20 8 28 8 9 0 17 14 21 37 3 20 12 44 19 53 9 11 11 43 8 121 -3 57
-1 107 2 109 13 8 20 -37 20 -132 0 -89 15 -137 22 -71 l4 33 13 -27 c11 -22
12 -33 2 -54 -10 -22 -16 -25 -41 -20 -25 5 -30 2 -30 -14 0 -17 7 -20 42 -20
47 0 124 26 131 44 2 6 -5 64 -16 129 -17 103 -18 142 -3 126 7 -7 34 -144 41
-210 9 -78 17 -87 50 -65 25 17 27 17 40 -1 12 -16 15 -16 29 -3 13 13 14 30
6 110 -12 120 -12 170 -2 170 5 0 14 -57 21 -127 6 -69 16 -132 22 -140 18
-21 38 -15 44 12 3 14 7 36 10 50 7 30 40 34 55 6 15 -29 13 -32 -16 -25 -22
6 -25 4 -22 -12 2 -15 13 -20 51 -22 l47 -3 0 33 c-1 18 -9 58 -20 88 -22 62
-24 80 -10 80 23 0 51 -99 54 -190 1 -14 6 -24 11 -22 14 3 11 83 -7 177 -14
76 -14 116 2 98 8 -9 28 -114 40 -211 13 -98 34 -110 130 -72 61 24 74 25 66
5 -3 -8 -1 -15 4 -15 6 0 10 7 10 15 0 8 5 15 10 15 6 0 10 -8 10 -17 1 -17 1
-17 11 0 10 17 12 17 23 1 8 -10 18 -14 26 -9 10 6 11 27 5 89 -10 115 -9 216
1 216 3 0 14 -10 25 -22z m99 -78 c-6 -11 -12 -65 -13 -120 -1 -60 -7 -104
-14 -111 -9 -9 -12 -4 -11 22 0 19 -1 91 -2 161 -3 146 5 173 32 110 14 -32
16 -47 8 -62z m-230 40 c0 -12 -60 -44 -67 -36 -9 9 6 38 16 31 6 -3 16 1 23
9 13 14 28 12 28 -4z m-1891 -13 c28 -35 42 -102 35 -167 l-7 -65 -16 54 c-32
106 -89 82 -167 -70 -58 -112 -114 -168 -225 -225 -104 -54 -165 -103 -156
-127 12 -31 153 -34 555 -10 111 6 139 -1 90 -24 -13 -6 -53 -34 -90 -61 -62
-47 -73 -51 -130 -54 -62 -3 -63 -3 -60 -30 3 -29 -6 -36 -25 -17 -7 7 -16 5
-29 -8 -19 -19 -19 -21 2 32 5 13 -13 15 -127 15 -201 1 -241 25 -226 135 15
109 74 181 216 265 138 81 168 112 230 231 30 57 61 112 69 122 18 20 45 22
61 4z m1969 -45 c2 -12 -6 -29 -17 -39 -12 -9 -21 -23 -21 -30 0 -7 -4 -13
-10 -13 -5 0 -10 7 -10 15 0 20 -6 19 -84 -10 -83 -31 -106 -24 -106 33 0 20
5 44 10 52 7 11 10 8 10 -16 0 -51 17 -56 89 -30 53 19 66 28 77 56 13 31 15
32 37 18 12 -9 23 -25 25 -36z m-2317 -110 c-15 -27 8 -68 37 -64 26 4 28 -5
5 -30 -22 -25 -39 -23 -59 7 -13 20 -14 30 -4 62 20 64 22 69 27 56 2 -7 0
-20 -6 -31z m1054 -85 c-27 -65 -15 -107 30 -107 12 0 27 6 34 13 11 10 11 8
1 -13 -26 -49 -57 -61 -85 -33 -22 21 -15 103 11 150 24 41 28 36 9 -10z
m-680 -145 c-4 -4 -14 3 -22 16 -9 12 -22 22 -29 22 -18 0 -18 5 3 36 l16 25
20 -46 c11 -25 16 -49 12 -53z m-15 -60 c0 -20 -48 -38 -68 -25 -35 22 -25 39
23 38 29 0 45 -4 45 -13z m-328 -359 c9 -10 22 -37 29 -60 7 -24 16 -43 21
-43 11 0 10 -38 -2 -45 -5 -3 -10 1 -10 10 0 30 -40 95 -58 95 -28 0 -43 20
-31 42 12 23 31 23 51 1z m-349 -151 c7 -9 22 -12 40 -8 27 5 29 4 23 -17 -3
-12 -6 -28 -6 -35 0 -13 -45 -7 -67 10 -17 14 -26 64 -16 101 l8 32 3 -35 c2
-19 9 -41 15 -48z m2491 3 c-11 -42 3 -75 31 -75 31 0 32 -14 3 -34 -48 -34
-79 38 -46 109 14 32 20 32 12 0z m306 -75 c-1 -30 -28 -94 -29 -68 -1 10 -10
35 -22 57 -19 37 -19 41 -4 77 l15 37 20 -38 c11 -22 20 -51 20 -65z m-2431
-7 c-30 -37 -77 -74 -131 -103 -32 -17 -58 -29 -58 -26 0 3 40 32 89 66 49 33
92 64 96 70 3 5 9 10 12 10 3 0 -1 -8 -8 -17z m-332 -65 c-3 -7 -5 -2 -5 12 0
14 2 19 5 13 2 -7 2 -19 0 -25z m-10 -70 c-3 -7 -5 -2 -5 12 0 14 2 19 5 13 2
-7 2 -19 0 -25z m1126 -290 c53 -109 92 -228 122 -373 30 -144 63 -250 101
-330 26 -56 100 -133 114 -118 5 4 2 43 -5 86 -16 88 -7 205 19 255 36 69 128
121 213 122 28 0 87 -7 130 -15 98 -19 100 -19 107 3 4 11 30 26 69 39 34 12
118 42 187 67 215 77 295 106 297 106 1 0 3 -15 5 -32 2 -26 11 -37 43 -55 22
-13 43 -23 46 -23 4 0 22 20 40 45 38 49 49 54 66 27 6 -11 27 -27 47 -36 20
-9 36 -21 36 -25 0 -19 -68 -106 -85 -109 -9 -2 -36 10 -60 27 -50 36 -61 38
-69 13 -4 -11 -17 -29 -31 -42 -22 -20 -27 -21 -54 -11 -16 7 -39 23 -51 36
l-22 24 23 40 c12 22 20 44 16 47 -5 5 -80 -19 -142 -45 -11 -5 -54 -21 -95
-36 -161 -58 -215 -80 -213 -90 1 -5 17 -13 35 -17 18 -3 67 -16 108 -27 93
-25 248 -58 315 -66 157 -18 149 -11 110 -99 -18 -40 -31 -57 -47 -60 -13 -2
-54 -10 -93 -16 -55 -10 -126 -39 -325 -135 -266 -129 -374 -172 -460 -182
-44 -5 -53 -10 -67 -37 l-17 -31 -9 38 c-6 25 -15 37 -26 37 -25 0 -131 71
-163 109 -34 40 -84 144 -92 194 -4 20 -10 37 -15 37 -4 0 -18 -24 -32 -52
-33 -72 -190 -229 -299 -300 -115 -75 -143 -88 -198 -95 -42 -5 -52 -2 -81 23
-50 42 -71 96 -70 179 1 61 2 65 9 31 12 -64 40 -79 133 -73 95 6 187 47 303
133 147 108 214 184 214 242 0 57 -82 300 -151 446 -21 45 -21 46 -3 121 10
41 21 75 24 75 4 0 23 -33 43 -72z m-902 -278 c6 0 8 -4 4 -9 -3 -5 -1 -12 4
-15 12 -8 78 31 85 49 6 17 32 20 41 5 9 -15 -14 -40 -37 -40 -11 0 -33 -9
-48 -20 -16 -11 -35 -19 -42 -18 -17 4 -23 -58 -8 -77 9 -11 17 -12 30 -5 12
6 21 7 25 0 3 -5 12 -7 20 -3 10 3 15 21 16 57 l1 51 12 -51 c9 -44 14 -51 34
-49 12 1 22 -4 22 -12 0 -7 -11 -13 -25 -13 -20 0 -25 -5 -25 -26 0 -15 4 -23
10 -19 6 4 24 11 41 15 26 8 29 7 19 -6 -7 -8 -20 -13 -29 -12 -9 2 -16 -4
-16 -12 0 -10 9 -14 28 -13 24 2 27 0 17 -12 -14 -17 -106 -18 -127 -2 -16 12
-33 0 -33 -23 0 -29 -22 -36 -38 -12 -9 14 -25 22 -41 22 -45 0 -71 26 -70 68
2 34 2 35 6 7 7 -43 20 -55 64 -55 34 0 42 5 59 33 l20 32 0 -29 c0 -23 3 -27
20 -23 11 3 20 1 20 -4 0 -5 7 -9 15 -9 11 0 15 11 15 40 l0 40 -48 0 c-26 0
-54 6 -60 12 -10 10 -15 10 -20 1 -4 -6 -21 -14 -37 -18 -29 -6 -28 -5 8 15
20 11 37 24 37 28 0 5 -14 21 -30 37 -27 25 -65 85 -55 85 17 0 35 -15 35 -29
0 -10 11 -28 25 -41 22 -20 25 -21 31 -6 4 9 4 34 0 55 -3 21 -2 41 2 45 4 5
8 -2 10 -13 2 -12 8 -21 13 -21z m183 -29 c30 -47 43 -91 27 -91 -6 0 -11 10
-11 23 0 13 -7 32 -15 43 -13 18 -14 16 -15 -21 -1 -32 -3 -36 -10 -20 -9 21
-13 105 -5 105 3 0 16 -18 29 -39z m511 -77 c6 -25 35 -36 60 -21 17 9 17 8
-1 -24 -25 -42 -48 -48 -69 -15 -13 20 -15 36 -9 83 6 41 9 49 11 28 2 -16 6
-40 8 -51z m-823 44 c-7 -7 -12 -8 -12 -2 0 14 12 26 19 19 2 -3 -1 -11 -7
-17z m441 -123 c-3 -9 -8 -14 -10 -11 -3 3 -2 9 2 15 9 16 15 13 8 -4z m-23
-66 c-32 -109 20 -179 85 -114 31 30 31 27 1 -58 -25 -70 -43 -103 -31 -54 7
26 5 27 -28 27 -19 0 -40 6 -46 14 -28 33 -24 114 9 202 15 37 22 25 10 -17z
m-220 -29 c0 -5 -7 -10 -15 -10 -8 0 -15 5 -15 10 0 6 7 10 15 10 8 0 15 -4
15 -10z m2391 -13 c-10 -9 -11 -8 -5 6 3 10 9 15 12 12 3 -3 0 -11 -7 -18z
m-17 -47 c-8 -38 10 -60 48 -60 26 0 29 -2 18 -16 -38 -44 -90 -36 -90 15 0
27 18 91 26 91 2 0 1 -13 -2 -30z m-2434 -75 c19 -23 7 -72 -44 -174 -54 -109
-60 -157 -21 -167 27 -7 91 11 171 48 27 12 57 25 67 30 10 4 2 -11 -20 -38
-39 -46 -140 -104 -183 -104 -12 0 -35 14 -52 31 -28 28 -30 34 -25 81 4 29
24 86 47 132 22 45 40 87 40 94 0 18 -79 19 -113 0 -27 -14 -32 -2 -13 27 31
47 120 71 146 40z m2560 -191 c0 -17 -5 -17 -30 -2 -16 11 -22 9 -34 -7 -13
-17 -15 -17 -16 -4 0 9 10 29 22 44 l22 28 18 -23 c10 -12 18 -28 18 -36z
m-1630 -28 c-45 -66 -37 -116 17 -116 21 0 22 -2 11 -20 -15 -25 -65 -24 -81
1 -16 25 1 83 39 133 44 58 53 60 14 2z m1074 4 c-42 -63 -29 -127 23 -117 30
6 29 -7 -2 -27 -29 -19 -60 -14 -75 14 -12 23 10 90 46 137 35 46 40 41 8 -7z
m361 32 c22 -16 39 -45 55 -95 10 -29 23 -51 30 -49 8 2 10 -7 5 -30 -10 -47
-21 -54 -29 -18 -3 18 -15 52 -25 76 -16 35 -25 44 -44 44 -38 0 -53 24 -33
55 17 26 25 29 41 17z m112 -84 c-3 -7 -5 -2 -5 12 0 14 2 19 5 13 2 -7 2 -19
0 -25z"/>
<path d="M2973 4543 c-19 -7 -16 -34 5 -49 30 -23 44 -17 40 18 -3 32 -18 43
-45 31z"/>
<path d="M2506 3573 c-28 -19 -57 -38 -65 -43 -13 -7 -11 -18 14 -80 20 -49
29 -89 28 -121 0 -27 1 -49 4 -49 2 0 15 13 29 29 l24 29 36 -34 c19 -19 40
-34 45 -34 5 0 9 -7 9 -15 0 -17 -67 -95 -82 -95 -5 0 -24 11 -42 25 -18 14
-35 25 -38 25 -3 0 -17 -17 -30 -37 -33 -49 -122 -140 -189 -193 -30 -23 -57
-48 -61 -54 -8 -14 12 -88 37 -135 36 -71 123 -90 200 -46 54 32 91 77 184
225 112 175 121 189 165 223 33 27 49 32 92 32 65 0 77 -10 149 -131 88 -148
188 -233 292 -250 21 -3 42 -6 47 -7 5 -1 10 27 10 63 1 59 45 228 53 204 2
-6 -6 -36 -17 -69 -36 -104 -22 -165 35 -151 23 6 25 5 16 -13 -22 -41 -16
-44 70 -37 157 13 569 124 569 154 0 11 -364 91 -453 99 -37 3 -70 9 -72 13
-3 4 4 25 15 47 18 38 25 43 122 78 57 21 131 51 166 67 59 28 63 32 57 56 -3
14 -17 38 -30 54 -13 15 -26 37 -30 48 -3 11 -14 20 -24 20 -22 0 -248 -35
-356 -55 -44 -8 -120 -22 -170 -31 -49 -9 -94 -20 -100 -26 -7 -6 5 -23 34
-48 l45 -39 -38 -45 c-24 -29 -45 -46 -59 -46 -23 0 -87 53 -87 71 0 6 14 31
31 56 l31 45 -68 -7 c-38 -4 -85 -11 -104 -16 -58 -15 -172 -10 -232 9 -106
35 -184 120 -195 213 -3 27 -9 51 -12 53 -3 2 -28 -12 -55 -31z m923 -366 c5
-13 6 -39 1 -58 -7 -33 -9 -32 -24 14 -6 20 -46 23 -64 5 -20 -20 -14 7 9 36
26 33 66 35 78 3z"/>
<path d="M4410 4389 c0 -11 4 -18 10 -14 5 3 7 12 3 20 -7 21 -13 19 -13 -6z"/>
<path d="M4502 4380 c0 -14 2 -19 5 -12 2 6 2 18 0 25 -3 6 -5 1 -5 -13z"/>
<path d="M3319 2402 c-32 -16 -61 -41 -72 -60 l-19 -32 32 -83 c61 -159 52
-147 116 -147 84 0 189 32 389 119 61 27 129 57 153 67 63 27 58 35 -34 59
-33 9 -102 28 -154 42 -124 33 -276 63 -321 63 -21 0 -60 -12 -90 -28z m221
-112 c19 0 10 -25 -21 -63 -19 -23 -39 -37 -53 -37 -24 0 -76 41 -76 60 0 18
20 53 47 82 l25 26 34 -34 c19 -19 39 -34 44 -34z"/>
</g>
</svg>
