<?xml version="1.0" encoding="utf-8"?>
<!-- Generator: Adobe Illustrator 21.0.2, SVG Export Plug-In . SVG Version: 6.00 Build 0)  -->
<svg version="1.1" id="Layer_1" xmlns="http://www.w3.org/2000/svg" xmlns:xlink="http://www.w3.org/1999/xlink" x="0px" y="0px"
	 viewBox="0 0 992.1 992.1" style="enable-background:new 0 0 992.1 992.1;" xml:space="preserve">
<style type="text/css">
	.st0{fill:#172160;}
	.st1{fill:#F47B2E;}
	.st2{fill:#4F9E8B;}
	.st3{fill:#212121;}
	.st4{fill:#FCFCFC;}
</style>
<polygon class="st0" points="803.3,668.4 975,496.6 803.3,324.7 803.3,193.5 672.2,193.5 496.1,17.1 319.9,193.5 188.5,193.5 
	188.5,325 17.1,496.6 188.5,668.2 188.5,803.3 324.5,803.3 496.1,975 667.7,803.3 803.3,803.3 "/>
<rect x="478.7" y="103.1" class="st1" width="34.3" height="34.3"/>
<rect x="444.4" y="137.4" class="st1" width="34.3" height="34.3"/>
<rect x="410.1" y="171.7" class="st1" width="34.3" height="34.3"/>
<rect x="513" y="137.4" class="st1" width="34.3" height="34.3"/>
<rect x="547.3" y="171.7" class="st1" width="34.3" height="34.3"/>
<rect x="479.1" y="854.7" class="st1" width="34.3" height="34.3"/>
<rect x="513.4" y="820.4" class="st1" width="34.3" height="34.3"/>
<rect x="547.7" y="786.1" class="st1" width="34.3" height="34.3"/>
<rect x="444.8" y="820.4" class="st1" width="34.3" height="34.3"/>
<rect x="410.5" y="786.1" class="st1" width="34.3" height="34.3"/>
<rect x="854.4" y="478.7" class="st1" width="34.3" height="34.3"/>
<rect x="820.1" y="444.4" class="st1" width="34.3" height="34.3"/>
<rect x="785.8" y="410" class="st1" width="34.3" height="34.3"/>
<rect x="820.1" y="513" class="st1" width="34.3" height="34.3"/>
<rect x="785.8" y="547.3" class="st1" width="34.3" height="34.3"/>
<rect x="103.5" y="479.1" class="st1" width="34.3" height="34.3"/>
<rect x="137.8" y="513.4" class="st1" width="34.3" height="34.3"/>
<rect x="172" y="547.8" class="st1" width="34.3" height="34.3"/>
<rect x="137.8" y="444.8" class="st1" width="34.3" height="34.3"/>
<rect x="172" y="410.5" class="st1" width="34.3" height="34.3"/>
<rect x="172" y="172.1" class="st2" width="33.3" height="33.3"/>
<path class="st3" d="M204.8,172.6V205h-32.3v-32.3L204.8,172.6 M205.8,171.6h-34.3V206h34.3V171.6L205.8,171.6z"/>
<rect x="206.1" y="172.1" class="st2" width="33.3" height="33.3"/>
<path class="st3" d="M238.9,172.6V205h-32.3v-32.3L238.9,172.6 M239.9,171.6h-34.3V206h34.3V171.6L239.9,171.6z"/>
<rect x="240.3" y="172.1" class="st2" width="33.3" height="33.3"/>
<path class="st3" d="M273.1,172.6V205h-32.3v-32.3L273.1,172.6 M274.1,171.6h-34.3V206h34.3V171.6L274.1,171.6z"/>
<rect x="274.4" y="172.1" class="st2" width="33.3" height="33.3"/>
<path class="st3" d="M307.2,172.6V205h-32.3v-32.3L307.2,172.6 M308.2,171.6h-34.3V206h34.3V171.6L308.2,171.6z"/>
<rect x="308.5" y="172.1" class="st2" width="33.3" height="33.3"/>
<path class="st3" d="M341.3,172.6V205H309v-32.3L341.3,172.6 M342.3,171.6H308V206h34.3V171.6L342.3,171.6z"/>
<rect x="342.6" y="172.1" class="st2" width="33.3" height="33.3"/>
<path class="st3" d="M375.4,172.6V205h-32.3v-32.3L375.4,172.6 M376.4,171.6h-34.3V206h34.3V171.6L376.4,171.6z"/>
<rect x="376.7" y="103.5" class="st2" width="33.3" height="33.3"/>
<path class="st3" d="M409.5,104v32.3h-32.3V104H409.5 M410.5,103h-34.3v34.3h34.3V103z"/>
<rect x="342.6" y="137.8" class="st2" width="33.3" height="33.3"/>
<path class="st3" d="M375.4,138.3v32.3h-32.3v-32.3H375.4 M376.4,137.3h-34.3v34.3h34.3V137.3z"/>
<rect x="411" y="69.2" class="st2" width="33.3" height="33.3"/>
<path class="st3" d="M443.8,69.7V102h-32.3V69.7H443.8 M444.8,68.7h-34.3V103h34.3V68.7z"/>
<rect x="445.3" y="34.8" class="st2" width="33.3" height="33.3"/>
<path class="st3" d="M478.1,35.3v32.3h-32.3V35.3H478.1 M479.1,34.3h-34.3v34.3h34.3V34.3z"/>
<rect x="479.6" y="0.5" class="st2" width="33.3" height="33.3"/>
<path class="st3" d="M512.4,1v32.3h-32.3V1H512.4 M513.4,0h-34.3v34.3h34.3V0z"/>
<rect x="787.1" y="172.1" class="st2" width="33.3" height="33.3"/>
<path class="st3" d="M819.9,172.6V205h-32.3v-32.3L819.9,172.6 M820.9,171.6h-34.3V206h34.3V171.6L820.9,171.6z"/>
<rect x="753" y="172.1" class="st2" width="33.3" height="33.3"/>
<path class="st3" d="M785.8,172.6V205h-32.3v-32.3L785.8,172.6 M786.8,171.6h-34.3V206h34.3V171.6L786.8,171.6z"/>
<rect x="718.9" y="172.1" class="st2" width="33.3" height="33.3"/>
<path class="st3" d="M751.7,172.6V205h-32.3v-32.3L751.7,172.6 M752.7,171.6h-34.3V206h34.3V171.6L752.7,171.6z"/>
<rect x="684.8" y="172.1" class="st2" width="33.3" height="33.3"/>
<path class="st3" d="M717.6,172.6V205h-32.3v-32.3L717.6,172.6 M718.6,171.6h-34.3V206h34.3V171.6L718.6,171.6z"/>
<rect x="650.7" y="172.1" class="st2" width="33.3" height="33.3"/>
<path class="st3" d="M683.5,172.6V205h-32.3v-32.3L683.5,172.6 M684.5,171.6h-34.3V206h34.3V171.6L684.5,171.6z"/>
<rect x="616.6" y="172.1" class="st2" width="33.3" height="33.3"/>
<path class="st3" d="M649.4,172.6V205h-32.3v-32.3L649.4,172.6 M650.4,171.6h-34.3V206h34.3V171.6L650.4,171.6z"/>
<rect x="582.5" y="103.5" class="st2" width="33.3" height="33.3"/>
<path class="st3" d="M615.3,104v32.3H583V104H615.3 M616.3,103H582v34.3h34.3V103z"/>
<rect x="616.6" y="137.8" class="st2" width="33.3" height="33.3"/>
<path class="st3" d="M649.4,138.3v32.3h-32.3v-32.3H649.4 M650.4,137.3h-34.3v34.3h34.3V137.3z"/>
<rect x="548.2" y="69.2" class="st2" width="33.3" height="33.3"/>
<path class="st3" d="M581,69.7V102h-32.3V69.7H581 M582,68.7h-34.3V103H582V68.7z"/>
<rect x="513.9" y="34.8" class="st2" width="33.3" height="33.3"/>
<path class="st3" d="M546.7,35.3v32.3h-32.3V35.3H546.7 M547.7,34.3h-34.3v34.3h34.3V34.3z"/>
<rect x="172" y="786.7" class="st2" width="33.3" height="33.3"/>
<path class="st3" d="M204.8,787.2v32.3h-32.3v-32.3H204.8 M205.8,786.2h-34.3v34.3h34.3V786.2z"/>
<rect x="206.1" y="786.7" class="st2" width="33.3" height="33.3"/>
<path class="st3" d="M238.9,787.2v32.3h-32.3v-32.3H238.9 M239.9,786.2h-34.3v34.3h34.3V786.2z"/>
<rect x="240.3" y="786.7" class="st2" width="33.3" height="33.3"/>
<path class="st3" d="M273.1,787.2v32.3h-32.3v-32.3H273.1 M274.1,786.2h-34.3v34.3h34.3V786.2z"/>
<rect x="274.4" y="786.7" class="st2" width="33.3" height="33.3"/>
<path class="st3" d="M307.2,787.2v32.3h-32.3v-32.3H307.2 M308.2,786.2h-34.3v34.3h34.3V786.2z"/>
<rect x="308.5" y="786.7" class="st2" width="33.3" height="33.3"/>
<path class="st3" d="M341.3,787.2v32.3H309v-32.3H341.3 M342.3,786.2H308v34.3h34.3V786.2z"/>
<rect x="342.6" y="786.7" class="st2" width="33.3" height="33.3"/>
<path class="st3" d="M375.4,787.2v32.3h-32.3v-32.3H375.4 M376.4,786.2h-34.3v34.3h34.3V786.2z"/>
<rect x="376.7" y="855.3" class="st2" width="33.3" height="33.3"/>
<path class="st3" d="M409.5,855.8v32.3h-32.3v-32.3H409.5 M410.5,854.8h-34.3v34.3h34.3V854.8z"/>
<rect x="342.6" y="821" class="st2" width="33.3" height="33.3"/>
<path class="st3" d="M375.4,821.5v32.3h-32.3v-32.3H375.4 M376.4,820.5h-34.3v34.3h34.3V820.5z"/>
<rect x="411" y="889.6" class="st2" width="33.3" height="33.3"/>
<path class="st3" d="M443.8,890.1v32.3h-32.3v-32.3H443.8 M444.8,889.1h-34.3v34.3h34.3V889.1z"/>
<rect x="445.3" y="924" class="st2" width="33.3" height="33.3"/>
<path class="st3" d="M478.1,924.5v32.3h-32.3v-32.3H478.1 M479.1,923.5h-34.3v34.3h34.3V923.5z"/>
<rect x="479.6" y="958.3" class="st2" width="33.3" height="33.3"/>
<path class="st3" d="M512.4,958.8v32.3h-32.3v-32.3H512.4 M513.4,957.8h-34.3v34.3h34.3V957.8z"/>
<rect x="787.1" y="786.7" class="st2" width="33.3" height="33.3"/>
<path class="st3" d="M819.9,787.2v32.3h-32.3v-32.3H819.9 M820.9,786.2h-34.3v34.3h34.3V786.2z"/>
<rect x="753" y="786.7" class="st2" width="33.3" height="33.3"/>
<path class="st3" d="M785.8,787.2v32.3h-32.3v-32.3H785.8 M786.8,786.2h-34.3v34.3h34.3V786.2z"/>
<rect x="718.9" y="786.7" class="st2" width="33.3" height="33.3"/>
<path class="st3" d="M751.7,787.2v32.3h-32.3v-32.3H751.7 M752.7,786.2h-34.3v34.3h34.3V786.2z"/>
<rect x="684.8" y="786.7" class="st2" width="33.3" height="33.3"/>
<path class="st3" d="M717.6,787.2v32.3h-32.3v-32.3H717.6 M718.6,786.2h-34.3v34.3h34.3V786.2z"/>
<rect x="650.7" y="786.7" class="st2" width="33.3" height="33.3"/>
<path class="st3" d="M683.5,787.2v32.3h-32.3v-32.3H683.5 M684.5,786.2h-34.3v34.3h34.3V786.2z"/>
<rect x="616.6" y="786.7" class="st2" width="33.3" height="33.3"/>
<path class="st3" d="M649.4,787.2v32.3h-32.3v-32.3H649.4 M650.4,786.2h-34.3v34.3h34.3V786.2z"/>
<rect x="582.5" y="855.3" class="st2" width="33.3" height="33.3"/>
<path class="st3" d="M615.3,855.8v32.3H583v-32.3H615.3 M616.3,854.8H582v34.3h34.3V854.8z"/>
<rect x="616.6" y="821" class="st2" width="33.3" height="33.3"/>
<path class="st3" d="M649.4,821.5v32.3h-32.3v-32.3H649.4 M650.4,820.5h-34.3v34.3h34.3V820.5z"/>
<rect x="548.2" y="889.6" class="st2" width="33.3" height="33.3"/>
<path class="st3" d="M581,890.1v32.3h-32.3v-32.3H581 M582,889.1h-34.3v34.3H582V889.1z"/>
<rect x="513.9" y="924" class="st2" width="33.3" height="33.3"/>
<path class="st3" d="M546.7,924.5v32.3h-32.3v-32.3H546.7 M547.7,923.5h-34.3v34.3h34.3V923.5z"/>
<rect x="786.9" y="206.3" class="st2" width="33.3" height="33.3"/>
<path class="st3" d="M819.7,206.8v32.3h-32.3v-32.3H819.7 M820.7,205.8h-34.3v34.3h34.3V205.8z"/>
<rect x="786.9" y="240.4" class="st2" width="33.3" height="33.3"/>
<path class="st3" d="M819.7,240.9v32.3h-32.3v-32.3L819.7,240.9 M820.7,239.9h-34.3v34.3h34.3V239.9z"/>
<rect x="786.9" y="274.5" class="st2" width="33.3" height="33.3"/>
<path class="st3" d="M819.7,275v32.3h-32.3V275H819.7 M820.7,274h-34.3v34.3h34.3V274z"/>
<rect x="786.9" y="308.7" class="st2" width="33.3" height="33.3"/>
<path class="st3" d="M819.7,309.2v32.3h-32.3v-32.3H819.7 M820.7,308.2h-34.3v34.3h34.3V308.2z"/>
<rect x="786.9" y="342.8" class="st2" width="33.3" height="33.3"/>
<path class="st3" d="M819.7,343.3v32.3h-32.3v-32.3H819.7 M820.7,342.3h-34.3v34.3h34.3V342.3z"/>
<rect x="855.5" y="377" class="st2" width="33.3" height="33.3"/>
<path class="st3" d="M888.2,377.5v32.3H856v-32.3H888.2 M889.2,376.5H855v34.3h34.3L889.2,376.5L889.2,376.5z"/>
<rect x="821.2" y="342.8" class="st2" width="33.3" height="33.3"/>
<path class="st3" d="M854,343.3v32.3h-32.3v-32.3H854 M855,342.3h-34.3v34.3H855V342.3z"/>
<rect x="889.7" y="411.3" class="st2" width="33.3" height="33.3"/>
<path class="st3" d="M922.5,411.8v32.3h-32.3v-32.3H922.5 M923.5,410.8h-34.3v34.3h34.3V410.8z"/>
<rect x="924" y="445.6" class="st2" width="33.3" height="33.3"/>
<path class="st3" d="M956.8,446.1v32.3h-32.3v-32.3H956.8 M957.8,445.1h-34.3v34.3h34.3V445.1z"/>
<rect x="958.3" y="480" class="st2" width="33.3" height="33.3"/>
<path class="st3" d="M991.1,480.5v32.3h-32.3v-32.3H991.1 M992.1,479.5h-34.3v34.3h34.3V479.5z"/>
<rect x="786.9" y="753.7" class="st2" width="33.3" height="33.3"/>
<path class="st3" d="M819.7,754.2v32.3h-32.3v-32.3H819.7 M820.7,753.2h-34.3v34.3h34.3V753.2z"/>
<rect x="786.9" y="719.5" class="st2" width="33.3" height="33.3"/>
<path class="st3" d="M819.7,720v32.3h-32.3V720H819.7 M820.7,719h-34.3v34.3h34.3V719z"/>
<rect x="786.9" y="685.4" class="st2" width="33.3" height="33.3"/>
<path class="st3" d="M819.7,685.9v32.3h-32.3v-32.3H819.7 M820.7,684.9h-34.3v34.3h34.3V684.9z"/>
<rect x="786.9" y="651.2" class="st2" width="33.3" height="33.3"/>
<path class="st3" d="M819.7,651.7V684h-32.3v-32.3H819.7 M820.7,650.7h-34.3V685h34.3V650.7z"/>
<rect x="786.9" y="617.1" class="st2" width="33.3" height="33.3"/>
<path class="st3" d="M819.7,617.6v32.3h-32.3v-32.3H819.7 M820.7,616.6h-34.3v34.3h34.3V616.6z"/>
<rect x="855.5" y="583" class="st2" width="33.3" height="33.3"/>
<path class="st3" d="M888.2,583.5v32.3H856v-32.3H888.2 M889.2,582.5H855v34.3h34.3L889.2,582.5L889.2,582.5z"/>
<rect x="821.2" y="617.1" class="st2" width="33.3" height="33.3"/>
<path class="st3" d="M854,617.6v32.3h-32.3v-32.3H854 M855,616.6h-34.3v34.3H855V616.6z"/>
<rect x="889.7" y="548.6" class="st2" width="33.3" height="33.3"/>
<path class="st3" d="M922.5,549.1v32.3h-32.3v-32.3H922.5 M923.5,548.1h-34.3v34.3h34.3V548.1z"/>
<rect x="924" y="514.3" class="st2" width="33.3" height="33.3"/>
<path class="st3" d="M956.8,514.8v32.3h-32.3v-32.3H956.8 M957.8,513.8h-34.3v34.3h34.3V513.8z"/>
<rect x="172" y="206.3" class="st2" width="33.3" height="33.3"/>
<path class="st3" d="M204.8,206.8v32.3h-32.3v-32.3H204.8 M205.8,205.8h-34.3v34.3h34.3V205.8z"/>
<rect x="172" y="240.4" class="st2" width="33.3" height="33.3"/>
<path class="st3" d="M204.8,240.9v32.3h-32.3v-32.3L204.8,240.9 M205.8,239.9h-34.3v34.3h34.3V239.9z"/>
<rect x="172" y="274.5" class="st2" width="33.3" height="33.3"/>
<path class="st3" d="M204.8,275v32.3h-32.3V275H204.8 M205.8,274h-34.3v34.3h34.3V274z"/>
<rect x="172" y="308.7" class="st2" width="33.3" height="33.3"/>
<path class="st3" d="M204.8,309.2v32.3h-32.3v-32.3H204.8 M205.8,308.2h-34.3v34.3h34.3V308.2z"/>
<rect x="172" y="342.8" class="st2" width="33.3" height="33.3"/>
<path class="st3" d="M204.8,343.3v32.3h-32.3v-32.3H204.8 M205.8,342.3h-34.3v34.3h34.3V342.3z"/>
<rect x="103.4" y="377" class="st2" width="33.3" height="33.3"/>
<path class="st3" d="M136.2,377.5v32.3h-32.3v-32.3H136.2 M137.2,376.5h-34.3v34.3h34.3V376.5z"/>
<rect x="137.7" y="342.8" class="st2" width="33.3" height="33.3"/>
<path class="st3" d="M170.5,343.3v32.3h-32.3v-32.3H170.5 M171.5,342.3h-34.3v34.3h34.3V342.3z"/>
<rect x="69.1" y="411.3" class="st2" width="33.3" height="33.3"/>
<path class="st3" d="M101.9,411.8v32.3H69.6v-32.3H101.9 M102.9,410.8H68.6v34.3h34.3V410.8z"/>
<rect x="34.8" y="445.6" class="st2" width="33.3" height="33.3"/>
<path class="st3" d="M67.6,446.1v32.3H35.3v-32.3H67.6 M68.6,445.1H34.3v34.3h34.3V445.1z"/>
<rect x="0.5" y="480" class="st2" width="33.3" height="33.3"/>
<path class="st3" d="M33.3,480.5v32.3H1v-32.3H33.3 M34.3,479.5H0v34.3h34.3V479.5z"/>
<rect x="172" y="753.7" class="st2" width="33.3" height="33.3"/>
<path class="st3" d="M204.8,754.2v32.3h-32.3v-32.3H204.8 M205.8,753.2h-34.3v34.3h34.3V753.2z"/>
<rect x="172" y="719.5" class="st2" width="33.3" height="33.3"/>
<path class="st3" d="M204.8,720v32.3h-32.3V720H204.8 M205.8,719h-34.3v34.3h34.3V719z"/>
<rect x="172" y="685.4" class="st2" width="33.3" height="33.3"/>
<path class="st3" d="M204.8,685.9v32.3h-32.3v-32.3H204.8 M205.8,684.9h-34.3v34.3h34.3V684.9z"/>
<rect x="172" y="651.2" class="st2" width="33.3" height="33.3"/>
<path class="st3" d="M204.8,651.7V684h-32.3v-32.3H204.8 M205.8,650.7h-34.3V685h34.3V650.7z"/>
<rect x="172" y="617.1" class="st2" width="33.3" height="33.3"/>
<path class="st3" d="M204.8,617.6v32.3h-32.3v-32.3H204.8 M205.8,616.6h-34.3v34.3h34.3V616.6z"/>
<rect x="103.4" y="583" class="st2" width="33.3" height="33.3"/>
<path class="st3" d="M136.2,583.5v32.3h-32.3v-32.3H136.2 M137.2,582.5h-34.3v34.3h34.3V582.5z"/>
<rect x="137.7" y="617.1" class="st2" width="33.3" height="33.3"/>
<path class="st3" d="M170.5,617.6v32.3h-32.3v-32.3H170.5 M171.5,616.6h-34.3v34.3h34.3V616.6z"/>
<rect x="69.1" y="548.6" class="st2" width="33.3" height="33.3"/>
<path class="st3" d="M101.9,549.1v32.3H69.6v-32.3H101.9 M102.9,548.1H68.6v34.3h34.3V548.1z"/>
<rect x="34.8" y="514.3" class="st2" width="33.3" height="33.3"/>
<path class="st3" d="M67.6,514.8v32.3H35.3v-32.3H67.6 M68.6,513.8H34.3v34.3h34.3V513.8z"/>
<path class="st4" d="M319.1,707c-0.8-0.3-2.2,0.7-2.7,1c-2.2,1.3-4.1,2.9-6.3,4c-3.2,1.7-6.7,3-10.2,4.5c-5.8,2.5-11.8,5-18.5,6.6
	c-4.6,1.1-11,2-13.8-1.4c-2.9-3.7-0.1-9.7,1.4-13.2c1.4-3.3,3.3-6.5,5.1-9.5c2.3-4.3,4.6-8.5,7-12.8l3.9-9.3
	c1.2-3.1,2.9-10.4,0.9-13.8c-1.7-2.8-5.5-3.8-10.1-3.8c-1,0.1-1.9,0.2-2.9,0.2c-0.9,0.3-1.9,0.5-2.8,0.8c-0.9,0.1-1.8,0.3-2.7,0.4
	c-6,1.6-10.5,4.9-12.7,10.3c-0.1,0.7-0.3,1.5-0.4,2.2c-0.4,1.7-1.6,4.4-1,6.5c0.2,0.1,0.3,0.2,0.5,0.3c1.9-0.2,3.8-3.2,5.1-4.2
	c2.2-1.7,5.9-1.4,9.2-2.2c1.1-0.3,2.2-0.6,3.3-0.8c2.2-0.2,5.1-0.3,6.3,0.7c1.1,0.9,1,3.1,0.5,4.7l-4.8,9.9
	c-4.3,8.3-8.4,16.1-10.7,26.5c-1.6,7,1.5,15.8,5,18.6c3.8,3.1,11,3.8,17,2c10.9-3.4,21.3-9.1,27.7-17c2-2.5,4.1-4.6,5.8-7.4
	c0.6-0.9,1.6-1.9,1.6-3.3C319.4,707.3,319.4,707.1,319.1,707z"/>
<path class="st4" d="M282.8,490.2c-7.1,5.1-14.9,9.6-22,14.6c-2.6,1.8-5.1,3.5-7.6,5.4c-0.7,0.6-2.1,1.1-2.5,2c0,0.2,0,0.2,0.1,0.4
	c0.1,0.1,0.2,0.1,0.3,0.2c1.2-0.1,3.4-1.5,4.6-2c2.6-1.1,5.4-2.1,7.9-3s4.6-1.5,6.7-2.7c2.7-1.6,5.1-3.5,7.6-5.1
	c8.8-5.5,14.8-10.8,19-21c1.5-3.8,2.4-8.3,3.3-12.7c0.3-2,0.7-4,1-6c1-4.2,2.2-8.3,3.7-11.8c0.6-1.4,1-2.9,1.9-4
	c2.4-3.2,4.4,0.2,6.2,1.6c0.8,0.6,1.9,1.5,2.8,0.3c0.4-0.5,0.4-1.2,0.6-2c1.1-4.5-2-9.7-6-10.2c-6.6,2.7-8.1,11.9-10,19.5
	c-0.6,2.5-1.1,4.7-1.8,7c-0.3,1.1-0.2,2.1-0.9,2.8h-0.2c-1.4-0.8-1.9-5.6-2.4-7.4c-1.6-5.4-4.8-10.3-8.4-13.9
	c-0.6-0.6-3.3-3.1-4.6-2.8c-1.9,0.5-5.1,5.5-5.5,7.6c-0.4,1.5,0.4,2.9,1,3.6c0.8,1,2.4,2.5,3.8,2.8c0.9,0.2,1.4-0.8,2.1-1
	c1.1-0.3,2.3,0.7,2.9,1.1c2,1.4,2.8,3.7,3.8,6.1c1.7,4.1,3.6,8.5,4.8,12.9c0.6,2.1,0.1,4.6-0.6,6.1
	C292.1,483.8,287.2,487.1,282.8,490.2L282.8,490.2z"/>
<path class="st4" d="M248.7,566.8c2.1,1.2,4.6,2,7.3,2.6c0.7,0.1,1.3,0.1,2,0.2c3,0.6,7.1,0.6,10.2,0.1c1.4-0.1,2.9-0.3,4.3-0.4
	c5.8-1.4,11-3.6,15.9-5.7c2.3-1,8.8-4,9.8-5.7c0.6-1-0.1-3.9-0.1-5.2c-0.2-4.5-0.3-9-0.5-13.6c-0.3-1.6,0.3-5-0.7-5.5
	c-0.8-0.3-1.7,0.5-2.4,0.8c-2.3,0.8-4.5,1.8-6.7,2.6c-5.5,2.1-11,3.6-16.7,5.5c-2.4,0.8-7.4,2.6-10.7,2.1c-2.4-0.4-4.9-0.6-7-1.4
	c-11.6-4.5-17.6-14.5-20.5-27.7c-1-4.8-1.9-12.5-0.9-18.2c0.6-3.3,1.2-6.6,1.7-9.9c0.1-1,0.1-1.9,0.2-2.9c0.6-3.1,0.9-6.2,1.8-9.2
	c0.6-1.9,1.1-3.9,1.5-6c0.1-1.2,0.3-2.3,0.4-3.5c0.4-1.4,1.7-2.4,1.7-4.1c-0.2-0.2-0.4-0.3-0.5-0.5c-1.2,0.1-1.8,1.2-2.5,1.7
	c-1.6,1.2-3.5,2.7-5.7,3.2c-5,0.9-7.8-4.9-7-10.2c0.9-5.4,3.2-10.2,5.4-14.5c0.8-1.5,2.9-5.1,2.9-7c-0.2-0.3-0.4-0.5-0.8-0.6
	c-2.3,1.5-3.2,4.8-4.6,7.3c-1.2,2.1-2,4.4-3,6.7c-2,4.6-3.9,8.6-4.9,14.3c-1.2,6.8,2.7,16.2,9.9,13.7c1.6-0.6,2.9-1.8,4.1-2.8
	c0.4,0,0.5,0.2,0.7,0.5c0.1,0.5-0.4,1.2-0.5,1.7l-0.3,2.4c-0.2,0.8-0.5,1.6-0.7,2.4c-0.8,4.3-1.8,8.4-2.7,12.6
	c-0.6,2.6-0.6,5.5-1.1,7.9l-0.3,4.5c-0.3,2.5-0.6,5-0.9,7.6c0,1.7-0.1,3.4-0.1,5.1v5.6c0.3,2.3,0.6,4.6,0.9,6.8
	c0.1,1.1,0.2,2.1,0.2,3.2C231.1,548.4,237.1,560.1,248.7,566.8L248.7,566.8z"/>
<path class="st4" d="M667.1,304.9c1.7-0.1,0.6-2.1,1.7-2.7c0.2,0,0.3,0,0.5-0.1c3.2,2.8,5.4,6.6,6.8,11.1c0.6,2-0.3,6.3,1.1,7.4h0.2
	c1.6-0.8,1.2-10,0.5-12.1c-2.2-7.2-6.2-11.5-10.8-16.2c-1.1-1.1-4.4-4.2-6.1-4.2c-1.3,1.1-1.1,4.2-0.7,6.1
	C661,297.9,664.1,303.7,667.1,304.9L667.1,304.9z"/>
<path class="st4" d="M352.1,334.5c-3.5,1.7-5.3,5.1-7.3,8.3c-4.3,6.8-8.6,14.2-11.8,22.1c-2.5,6.1-1.2,10.8,4,12.9
	c3,1.2,6,0.4,8.2-0.7c4.9-2.5,7.7-8.1,9.2-13.9c0.4-1.7,0.7-4.9,0.2-6.9c-0.7-3.2-2.8-5.7-4.3-8.2c-0.5-0.9-1.3-1.9-1.5-3.1
	c-0.6-3,2.9-5.8,3.9-7.4C353.4,336.3,353.6,334.8,352.1,334.5L352.1,334.5z M350.2,361c0.5,0.7,1.7,2,1.4,3.3
	c-0.5,2-3.2,2.1-5.1,2.9c-1.3,0.5-2.7,1.3-4.2,1.6c-0.8,0.2-2.2,0.3-3,0.1c-2.3-0.6-3.3-3.1-2.6-6.2c0.8-3.4,2.7-7.4,5.4-8.9
	C345.1,353.7,348.8,358.9,350.2,361L350.2,361z"/>
<path class="st4" d="M704.4,308c1.2-0.1,2.4-1.1,3.5-1.5c3.6-1.5,8.2-2.7,9.6-6.5c-0.2-0.3-0.3-0.5-0.7-0.6c-1.6,1-3.4,2.1-5.2,2.9
	c-1.6,0.7-3.4,1.3-4.8,2.3c-1.1,0.8-1.8,1.8-2.7,2.9C704,307.7,704.1,307.8,704.4,308L704.4,308z"/>
<path class="st4" d="M740.5,311.7c0.4,2.1,0.2,4.4,0.5,6.2c0.1,2.9,0.2,5.9,0.2,8.8c0.1,0.2,0.2,0.3,0.4,0.4c0.1,0,0.2,0,0.3,0.1
	c1.9-1.8,1.5-8.6,1.5-12.4c-0.1-3.7-0.1-7.3-0.2-11c-0.2-2.4-0.5-4.8-0.7-7.1c0-0.8,0-1.5-0.1-2.3c-0.5-3.2-0.7-6.7-0.7-10.1
	c-0.2-0.3-0.3-0.5-0.8-0.5c-1.8,1.7-3.2,6.6-2.5,10.6C739.5,299.8,739.6,306.3,740.5,311.7z"/>
<path class="st4" d="M666.6,329c-2.4,0.4-5.4-0.4-7.1-1.1c-0.6-0.3-1-0.7-1.8-0.8c-0.1,0.1-0.2,0.2-0.3,0.4c0,0.1,0,0.2-0.1,0.4
	c2.4,2.8,9.8,7.1,15.5,4.9c4.5-1.8,7.7-5,10.1-9c1.2-2,2.2-4.2,2.9-6.5c0.3-0.9,0-2.5,0.8-2.9c1.1-0.3,0.9,2.4,1.1,3.3
	c0.8,3.3,1.7,6,4,7.9c1.9,1.5,6.9,2.7,10.1,1.4c1-0.4,1.5-1.7,2.6-1.8c0.6,0.6,1.1,1.5,1.8,1.9c2.5,1.4,4.8-1.1,6.4-1.8
	c1.2,0.1,1.5,1.5,2.7,1.9c3,0.9,4.9-1.8,6.6-2.6c0.9,0.2,1.2,0.9,1.8,1.4c1.3,1,4.1,2.2,6.4,1.3c2.9-1.2,3.8-3.9,4.3-7.4V312
	c0-2.2-0.1-4.4-0.1-6.6c-0.1-2.2-0.1-4.5-0.2-6.7c-0.7-4.2-0.5-8.9-0.5-13.4c-0.2-0.2-0.2-0.4-0.5-0.5c-0.1,0-0.2,0-0.4-0.1
	c-2.5,2.2-4.4,5.1-6,8.2c-0.3,0.6-1.8,2.7-0.8,3.3c0.9,0.5,2.3-2,3.4-2.1c1.4,1.2,0.9,4.4,1.3,6.7c0.2,1.4,0.6,2.8,0.8,4.3
	c0.1,1.4,0.1,2.7,0.2,4.1c0.3,2.2,0.4,4.4,0.7,6.5c0.4,2.4,0.3,4.8-1.1,5.8c-1.9,1.4-5,1.1-6.3-0.7c-0.6-0.8-0.7-2.4-1.6-2.9
	c-0.1,0-0.2,0-0.3-0.1c-1.1,1.1-1,2.1-1.8,3.2c-1.2,1.5-3.9,1-5-0.2c-0.6-0.7-0.3-2.4-1.2-2.8c-0.1,0-0.1,0-0.2-0.1
	c-1.6,1.4-1.8,4.5-4.7,4.5c-1,0-1.7-0.5-2.1-1.1c-0.7-0.9-0.4-2.6-1.2-3.4c-1.6,0.3-2,2.9-3.3,3.7c-1,0.6-3.1,1-4.8,0.7H697
	c-3.2-0.6-5.2-2.3-6.1-5.2s-0.5-6.4-1.1-9.8c-0.5-4.9-1-9.8-1.5-14.6c-0.2-2-0.4-3.9-0.5-5.9c-0.1-1.2,0.4-2.5-0.7-2.7
	c-1.2,1.3-2.8,4.6-3.2,6.6c0,0.8,0,1.6,0.1,2.4c0.3,2.7,0,5.2,0.4,7.6c0.5,3.4,0.1,7.2-0.4,10.3c0,1.1-0.1,2.2-0.1,3.3
	c-1.3,6.2-7,12-12.4,14.2C670.1,328.8,668.6,328.7,666.6,329L666.6,329z"/>
<path class="st4" d="M544.5,315.4c0.2-0.9,0.3-1.8,0.5-2.7c-0.2-0.2-0.3-0.3-0.7-0.4c-0.9,0.5-1,1.3-1.4,2.3
	c-1.6,4-0.9,8.3,1.9,10.5c3.1,2.4,9.6,3.2,15,2.3c1.6-0.1,3.3-0.2,4.9-0.4c6.4-1.2,13.9-3.5,16.9-8.1c0.6-1,0.8-2.8,1.1-3.9
	c0.2-0.2,0.2-0.2,0.7-0.2c0.8,1.1,0.1,3,0.4,4.5c0.8,3.8,3.3,9.9,8.8,7.6c1.4-0.6,2.1-1.7,3.3-2.4c0.8,0.1,2.5,1.9,3.6,2.3
	c0.8,0.3,1.5,0.2,2.6,0.4c4.3,0.7,6-2.2,7.6-4.5c0.2,0,0.3,0,0.5-0.1c1.7,1.6,2.7,3.6,5.2,4.4c4.3,1.2,8.4-1.5,11.1-2.6
	c2.5-1,5.6-1.4,8.5-1.9c1.3-0.2,2.5-0.1,3.6-0.5c0.9-0.3,1.8-0.7,2.3-1.4c0.4-0.5,0.5-0.9,1-1.2c0.2,0.1,0.4,0.2,0.5,0.4
	c0.1,1.5,0.3,3,0.4,4.5c0.7,4.2,0.8,8.9,1.4,13c0.1,1.1,0.1,2.1,0.2,3.2c0,0.7,0,1.5,0.1,2.2c0.2,1.2,0.4,2.4,0.7,3.6
	c0.1,0.8-0.1,1.6,0.2,2.1c0.2,0.4,0.6,0.6,1.1,0.7c0.3-0.2,0.6-0.3,0.7-0.7c-0.1-2.9-0.2-5.8-0.4-8.6c-0.3-4.1-0.5-8.3-0.8-12.4
	c-0.1-1.6-0.1-3.3-0.2-4.9s-0.3-3.3-0.4-4.9c0-0.6,0-1.2,0.1-1.7c-0.2-1.1-0.4-2.8-0.1-4c0.9-3.6,5.6-3.6,9-4.7
	c1.5-0.5,2.7-1.2,3.8-2c0.8-0.7,2.5-2,2.1-3.6c-0.6-2.2-6.1-3.7-8.7-4.2h-2.9c-0.8,0.3-2.8,2.5-2.4,4c0.3,1,1.8,1.5,2.4,2.4
	c-0.2,1.4-2.1,2-2.8,3c-1.3,1.7-2.6,3.7-3.2,6c-0.3,1.2-0.1,4.9-1.1,5.4c-1.2,0.1-2.3,0.2-3.5,0.2c-5,0.9-10.1,0.5-13.2-1.9
	c-0.7-0.6-2.1-1.8-1.8-3.2c0.7-3.7,8.2-3.2,11.3-2c0.8,0.3,1.8,1.4,3,1.1c0.3-0.1,0.4-0.3,0.5-0.5c0.3-0.9-0.8-2.3-1.1-2.8
	c-1.2-1.6-3.8-4.4-7.1-3.5c-3.5,0.9-7.2,4.2-8.9,7.1c-0.6,1-1.5,2.4-1.2,4.2c0.2,1,0.6,1.9,1.1,2.7c0.5,0.7,1.3,0.9,1.5,1.9
	c-0.6,0.7-1.2,0.5-2.4,0.7c-2.8,0.5-4.9-0.2-6.1-1.9c-2.7-3.9-2.4-10.3-3.4-16l-1.5-10.2c-0.2-2.3-0.4-4.6-0.7-7
	c-0.2-1.1,0.1-2-0.7-2.4c-0.1,0-0.2,0-0.4-0.1c-1.7,1.6-1.9,6.2-1.3,9.5c0.3,2.5,0.5,5,0.8,7.4v1.8c0.8,4.9,0.9,10.3,1.7,14.9
	c0.5,2.9-4.2,4.9-7.1,3.8c-1.1-0.4-2.2-1.1-2.6-2.2c-0.4-0.9,0-2.1-0.9-2.6l-0.1-0.1c-1.5,0.1-1.7,2.2-2.3,3.3
	c-0.7,1.1-3,2.2-5.1,1.8c-3.3-0.7-3-4.8-3.6-8.3c-0.6-4.4-1.1-8.8-1.7-13.3c-0.4-2.5-0.2-5.2-0.6-7.6c-0.2-1.3-0.4-7.7-1-8
	c-0.1,0-0.3,0-0.4-0.1c-2,1.9-2,5-2,9v13.6c0,1.8,0.3,5.3-0.2,6.6c-1.4,3.4-8.2,6.1-12.2,7c-0.7,0.1-1.4,0.1-2.1,0.2
	c-1.5,0.3-2.9,0.6-4.4,0.9c-1,0.1-2.1,0.2-3.1,0.2h-3.6c-0.6,0-1.2,0.1-1.8,0.1c-3-0.5-5.3-0.7-7.2-2.2
	C545.4,319.6,544.2,317.3,544.5,315.4L544.5,315.4z"/>
<path class="st4" d="M601.7,338.3c-0.6-0.5-1-1.1-2.1-1.1c-1,0.7-1.4,2-2.4,2.6c-1.4-0.1-1.9-1.7-3-2.1c-1.3-0.6-3.3,2.5-3.5,3.7
	c-0.1,1.2,2.7,3.7,3.9,3.3c1.1-0.3,1.4-1.8,2.3-2.4c1.4,0.1,2.4,2.9,4.2,1.9c0.7-0.4,2.4-2.8,2-4.2
	C602.9,339.2,602.2,338.7,601.7,338.3L601.7,338.3z"/>
<path class="st4" d="M407.2,317.4c1.1,0.4,3.3-0.9,4.2-1.3c3.9-1.4,7.2-3.4,10.9-4.9c1.9-0.8,3.9-1.3,5.8-2.1c2.1-1,4-2.4,5.9-3.6
	c6.9-4.3,13.3-9.2,19.1-14.6c2.4-2.2,4.6-4.7,6.6-7.3c0.9-1,1.8-1.9,2.7-2.9c1.2-1.5,2.2-3.7,4-4.6c2.9,0.1,4,3.2,6.4,3.8
	c1.4,0.3,1.9-0.9,2.4-1.6c1-1.5,4-5.9,2.4-8.6c-1.3-2.4-5.6-3-6.4-5.5c-0.4-1.5,0.7-4.8,1-6.4c0.4-2.2,0.5-4.3,0.5-6.9
	c0-6-0.9-11.1-7-11.1c-1.1,0.5-2.2,0.5-3.3,1c-5.3,2.3-9.1,7-11.3,12.5c-0.9,2.2-2,7.1-0.8,10.2s3.1,5.1,5.7,6.7
	c1.4,0.8,4.3,1.4,4.9,3c0.5,1.4-1,2.9-1.5,3.6c-4,5.2-9.6,9.4-14.9,13.2c-7.9,5.7-16.2,11.1-23.9,16.9c-3.3,2.5-6.6,4.9-9.8,7.3
	c-0.9,0.7-3.3,1.8-3.7,2.7C406.7,317.1,406.9,317.3,407.2,317.4L407.2,317.4z M456,254.2c0.6-2.6,4.4-3,6.7-4c3.3-0.1,3.3,4.1,3.8,7
	c0.3,1.7-0.1,4.2-1.4,4.4c-0.9,0.2-1.8-1-2.6-1.3C460.8,259.5,455.3,256.9,456,254.2L456,254.2z"/>
<path class="st4" d="M534.9,344.5c0.9-0.5,1-1.9,1.9-2.3c1.3-0.3,2.7,3.1,4.5,1.8c0.6-0.4,0.9-1.1,1.2-1.7c1.3-2.1,0.5-3-1.1-4.2
	c-0.6-0.4-0.9-0.9-1.8-0.9c-1.1,0.7-1.6,1.9-2.6,2.7c-1.4-0.2-1.8-1.9-3.2-2.3c-1.2-0.3-3.2,2.9-3,4S533.6,345.2,534.9,344.5
	L534.9,344.5z"/>
<path class="st4" d="M369.4,303.8c2,2,4.3,3.7,6.5,5.5c2,1.8,4,3.7,6,5.5c2.4,1.9,4.6,4,6.2,6.7c0.9,1.5,1.7,3.5,2.1,5.4
	c0.1,0.8,0.1,1.6,0.2,2.4c0.7,4.3-1.5,10.2-2.6,13c-1.5,3.8-3.4,7.1-5,10.8c-1.8,4.1-3.2,8.1-4.8,12.4c-1.1,2.9-1.9,5.9-2.8,9.2
	c-0.3,1.2-0.9,2.9,0.2,3.6c1.6,0,3.5-4.6,4.2-5.9c3.3-6.5,6.2-13.5,9.5-20c1.6-3.1,3.7-6,5.2-9.3c3-7,6-14.3,7.9-22.3
	c0.1-0.9,0.2-1.8,0.2-2.7c1.2-5.7,1.9-13.6-0.3-18.8c-2.4-5.5-7-8.4-11.5-11.8c-3.4-2.9-6.8-5.8-10.2-8.6c-1.7-1.3-3.1-3.5-3.8-5.8
	c-0.6-2-0.6-4.9-2.3-5.7c-0.1,0-0.2,0-0.4-0.1c-0.8,0.7-1.1,1.6-1.6,2.5c-1.4,2.3-2.8,4.7-4.2,7.1c-1.6,2.7-2.9,5.5-4.1,8.6
	c-0.4,1.5-0.9,3-1.3,4.5C361.4,296.3,366.5,300.9,369.4,303.8L369.4,303.8z"/>
<path class="st4" d="M261.1,422.2c3.4,0.2,6.8,0.3,10.2,0.5h3c4.5,0,9,0,13.5,0.1c1.7,0,3.3,0,5-0.1c2-0.3,4.1,0.1,5.9-0.2
	c2.3-0.1,4.6-0.2,6.9-0.2c4.4-0.7,8.7-0.7,13-1.4h4.5c1.2-0.2,2.8-0.2,3.9,0c2.6,0.4,5.7,0,8.2-0.1c2.5,0,5.9,0.2,7.9-0.7
	c3-1.2,4.9-3.7,7.3-5.6c2.9-2,5.8-4.1,8.6-6.1c4.6-2.9,8.9-6,13.3-9.1c1.1-0.8,4-2.6,4.1-4c-1.4-1.5-5.1-1-7.7-1.4
	c-3.1-0.4-8.6-0.2-11.6,0.3c-2.8,0.1-5.5,0.2-8.3,0.2c-2.5,0.1-5,0.3-7.4,0.4l-12,1.5c-1.4,0.1-2.7,0.1-4.1,0.2
	c-4,0.1-7.9,0.1-11.9,0.2c-3.8,0.2-7.7,0.4-11.5,0.6h-3.2c-1.7,0.3-4.1,0.3-6,0.2h-3.2c-1.6,0-3.2,0-4.8,0.1c-0.9,0-1.7,0-2.6-0.1
	c-2,0.3-4.5,0.1-6.4-0.2c-1.7,0-3.5-0.1-5.2-0.1c-4.4-0.7-9.9-0.4-13.8-1.4c-2.2-0.5-4.5-0.7-5.5-2.4c-1.6-2.7,3.3-6.4,4.7-7.5
	c3-2.3,6.4-4.2,9.7-6.3c2.5-1.6,5-3.4,7.8-4.6c2-0.9,3.9-1.5,6-2.4c17.5-7.4,30-17.2,39.2-32.9c2-3.3,3.1-7.3,4.6-11
	c2.4-5.7,6.1-10.4,9.4-15.2c2.5-3.6,5.2-7.8,10.1-8.9c2.1-0.5,4,1.4,4.8,2.5c3,3.9,3.7,9.6,4.8,15.5c0.3,1.5,0,6.9,0.9,7.3
	c0.1,0,0.1,0,0.2,0.1c3.4-2.9,3.4-6.6,4.3-11.8c0.6-3.2,1-6.5,1-10.2c0-1.2-0.1-2.5-0.1-3.7c-1.1-5.2-3-10-4.9-14.3
	c-1.7-3.8-3.5-8.1-9-8.1c-1.4,0.6-2.7,1-3.9,1.8c-4.9,3.3-7.3,9.2-10.3,14.4c-4.9,8.3-8.7,17.8-14.3,25.6
	c-7.2,10-17.7,16.7-28.5,23.1c-1.8,0.9-3.6,1.9-5.4,2.8c-6.7,3.9-13.6,7.5-19.6,12.1c-6.1,4.7-10.5,10.6-14.3,17.7
	c-3.2,5.9-5.2,12.2-6.7,20c-0.1,1.3-0.1,2.6-0.2,3.9c0,5,0.8,8.3,2.9,11.1C247.9,419,254.1,421,261.1,422.2L261.1,422.2z"/>
<path class="st4" d="M527.6,326.3c1,0.6,2.2,0.8,3.9,0.8c4.7,0,7-2.6,7.9-6.3c0.7-3,0.2-7.1-1.6-8.4c-1,0.1-1.1,1-1.5,1.7
	s-1.3,1.7-1.1,2.8c0.3,1.7,2.8,3.6,0.1,4.8c-2.6,1.1-6.1,0.4-7.2-1.4c-1.4-2.2-0.8-6.4-0.7-9.5c0.1-6.7,0.2-13.7-0.7-19.6
	c-0.2-2.3-0.3-4.6-0.5-6.8c-0.1-0.3-0.3-0.5-0.7-0.5c-2,1.6-2.3,5.7-1.7,9.2c0.2,1.1,0.4,2.2,0.5,3.3c0,1.3,0.1,2.5,0.1,3.8
	c0,2,0,3.9,0.1,5.9c0,1.6,0,3.2,0.1,4.8c0,1.6,0.2,3.4-0.1,4.9C523.7,320.1,525.2,324.9,527.6,326.3L527.6,326.3z"/>
<path class="st4" d="M283.9,327.5c0.7,0.9,1.5,1.8,2.5,2.4c6.3,4,11.9-2.7,14.3-6.4c0.8-1.2,2.4-3.4,2.4-5.2
	c-0.2-0.2-0.4-0.3-0.5-0.5c-1.1,0.1-1.6,0.9-2.4,1.4c-1.7,1.1-3.3,2.2-5.7,2.6c-1,0.2-1.9-0.2-2.6-0.5c-3.4-1.4-5-5.2-3.6-9.8
	c1.4-4.7,3.1-8.7,5.3-12.6c0.7-1.3,1.3-2.7,2-4c1.7-2.7,4.4-5.6,5.4-8.7l-0.2-0.2c-0.1-0.2-0.2-0.2-0.5-0.3
	c-7.3,5.7-13.5,17.2-16.7,27.1C282.3,317.4,281.2,323.6,283.9,327.5L283.9,327.5z"/>
<path class="st4" d="M561.3,307.6c0.5,0.5,1.4,1.5,2.6,1.2c1.5-0.3,2.5-1.7,2.1-3.8c-0.1-0.4-0.1-1.2,0.1-1.5c0.5-0.9,2.2-0.1,2.7-1
	c0.3-0.5,0.1-1.5-0.2-1.9c-0.6-0.9-2.1-0.7-3-0.2c-1.5,0.7-1.7,2.4-1.6,4.6c-0.2,0.2-0.4,0.4-0.7,0.5c-2.8-1.1-0.1-5.4-0.1-7.6
	c-0.1-0.1-0.2-0.2-0.4-0.3c-0.1,0-0.2,0-0.4-0.1c-0.6,0.8-2.7,6.5-2.4,8C560.2,306.3,560.7,307,561.3,307.6L561.3,307.6z"/>
<path class="st4" d="M250.9,267c1,0.2,1.5-0.8,2.2-1c1.3-0.3,2.8,1.1,3.5,1.6c2.1,1.6,2.8,4.8,3.9,7.4c1.4,3.5,3.1,7.1,4,10.9
	c0.3,1.3-0.1,2.9,0.2,4.2c0.2,1,0.7,1.9,0.8,3.2c0.1,0.1,0.2,0.2,0.4,0.3c0.9-0.2,0.7-1.2,1-2c0.6-1.9,1.1-3.9,1.7-5.9
	c1-3.4,1.3-7.1,2.1-10.8c1-4.9,2.5-9.6,4.3-13.8c0.3-0.7,0.5-1.3,0.8-2c0.4-0.5,0.7-1,1.1-1.4c3.3-3.3,5.3,3.5,7.8,2.9
	c1.4-0.6,2.1-3.7,1.6-5.8c-0.6-2.9-3.1-7-6.5-6.9c-6.8,4.1-7.3,11.6-9.8,19.9c-0.1,0.7-0.2,1.4-0.4,2.1c-0.4,1.4-0.8,2.9-1.2,4.3
	c-0.3,1.2-0.2,2.4-1.1,3c-1.2-0.2-2.1-5.8-2.5-7.2c-1.8-5.7-4.7-10.3-8.4-14c-1.1-1.1-3.1-3.5-5.4-2.5c-1.5,0.6-4.3,5.3-4.7,7.2
	c-0.3,1.6,0.4,2.9,1,3.6C247.8,265.4,249.6,266.7,250.9,267L250.9,267z"/>
<path class="st4" d="M382.5,654.6c0.8-1.3,2.7-3.8,2.7-5.7c-0.3-0.3-0.4-0.5-0.9-0.6c-2.3,1.6-3.5,4.7-5,7.1
	c-1.9,3.1-3.3,6.5-5.1,9.7c-1.4,2.4-3,5.3-3.6,8.3c-1,4.8-1.3,10.3,1.2,13.8c2.1,3,5.8,3.7,9.5,1.8c3.4-1.8,8.4-8,9.5-12
	c-0.8-1.7-2.7,0.5-3.6,1.1c-3.1,2-7.4,4.1-10.4,0.2c-1.6-2.2-2-6-1-9.2C377.5,663.5,379.9,659.2,382.5,654.6L382.5,654.6z"/>
<path class="st4" d="M542.2,507.3c1-2.4,1.7-5.2,2.7-7.5c0.3-0.7,0.5-1.6-0.4-1.8c-2.4,2-4.5,6.7-6.2,9.6c-6,10.2-15,31.5-5.3,43.8
	c2.4,3.1,7.4,5.8,12.2,3c4.6-2.8,6.8-6.8,9-12c0.7-1.7,1.8-4.5,1.8-6.7c-0.2-0.1-0.3-0.3-0.5-0.4c-0.7-0.3-3.8,3.7-4.5,4.3
	c-1.7,1.7-5.7,5-9.7,3.8c-2.5-0.7-4.6-3.3-5.5-5.5c-1.2-2.9-1.4-7.8-0.5-11.2C537.2,519.8,539.7,513.6,542.2,507.3L542.2,507.3z"/>
<path class="st4" d="M696.2,459.2c0.6-1.3,2.9-4.8,2.9-6.1c-0.1-0.1-0.2-0.2-0.4-0.3c-0.1,0-0.2,0-0.3-0.1
	c-2.8,3.1-5.5,6.5-7.7,10.1l-3,6c-2.2,3.7-4.4,8-5.4,12.7c-1.5,7.6-0.3,16.6,5.8,18.2c0.9,0,1.9,0.1,2.8,0.1c6.1,0,8.5-3.7,11-7.3
	c0.6-0.8,2.7-3.4,2.3-4.9c-0.6-2.3-3.6,0-4.6,0.6c-4.6,2.7-9.4,3.3-11.3-2.6c-0.7-2.1-0.6-7.2,0-9.3
	C690.3,469.9,693.7,464.9,696.2,459.2L696.2,459.2z"/>
<path class="st4" d="M736.9,481.2c-0.8,3.2-2.7,6.1-4,8.9c-1.6,3.6-2.9,7.3-3.8,11.7c-1.1,4.9-0.2,10.8,2,13.6
	c0.8,1.1,2,2.2,3.2,2.9c6.6,3.8,13.7-3.6,15.8-7.7c0.5-0.9,2.7-5.1,2.4-6.2c-0.1-0.3-0.3-0.4-0.6-0.6c-1,0.4-1.6,1.2-2.4,1.8
	c-1.6,1.2-3.4,2.7-5.5,3.3c-1.8,0.5-3.6,0-4.8-0.7c-3.3-1.9-4.6-4.3-3.8-9.2c0.1-1,0.1-1.9,0.2-2.9c1.4-7.4,5.1-13.5,8.2-19.5
	c1.2-2.4,3.2-6.1,3.7-9c0.4-2.2,0.6-5.9-0.2-7.9c-1.4-3.7-4.8-5.9-5.7-10.2c-0.9-4.1,1.7-9.3,2.9-12.2c0.3-0.6,0.5-1.2,0.8-1.8
	c-0.1-0.2-0.1-0.3-0.4-0.4c-0.1,0-0.2,0-0.3-0.1c-4.9,5.3-8.6,11.5-11.3,19c-0.8,2.4-2.3,5.5-1.5,9c1.1,5.2,6.9,8.2,5.7,15
	C737.4,479,737.2,480.1,736.9,481.2L736.9,481.2z"/>
<path class="st4" d="M498.8,510.2c1.4,0.8,3.5,2.1,6,1.7c3-0.5,4.1-2.2,5.8-3.9c3.1-3,6.3-6.1,8.9-9.6c0.8-1.1,3.1-3.9,2.4-5.9
	c-0.5-1.5-2.1-2.2-3.3-3c-2.4-1.7-5.2-3.1-7.3-5.1c-1.9-1.9-3.5-4.1-5.2-6.2c-0.8-0.9-1.6-2.2-3.3-2.2c-2,1.6-3.8,3.6-5.4,5.6
	l-2.1,2.1c-3,3.7-7.2,8-8.5,13.3c-0.5,2.1,1.4,4.2,2.2,5.4C491.6,505.9,495,508,498.8,510.2L498.8,510.2z"/>
<path class="st4" d="M383,506.7c1.3,0.6,2.9,1.6,5.1,1.1c1.9-0.4,3.4-1.9,4.8-2.9c3.4-2.7,6.4-6.1,8.9-9.7c0.7-0.9,3.3-3.7,2.8-5.2
	c-0.7-2.3-5.7-4.6-7.7-6c-0.8-0.7-1.5-1.4-2.3-2.1c-1.8-1.9-3.5-3.9-5.1-5.9c-0.6-0.8-1.3-2-2.6-2c-4.8,2.6-9.2,9.2-12.3,13.8
	c-1.2,1.7-2.9,3.4-3.5,5.7c-0.5,2.3,1,4.1,1.9,5.4C375.4,502.2,379,505,383,506.7L383,506.7z"/>
<path class="st4" d="M624.7,411.4c0.1-0.8-0.8-1.5-1.1-1.9c-1.2-1.6-2.6-2.9-3.8-4.4c-1.4-1.8-3.3-3.5-5.1-4.9l-2-2
	c-2.7-2.2-5.2-4.7-7.6-7.3c-1.3-1.4-3.3-4.4-5.8-4.4c-2.6,1.7-3.6,6.8-4.3,10.5l-0.3,4.5c-0.2,1.4-0.4,5.8,0,6.8
	c0.4,0.9,1.5,1.2,2.2,1.8c1,0.7,1.8,1.9,2.3,3c1,2.4,1.5,6,3.6,7.4c1.7,1.1,8.2-0.6,10.1-1c1.1-0.2,2.8-0.3,3.3-1
	c0.8-1.2-1.2-3.6-0.7-4.9C616.5,411.4,624.4,413.4,624.7,411.4L624.7,411.4z"/>
<path class="st4" d="M757.8,524.1c-1-0.1-2-0.2-3-0.2c-1.2,0-2.5-0.1-3.7-0.1c-1.6-0.1-3.3-0.1-4.9-0.2c-1.7-0.3-3-0.7-4.5-1
	s-3.3,0.2-4.8-0.1l-7.2-0.9c-4.4-0.8-8.7-1.1-13-1.9c-1.6-0.1-3.1-0.3-4.7-0.4c-6-1.3-13-2.2-18.9-3.5c-1.1-0.1-2.1-0.2-3.2-0.3
	c-12-2.5-24.7-4.8-36.4-7.7c-0.9-0.1-1.8-0.2-2.7-0.3c-4.6-1.2-10-2.4-14.6-3.6c-1.7-0.5-4.9-0.3-5.7-1.7c0.2-1.1,1.5-1.9,2-2.7
	c1.5-2.1,2.6-4.4,3.9-6.7c2.1-3.7,3.4-8.9,4.3-13.6c0.4-2.3,0.2-5.4,0.2-8c0-2.2,0.1-4.4-0.2-6.4c0-1.1-0.1-2.1-0.1-3.2
	c-0.5-2.6-1.3-8.8-3.5-9.5c-0.9,0.2-1.7,0.4-2.6,0.5c-2.7,0.7-5.7,0.9-8.6,1.6c-1.1,0.3-3.4,0.3-4,1.1c0.1,1.5,2,3.6,2.7,4.6
	c2.3,3.3,4.4,6.5,6.5,10c0.7,1.1,3,4.4,1.8,6c-1.9,2.5-8.6,5.2-11.9,6.6c-4.9,2.1-10.1,4.3-15.1,6.3c-2.5,1-5.1,1.7-7.5,2.7
	c-0.6,0.1-1.2,0.3-1.8,0.4c-2.3,0.9-5,1.7-7.4,2.7c-0.7,0.3-1.3,0.6-2,1c-2,0.6-3.8,1.2-5.7,1.8c-3.3,0.9-6.5,1.1-8.9,2.9
	c-3,2.3-5.8,9.4-7.4,13.4c-0.3,0.9-0.7,4.5-0.4,5.2c0.8,1.8,4.1,2.1,6.8,1.7c5.6-0.9,11.8-0.1,16.7,0.8c5.8,1.2,11.4,2.5,17,3.8
	c1.7,0.2,3.5,0.4,5.2,0.7c2.4,0.5,5,1,7.3,1.5c1.3,0.1,2.5,0.3,3.8,0.4c6.7,1.4,13.5,3.1,20.4,4.5c3.2,0.6,6,0.8,9.2,1.5
	c1.9,0.4,3.8,1.1,5.5,1.5c1.6,0.4,4.8,0.9,5.4,2.1c0,0.1,0,0.3,0.1,0.4c-0.6,0.7-1.5,0.9-2.4,1.4c-2.2,1.1-4.6,2-7,3
	c-6.1,2.6-13.2,4.8-19.9,6.8c-3.5,1-6.7,1.4-10.2,2.5c-5,1.5-10.2,2.6-15.5,3.8c-1.8,0.4-3.7,1.1-5.4,1.5c-2.2,0.4-4.4,0.8-6.5,1.3
	c-0.8,0.3-1.6,0.6-2.4,0.8c-1.1,0.2-2.3,0.3-3.4,0.5c-5.2,1.3-11.2,2.4-16.5,3.6c-1.1,0.1-2.3,0.2-3.4,0.2c-2.3,0.4-4.6,0.6-7,1.1
	c-3,0.6-6.8,0.4-10.2,1l-5.1,0.3c-1.6,0.3-3.5,0.2-5.4,0.2c-3.1,0-6.1,0-8.9-0.4c-2.3-0.2-4.6-0.4-7-0.5c-1.8-0.4-4.1-1-5.9-1.5
	c-1.2-0.2-2.3-0.4-3.5-0.5c-10.7-3.4-19.7-8-27.4-14.3c-9.4-7.5-16.7-18.6-23.2-29c-1.1-1.9-2.2-3.8-3.3-5.8
	c-2.7-4.2-5.6-8.3-8.6-12.1c-3.9-4.8-7.8-7.7-15.3-9c-1.1-0.2-2.8-0.3-4-0.1c-13,2.3-20.8,10.8-27.5,19.3c-2.9,3.7-5.8,7.5-8.6,11.4
	c-2.5,3.5-4.6,7.2-6.9,10.8c-6.6,10.5-13.2,21.4-20.7,31.2c-5.7,7.4-12.3,14.1-21.4,18.1c-3.7,1.6-10,2.9-15,1.4
	c-21.1-6.4-23.8-27.6-23.8-54.8c0-6.4,0.8-11.5,1.8-17c0.5-3.9,1-7.9,1.5-11.8c0.4-2.2,0.4-5,0.1-7.2c-0.2-1,0.2-2.1-0.7-2.5
	c-0.1,0-0.2,0-0.3-0.1c-2.4,2.2-4.1,7.8-5.3,11.4c-1.3,3.8-2.4,8.1-3.2,12.2c-0.1,0.8-0.1,1.5-0.2,2.3c-1.1,5-1.9,10.3-1.9,16.7
	c0,3.7,0,7.3,0.1,11c0.1,2.3,0.1,4.6,0.2,7c0.3,2.3,0.7,4.6,1,6.9c1.4,6.6,3.3,12.5,5.5,18.2c5.4,13.6,11.7,24.1,26.1,28.6
	c5,1.6,13.4,4.9,20.4,3.2c14.1-3.5,21.5-14.7,28.3-25.6c8.6-13.7,16.4-28.4,25.7-41.5c6.5-9.2,13.1-18.9,26.2-21.4
	c4.4-0.9,7.3,1.3,9.4,3c5.6,4.5,8.7,11.5,12.5,17.9c11.3,18.9,23.2,39.4,45.9,46.8c17.3,5.7,44.6,4.1,62.9,0.3
	c2-0.4,3.6-0.8,5.4-1.1c0.8-0.1,1.7-0.2,2.5-0.2c4.6-1.1,9.8-2.4,14.3-3.6c3.7-0.9,6.8-1.4,10.4-2.5c18.3-5.4,35.9-11.6,53.8-17.3
	c0.8-0.1,1.5-0.3,2.3-0.4c1.3-0.5,2.6-1,3.9-1.4c1-0.2,1.9-0.4,2.9-0.5c4-1.2,8.6-2.4,12.7-3.5c0.7-0.1,1.5-0.2,2.2-0.4
	c2.2-0.6,4.6-1.3,6.8-1.8c0.8-0.1,1.5-0.2,2.3-0.2c9.5-2.4,19.9-4.2,29.8-6.3c2.2-0.2,4.4-0.4,6.5-0.6h9.6c4.1,0.1,8.1,0.2,12.2,0.2
	c1.9,0.3,7.8,0.3,9-0.4c1.1-0.7,1.7-1.8,2.4-2.9c1.7-2.6,3.2-5.7,4.4-8.7c0.5-1.5,1-3.1,1.5-4.6c0.4-1.1,2.3-4.3,2.1-5.6
	C763.8,523.8,760.5,524.6,757.8,524.1L757.8,524.1z"/>
<path class="st4" d="M487.9,317.1c1-1.9,1.9-3.9,2.9-5.8c0.3-0.6,1-1.6,0.2-2c-0.1,0-0.3,0-0.4-0.1c-5.4,4.4-8.6,11.6-11.9,18.1
	c-1.5,3-3.8,7-4.6,10.3c-1.5,5.5-1.7,12.1,1,16.4c2.3,3.7,7,4.9,11.9,2.9c3.6-1.5,7.2-7.5,8.8-11.1c0.6-1.4,1.9-2.8,2-4.4
	c-0.2-0.2-0.4-0.3-0.6-0.5c-1.5,0.7-2.6,2.5-3.9,3.6c-4,3.1-11.8,4.7-13.5-1.8c-0.8-3.2-0.2-7.4,0.6-9.9
	C482.1,326.8,485.3,322.3,487.9,317.1z"/>
<path class="st4" d="M766.5,392.9c-0.5-1.9-0.7-3.5-1.2-5.3c-1.1-3.6-2.7-7.2-4.5-10.2c-7.3-12.3-19.3-19.8-34.3-24.3
	c-0.9-0.2-1.8-0.3-2.7-0.5c-2.3-0.6-4.9-1.3-7.4-1.8c-2.9-0.5-5.4-0.5-8.3-1c-5.3-0.9-11.7-1-17.8-0.9c-3.4,0.1-6.7,0.1-10.1,0.2
	c-7.9,1.3-16.5,1-24.2,2.4c-1.1,0.1-2.1,0.2-3.2,0.2c-5.7,1.1-12.4,1.7-18.1,2.7c-2.4,0.2-4.9,0.5-7.3,0.7c-2.5,0.4-5.4,0.9-7.7,1.4
	c-2.2,0.2-4.5,0.4-6.7,0.5c-2.9,0.5-5.9,1-8.8,1.5c-1.5,0.1-3,0.3-4.5,0.4c-11.9,2.4-24.9,3.3-36.8,5.6l-4.5,0.3
	c-2.7,0.5-5.4,1-8.1,1.4c-1.5,0.1-3,0.2-4.5,0.4c-4.2,0.7-8.7,1-12.8,1.8c-2.2,0.1-4.4,0.3-6.7,0.4c-4.9,0.8-10.1,0.9-15.2,1.7
	c-3.6,0.6-7.3,0.2-10.7,0.7l-11.1,0.6c-2.3,0.4-4.9,0.3-7.5,0.7c-1.8,0-3.7,0.1-5.5,0.1c-2.2,0-4.5,0-6.7,0.1
	c-2.7,0.1-5.4,0.1-8.1,0.2c-2.2,0-4.7,0.2-6.7-0.1c-3.3-0.1-6.5-0.2-9.8-0.2c-8.2-1.3-15.9-2.5-21.1-6.7c-2.9-2.3-4.2-6.8-2.5-11.2
	c1.9-4.8,4.5-7.4,7.4-11c1.3-1.6,2.8-3.3,4.4-4.6c6.4-5.2,12.4-11,18.8-16.3c1.2-1.2,2.5-2.5,3.8-3.7c2.6-2.3,5.2-4.7,7.8-7
	c6.1-4.8,12.6-9.2,18.9-13.8c7.5-5.5,14-12.1,23.4-15.8c11.1-4.4,29.7-0.9,38.5-7.7c4.5-3.5,6.4-9.4,2.8-15.2
	c-3.1-5.2-9.6-9.2-18.1-9.1c-1.1,0.1-2.2,0.3-3.3,0.4c-3,0.9-5.7,1.7-8.3,2.9c-13,5.8-23.9,14.9-34.9,22.7
	C458.3,293.9,436,313,419.3,338c-3.9,5.9-7.7,14-9.8,21.5c-0.6,2-0.7,3.7-1.1,6c-0.8,4.5-1,10.5,0.3,14.9c2,6.6,6.7,11.5,12.7,14.1
	c8.3,3.6,18.8,4.6,30.9,4.6c4.5,0,9.3,0.4,13.6-0.3c2.4-0.1,4.9-0.1,7.3-0.2c1.9-0.3,4,0,6-0.3c5.1-0.8,10.7-0.7,15.5-1.6
	c1.4-0.1,2.8-0.1,4.2-0.2c2-0.3,4.1-0.3,5.8-0.7c2.8-0.6,5.5-0.7,8.1-1.1c1.7-0.1,3.3-0.2,5-0.3c8.8-1.5,18.5-2.1,27.2-3.6
	c2.3-0.2,4.6-0.4,7-0.6c3.2-0.6,7-1.1,10.2-1.6c1.9-0.1,3.8-0.3,5.8-0.4c2.8-0.6,5.9-1,8.8-1.5c2.3-0.4,4.2-0.1,6.4-0.5
	c12.7-2.3,26.5-3.2,39.1-5.5c2.1-0.1,4.1-0.3,6.2-0.4c7.8-1.6,17-2.2,24.8-3.6c1.9-0.1,3.8-0.2,5.8-0.4c2.5-0.4,5.3-0.8,7.9-1.3
	c1.7-0.2,3.3-0.3,5-0.5c3.3-0.2,6.5-0.4,9.8-0.5c2.1-0.3,4.7-0.2,7-0.5h7.7c3.6,0.1,7,0,10,0.5c3,0.3,6.1,0.6,9.1,0.8
	c8.1,1.9,15.5,3.8,21.7,7.5c3.7,2.2,6.9,4.8,9.4,8.1c1,1.3,2.3,3.3,1.8,5.8c-1.6,8.2-14.3,9.2-23.2,10.7c-2.1,0.3-4.2,0.7-6.4,1
	c-2.4,0.1-4.8,0.2-7.1,0.2c-3.7,0.6-7,0.5-10.7,1.1c-2.1,0.4-4.8,0.6-7.1,1c-1,0.1-1.9,0.2-2.9,0.2c-9.6,2.1-19.6,3.3-29.1,5.4
	c-1.6,0.2-3.2,0.4-4.8,0.5c-10.9,2.3-23,3.4-34.1,5.4c-1.9,0.2-3.7,0.4-5.6,0.5c-2.9,0.5-6.2,1-9,1.5c-1.6,0.2-3.2,0.3-4.8,0.5
	c-6.3,1.3-13.5,2.2-19.7,3.5c-1.4,0.1-2.9,0.2-4.3,0.4c-21.8,4.4-44.7,7.1-66.5,11.5c-1.8,0.2-3.7,0.4-5.5,0.5
	c-11.5,2.5-24.2,3.3-36.1,5.4c-1.3,0.1-2.6,0.1-3.9,0.2c-3.9,0.3-7.9,0.7-11.8,1c-1.9,0.3-3.9,0-5.6,0.2c-2.1,0.1-4.2,0.2-6.3,0.2
	h-6.1c-1.7-0.1-3.3-0.3-5-0.4l-5.4-0.3c-4.3-0.7-8.5-1.3-12.2-2.4c-0.8-0.2-1.5-0.3-2.3-0.5c-8.7-3.5-15.2-8.5-18.8-17
	c-1.1-2.6-1.7-5.7-2.4-8.6c-0.3-1.6-0.6-3.3-0.9-4.9c-0.1-2.6-0.2-5.1-0.4-7.7c-0.4-2.6-0.7-5.5-0.7-8.3c-0.7-0.8-3.2-1.1-4.6-0.6
	c-1.8,0.6-3,2.1-4.3,3.1c-0.9,0.6-1.8,1.1-2.7,1.7c-6.6,4.3-13.3,8.5-19.7,13c-2.6,1.8-6.3,3.7-8.3,6.1c-0.9,1.4-1.9,2.8-2.8,4.2
	c-1.6,2.8-3.2,6.4-4.1,9.8c-0.1,0.9-0.2,1.9-0.4,2.8c-0.7,2.7-1.6,7-0.8,10.4c1.7,7,5.1,12.9,8.4,18.4c2.3,3.9,3.9,8.7,6.3,12.6
	c0.6,1,2.3,3.6,1.8,5.2c-0.8,3.1-6.9,8.7-9.3,10.7c-2.4,1.9-4.6,4.3-7,6.3L340,503c-4,3.2-7.9,6.8-12.1,9.9c-1.7,1.2-3.3,2.5-5,3.8
	c-2.2,1.6-5.4,2.9-6.8,5.2c-0.9,1.5-0.5,3.8-0.5,6.1c0,4.5,0.4,13.5,3.3,14.7c1.7-0.1,4-2.4,5.2-3.3c2.9-2.2,5.5-4.7,8.3-7l4.3-4.3
	l3.9-3.6c1.5-1.2,3.1-2.6,4.3-4.2c0.7-0.6,1.3-1.3,2-1.9c1.5-1.6,3-3.3,4.5-4.9c1.7-1.8,3.5-3.6,5.2-5.4c1.7-2.1,3-4.2,4.5-6.5
	c0.6-0.8,1.1-1.7,1.7-2.5c1.2-2.9,1.4-6.1,2.3-9.5c1.2-4.9,2.1-10.2,3-15.7c0.5-2.8-0.6-5.4-1.1-7.3c-1.7-6.1-4.1-11.2-6.8-16.4
	c-1-1.9-1.8-3.8-2.7-5.8c-0.2-0.5-1-1.2-0.8-2c0.2-1,4.3-3.3,5.4-3.9c4-2.7,8-5.4,12-8c1.2-0.8,4.6-3.8,5.9-4c1.9,1,1.4,4.7,1.9,7
	c0.2,0.9,0.5,1.7,0.7,2.6l0.3,3c1.2,4.5,2.4,8.9,4,12.9c5.5,13,19.2,20.4,34.5,23.6c1.3,0.1,2.6,0.3,3.9,0.4c11.7,2.4,29.2,2,41-0.1
	l5.1-0.3c2.5-0.4,5.3-1,7.7-1.5c2.8-0.6,5.5-0.5,8.1-1.1c11.9-2.6,24.4-4.2,36.1-6.9c2.6-0.6,5.1-0.6,7.6-1.2
	c8.8-2,18.3-3.3,27.1-5.1c0.9-0.1,1.8-0.1,2.7-0.2c14.7-3.1,30.8-4.6,45.6-7.6c1.9-0.1,3.8-0.3,5.8-0.4c7.4-1.4,15.9-2.2,23.4-3.6
	c1.4-0.1,2.7-0.2,4.1-0.4c6.9-1.4,14.9-2.1,21.7-3.6c1.5-0.1,2.9-0.2,4.4-0.4c4.3-0.9,9.2-1.4,13.6-2.4c0.9-0.1,1.7-0.2,2.6-0.3
	c1.2-0.3,2.4-0.6,3.6-1c1.3-0.1,2.6-0.2,3.9-0.4c6.3-1.2,13.2-2.3,19.6-3.6l4.5-0.3c2.8-0.5,5.9-1,8.7-1.5c1.4-0.2,2.9-0.3,4.3-0.5
	c12.9-2.7,23.6-4.7,32.3-11.6c1.3-1,2.2-2.5,3.1-3.9c2.9-4.3,4.4-8.5,5.5-14.8C767.9,400.3,767.2,395.7,766.5,392.9L766.5,392.9z"/>
<path class="st4" d="M447.5,437.2c3.3-1.3,6.9-2,10.4-3.1c3.8-1.2,7.5-2.4,11.3-3.6c3.5-1.1,7.1-2.7,10.5-3.8
	c5.8-1.8,11.4-2.8,17.3-4.6c5.7-1.7,11.3-3.7,17-5.5c8.3-2.6,16.9-4.1,24.5-7.3c4.6-1.9,10.3-3.4,15.4-4.6c0.7-0.1,1.5-0.2,2.2-0.2
	c1.2-0.3,2.7-0.9,3.7-1.5c1.2-0.8,2.8-1.9,3.2-3.5c0.6-2.3-2-2.9-4.1-2.9c-2.9,0.7-5.8,1.5-8.8,2.2c-3.7,1-7.6,2.3-11.1,3.4
	c-1.7,0.5-3.5,0.9-5.2,1.4c-4.8,1.5-10,3-14.8,4.6l-3,0.6c-4.4,1.3-9,2.4-13.6,3.8c-2.2,0.7-4.8,1.3-7.1,2.1c-1.3,0.5-2.7,1-4,1.5
	c-8.7,2.4-17.5,4.2-25.7,7.1c-4.5,1.6-8.8,3.4-13.4,4.8c-3.4,1-6.5,1.1-8.7,3.3c-0.9,0.9-3.5,4-2.7,6.1
	C441.4,439.3,446.2,437.7,447.5,437.2L447.5,437.2z"/>
<path class="st4" d="M554.9,658.1c-1.7-1.6-4.7-7.9-6.8-8c-0.9,0.4-1.8,0.4-2.6,0.8c-3.7,2.2-6.2,6-8.7,9.5
	c-1.7,2.4-3.9,5.3-4.6,8.5c-0.6,2.7,0.9,4.4,2.3,5.5c1.3,1.3,2.7,2.5,4,3.8c1.7,1.3,3.3,2.5,5.2,3.6c1,0.6,3.3,2.2,5,1.9
	c1.9-0.3,3.2-1.7,4.5-2.7c3.5-2.8,6.5-6.7,9-10.4c0.7-1,3.4-4,2.8-5.5C563.8,661.7,557.5,660.5,554.9,658.1L554.9,658.1z"/>
<path class="st4" d="M738,704.1c-3.9,1.9-6.6,6.9-7.9,11.3c-0.8,2.7-1.2,5.6-2,8.2c-0.7,2.4-1,4.8-1.7,7.1c-0.3,0.9-0.2,2.1-1,2.5
	c-0.1,0-0.2,0-0.3,0.1c-1.5-1.5-1.9-6.4-2.7-8.7c-2-5-4.3-8-7.3-11.8c-0.7-0.9-3.4-3.3-4.6-3.5c-1-0.2-2.2,0.9-2.6,1.4
	c-1.4,1.8-4.5,6-3.2,8.8c0.7,1.5,2.6,3.4,4.5,3.6c0.9,0.1,1.4-0.8,2.1-1c1.4-0.3,4.1,2.2,4.6,3c1.9,3,2.8,6.6,4.2,10.2
	c0.9,2.3,2.1,4.6,2.6,7.1c0.4,2-0.2,6.9,1.6,7.1c1.2-1.7,1.6-5.2,2.3-7.4c2.2-7.4,2.4-16.4,5.6-22.7c0.8-1.5,2.3-7,4.6-6.5
	s3.4,3,5.4,3.9c2,0,2.7-3.6,2.2-5.7C743.7,708.2,741.5,704.1,738,704.1L738,704.1z"/>
<path class="st4" d="M710.5,644.2c-0.8-1.8-2.9-1.4-5.1-1.7c-2.6-0.4-4.9-0.6-7.6-1.2c-1.7-0.4-3.6-0.4-5.5-0.8c-3-0.6-6-1.1-9-1.7
	c-1.3-0.1-2.7-0.3-4-0.4c-5.6-1.2-12.2-2.3-17.8-3.6l-3.3-0.3c-2.2-0.4-4.7-1.1-6.9-1.6c-1.3-0.2-2.6-0.4-3.9-0.6
	c-2-0.5-4.1-1-6.1-1.5c-1.2-0.1-2.3-0.2-3.5-0.4c-4.8-1.1-10.3-2.4-15.2-3.6c-0.9-0.1-1.7-0.2-2.6-0.2c-2.1-0.5-4.2-1.1-6.3-1.6
	c-1.9-0.4-3.9-0.8-5.8-1.1c-2.6-0.6-5.4-1.7-8-2.3c-4.2-1-8.3-1.7-12.2-2.7c-2-0.5-3.9-0.6-5.8-1.1c-3-0.9-6.1-1.9-9.3-2.7
	c-1.4-0.2-2.8-0.4-4.2-0.5c-2-0.4-4.3-0.9-6.4-1.4c-1.4-0.2-2.7-0.4-4.1-0.5c-3.1-0.7-8.9-1.9-12.6-1.4h-2.9
	c-4.4,0.7-8.6,1.3-12.4,2.5c-6,1.9-11.3,4.8-15.8,8.3c-1.4,1.1-3,2.3-4.2,3.7c-1.3,1.6-2.7,3.2-4,4.8c-2.2,3.1-3.8,6.9-5.2,10.6
	c-0.7,1.8-0.8,3.7-1.3,5.8c-1.7,7.6-1.3,18.2-0.1,26.1c0,0.7,0.1,1.5,0.1,2.2c0.6,3.1,1.3,6.3,1.9,9.2c0.5,2.2,0.6,4.5,1,6.6
	c0.3,1.5,1,5.4-0.2,6c-3.5-1.4-6.2-4.7-9-6.9c-5.6-4.5-8.5-9.8-11.9-16.4c-1.1-2.1-2.3-4.4-3.3-6.7c-0.1-0.7-0.3-1.3-0.4-2
	c-0.6-1.9-1.3-3.8-1.9-5.8c-1-2.3-2-4.6-3-7c-1.9-4.7-3-9.8-4.5-14.8c-0.7-3.3-1.5-6.7-2.2-10c-0.1-1.1-0.2-2.1-0.3-3.2
	c-0.4-2.2-1.1-4.6-1.6-6.8c-0.2-1.3-0.4-2.7-0.6-4c-3.6-14.4-7.1-28.6-12.1-41.4c-4.3-10.8-8.3-21.4-14-30.8c-1.2-2-3.6-7.7-6.4-7.7
	c-2.4,2.1-2.2,6.1-3.1,9.6l-1.8,8.4c-1.4,4.7-3.3,10.5-1,15.9c2,4.6,4.8,9,6.8,13.8c6.3,14.7,11.9,29.6,17.4,45.1
	c1.9,5.4,3.3,11.1,4.9,17c0.7,2.6,1.8,5.7,1.2,9c-1.4,8.4-6.7,13-11,18.5c-4,5.2-9.8,10-15,14c-4.5,3.5-9.2,7-13.9,10.3
	c-4.8,3.4-10,6.2-15.1,9.3c-10.7,6.4-21.7,11.2-36.4,13.7l-4.5,0.3c-6.1,1-13.2,0-17-2.4c-4.5-2.8-7.8-11-6.3-19
	c1.8-9.2,4.4-16.7,7.7-24.3c1.3-3.1,2.6-6.2,3.7-9.6c0.4-1.1,0.8-3.2-0.4-3.7c-1.1-0.4-3,1.9-3.5,2.4c-1.7,2-5.7,6.7-9.7,6
	c-5.8-1-10.3-4.9-9-12.6c0.1-1.3,0.2-2.5,0.2-3.8c0.3-1.6,1-3.4,1.4-4.9c0.9-2.8,1.3-5.2,2.3-7.8c1.3-3.2,2.7-6.6,4-9.8
	c0.8-2,1.3-3.9,2.1-6c0.3-0.8,0.9-1.4,0.8-2.6c-0.2-0.1-0.3-0.2-0.5-0.3c-0.8-0.1-1.8,1.8-2.2,2.4c-0.8,1.1-1.7,2.1-2.5,3.2
	c-0.9,1.4-1.7,2.8-2.6,4.2c-4.4,7.2-7.5,15.6-9.1,25.6c0,1.2,0,2.5-0.1,3.7c0,1.4,0,2.9-0.1,4.3c0,2.2,0.1,4.3,0.1,6.5
	c0.3,2.1,1,4,1.8,5.7c1.1,2.5,3.4,4.1,6.5,4.6c2,0.3,8.2-0.7,8.8,0.7c0.4,1.1-0.5,5-0.8,6c-1.3,4.6-1.8,9.2-2.7,14
	c-0.4,2.2-0.2,4.4-0.6,6.8c-0.6,3.8-0.1,8.7,0.6,11.9c0.2,1.2,0.3,2.4,0.5,3.6c1.9,7.6,4.8,15.2,10.1,19.5c2.8,2.3,5.6,4.4,9.7,5.5
	c2.9,0.8,7.5,0.6,10.5-0.1c1.2-0.2,2.5-0.4,3.7-0.6c4.5-1.2,9.2-3,13.1-4.9c13.7-7,25.8-15.7,37.6-24.6c2.5-2.2,5.1-4.4,7.6-6.7
	c2.6-2.1,4.6-4.9,7-7.2c2.6-2.7,5.6-5.2,8-8.1c1.6-1.6,3.1-3.2,4.7-4.8c4.2-5.2,8-10.4,10.8-17.1c0.6-1.5,2.1-7,3.5-7.2
	c2.7,1.5,2.4,5.7,3.2,9.2c1.3,6.1,2.8,11.4,5.5,16c3.2,5.5,6.3,11.1,10.2,16c1.5,1.9,3.4,3.6,5.3,5.2c1.3,1.3,2.6,2.7,3.9,4
	c1.5,1,2.9,1.9,4.4,2.9c1.7,1.2,3.5,2.6,5.4,3.7c2.3,1.4,6,3.1,8.8,3.9c1.9,0.6,4.4,0.6,5.9,1.7c2.1,1.6,2,5.7,2.7,8.6
	c0.3,1.4,0.4,3.2,1.7,3.6s2.1-1,2.5-1.7c1.5-2.3,1-7.7,3.6-8.8c1.4-0.6,3.3-0.2,5.1-0.5c1.5-0.2,3-0.5,4.5-0.7c1-0.1,2-0.2,3-0.2
	c1.1-0.4,2.2-0.7,3.3-1.1c2.4-0.4,4.7-0.7,7.1-1.1c5.2-1.3,10.7-3.1,15.4-5.1c7.9-3.4,15.7-6.3,23.6-9.6c5.7-2.7,11.4-5.4,17.1-8
	c2.4-1.4,5.1-2.9,7.7-4c5.4-2.4,10.8-4.7,16.3-7c9.8-4.3,18.8-9.5,28.7-13.8c2.6-1.1,5.4-2.6,8.1-3.5c6.2-2.2,12.9-3.6,20.2-4.9
	c3.6-0.4,7.1-0.8,10.7-1.1c1.7-0.3,3.9,0.3,5.4-0.2c1.6-0.6,2.9-4.7,3.6-6.5c1.9-4.7,4.1-9.4,6.1-14
	C708.7,648.5,710.4,645.8,710.5,644.2L710.5,644.2z M638.8,663c-0.4,1.9-4.7,3-6.6,3.7c-1.1,0.5-2.3,0.9-3.4,1.4
	c-0.6,0.2-1.3,0.3-1.9,0.5c-4.8,1.9-9.4,4-14.2,6c-3.6,1.4-7.1,3.3-10.7,4.9c-4.4,1.9-9.1,3.2-13.5,5.1c-3.1,1.5-6.3,3-9.4,4.5
	c-3.4,1.4-6.7,2.2-10.2,3.6c-5.9,2.3-12.7,4.3-19.5,5.6c-7,1.3-19.5,5.3-26.7,2.1c-3-1.3-3.4-4.3-4.6-7.4l-3.9-10.2
	c-0.9-2.1-1.7-4.1-2.6-6.2c-0.4-1.3-0.9-2.6-1.3-3.9c-1.7-3.9-3.5-8.2-4.3-12.7c-0.5-3,2.2-6.6,3.4-8.2c3.3-4.6,11.7-8.7,17.7-10.6
	c1.8-0.4,3.6-0.8,5.4-1.2c1-0.1,1.9-0.2,2.9-0.4c13,0,24.3,2.4,35.2,4.8c1.3,0.2,2.6,0.4,3.9,0.6c4.8,1.1,10.1,2.3,14.8,3.5
	c0.9,0.1,1.7,0.2,2.6,0.4c8.3,2,17,4.5,24.9,7c5.4,1.7,11.3,3.1,17,4.5C635.2,660.7,639.2,661.3,638.8,663L638.8,663z"/>
<path class="st4" d="M453.7,736.6c-4.9,1.9-9.6,1.6-11.5-3.1c-0.8-1.9-0.6-5.8,0.1-7.6c0.6-1,1.1-2,1.7-3c1.9-3.2,3.7-6.4,5.8-9.3
	l2.4-2.7c1.2-1.5,2.5-2.7,3.5-4.4c0.3-0.5,0.9-1.6,0.1-2c-0.1,0-0.2,0-0.3-0.1c-7.9,6.3-14.5,13.9-18.5,24.1
	c-1.5,3.7-4.1,8.8-1.5,13c1.2,1.9,3.6,3.7,6,4.2c1,0.1,2.1,0.1,3.1,0.2c0.9,0.1,2.2,0.1,3-0.1c2.7-0.7,6-3.6,7.6-5.6
	c1-1.3,2.8-2.8,2.9-4.9c-0.2-0.2-0.4-0.3-0.5-0.5C457.2,734.7,454.4,736.3,453.7,736.6L453.7,736.6z"/>
<path class="st4" d="M649.9,736.5c-5,2-9.4-0.2-10.7-4.6c-0.5-1.9-0.2-4.4,0.4-6c1.2-3,3-5.6,4.6-8.2c1.3-2.1,2.5-4.4,4.2-6.1
	c1.2-1.2,5.7-5.3,5.1-7.3c-0.2-0.1-0.3-0.2-0.7-0.2c-2.1,1.4-3.9,3.3-5.7,5.1c-5.5,5.5-9.7,11.4-12.9,19.4
	c-1.1,2.9-3.7,8.6-1.5,12.3c1.4,2.3,6.9,6.2,11.4,4.9c3.9-1.1,7.2-4.2,9.4-7.1c0.8-1,1.9-2.2,2.1-3.7c-0.2-0.2-0.3-0.4-0.5-0.6
	C655.1,734.3,650.6,736.2,649.9,736.5L649.9,736.5z"/>
<path class="st4" d="M736,601.5c-1.6-1-3.2-1.9-4.8-2.9c-2.2-1.6-4.3-3.9-5.9-6c-0.9-1.1-2.8-4.2-4.6-4.2c-3.9,2.5-7,6.4-9.6,10.1
	c-0.7,1-2.5,4.4-3.9,4.5c-1.5-1.4-3.2-2.5-5-3.6c-1.6-1-3.3-1.8-4.4-3.2c-1.5-1.9-3.1-3.7-4.6-5.5c-0.6-0.7-1.2-1.9-2.1-2.1
	c-1.5-0.5-4.3,2.5-4.9,3.3c-3.1,3.9-6.1,7.7-9,11.9c-0.8,1.2-2.8,3-2.4,5.2c1.1,6,6.4,9.5,11.1,11.9c1.9,0.9,4.6,2.5,6.9,1.2
	c3.3-1.8,6.4-4.7,8.7-7.6c0.7-0.9,2.8-3.8,3.7-4.2c0.7,0.3,2,3.4,2.7,4.2c2.1,2.6,5.2,4.5,8.1,6.3c0.9,0.5,4.3,2.2,5.6,1.9
	c2.7-0.5,4.8-2.7,6.5-4.3c3-2.8,5.5-5.6,8-8.9c0.9-1.1,2-2.4,2.6-3.8C739.4,603.7,736.9,602.2,736,601.5L736,601.5z"/>
<path class="st4" d="M692.5,571.7c-1,0.2-2.1,0.4-3.1,0.5c-2.5,0.7-5.1,1.9-7.4,2.7c-3.9,1.2-7.9,1.9-11.7,3.3
	c-6.2,2.2-12.8,4.6-19.3,6.5c-3.1,0.9-5.8,1.5-8.9,2.4c-7.6,2.3-15.4,5.2-22.9,7.6c-3.3,1.1-6.5,1.7-9.8,2.7c-2.2,0.7-4,1-6.2,1.7
	l-5.1,1.8c-2.3,0.7-4.7,1-6.5,2.3c-1.3,1-2.2,2.6-3.1,4c-0.6,0.9-2.5,5.4-1.9,7c0.7,1.9,4.8,0.9,6.4,0.2c2.8-1.1,5.8-2.3,8.8-3.3
	c0.8-0.2,1.5-0.3,2.3-0.5c2.8-0.8,5.5-1.7,8.3-2.8c3.9-1.5,8.1-2.6,12.3-3.9c5.5-1.7,11.1-3.5,16.7-5.2c7.3-2.5,14.5-5.1,21.8-7.6
	c6.8-2.1,13.7-3.9,20.5-6c1.3-0.5,2.6-1,3.9-1.4c3.1-1.2,4.4-1.2,5.7-4.4c0.3-1.1,0.7-2.1,1-3.2
	C694.8,574.1,695.9,571.9,692.5,571.7L692.5,571.7z"/>
<path class="st4" d="M408.8,591.2c0.8-1.2,2.4-3.9,2.4-5.6c-0.2-0.1-0.3-0.3-0.5-0.4c-0.1,0-0.3,0-0.4-0.1c-2.2,1.8-3.5,4.7-5.1,7.3
	c-1.8,3-3.6,6.1-5.1,9.5c-1.2,2.7-2.8,5.2-3.6,8.4c-1.1,4.5-1,10.7,1.3,13.7c0.6,0.8,1.6,1.7,2.5,2.3c1.2,0.7,4,0.9,5.5,0.3
	c3.7-1.5,6.2-4.9,8.3-7.9c0.8-1.1,2.6-3.5,2.6-5.1c-0.2-0.2-0.3-0.4-0.7-0.5c-0.8-0.2-1.8,1.1-2.4,1.5c-1.5,1.1-4.5,3.3-7.3,2.8
	c-3.8-0.7-6.1-5.1-5.1-9.8C402.8,601.1,405.8,596,408.8,591.2L408.8,591.2z"/>
<path class="st4" d="M728.5,659.5c1.3-2.5,2.7-5,4-7.5c0.8-0.9,1.5-1.8,2.3-2.7c0.6-0.6,1.2-1.3,1.8-1.9c1.1-1.4,2.1-2.9,3.2-4.3
	c0.5-0.6,1.4-1.3,1.5-2.3c-0.2-0.2-0.2-0.3-0.6-0.4c-5.2,4.6-10,9.5-14,15.4c-2.3,3.4-4,7.2-5.8,11c-2.6,5.2-3.3,12.4-0.1,17.6
	c1.5,2.3,5.6,4.5,9.4,3.1c4-1.5,7.4-4.8,9.5-8.3c0.7-1,1.8-2.4,1.8-3.9c-0.2-0.2-0.3-0.4-0.5-0.5c-2.7,0.3-3.7,3.2-6.4,3.7
	c-1.9,0.3-3.5-0.4-4.6-0.9c-0.7-0.3-1.5-0.6-2.2-0.9c-3.1-2.1-3.3-7-2.1-11.3C726.2,663.2,727.5,661.2,728.5,659.5L728.5,659.5z"/>
<path class="st4" d="M280.7,600.9c1.3-2.5,2.7-5,4-7.5c0.8-0.9,1.5-1.8,2.3-2.7c0.6-0.6,1.2-1.3,1.8-1.9c1.1-1.4,2.1-2.9,3.2-4.3
	c0.5-0.6,1.4-1.3,1.5-2.3c-0.2-0.2-0.2-0.3-0.6-0.4c-5.2,4.6-10,9.5-14,15.4c-2.3,3.4-4,7.2-5.8,11c-2.6,5.2-3.3,12.4-0.1,17.6
	c1.5,2.3,5.6,4.5,9.4,3.1c4-1.5,7.4-4.8,9.5-8.3c0.7-1,1.8-2.4,1.8-3.9c-0.2-0.2-0.3-0.4-0.5-0.5c-2.7,0.3-3.7,3.2-6.4,3.7
	c-1.9,0.3-3.5-0.4-4.6-0.9c-0.7-0.3-1.5-0.6-2.2-0.9c-3.1-2.1-3.3-7-2.1-11.3C278.4,604.6,279.7,602.6,280.7,600.9L280.7,600.9z"/>
</svg>
