<?xml version="1.0" encoding="utf-8"?>
<!-- Generator: Adobe Illustrator 21.0.2, SVG Export Plug-In . SVG Version: 6.00 Build 0)  -->
<svg version="1.1" id="Layer_1" xmlns="http://www.w3.org/2000/svg" xmlns:xlink="http://www.w3.org/1999/xlink" x="0px" y="0px"
	 viewBox="0 0 500 500" style="enable-background:new 0 0 500 500;" xml:space="preserve">
<style type="text/css">
	.st0{fill:#262B5B;}
	.st1{fill:#00AAA9;}
	.st2{fill:#202020;}
	.st3{fill:#ED752C;}
	.st4{display:none;fill:#FDFDFD;}
	.st5{enable-background:new    ;}
	.st6{fill:#FDFDFD;}
</style>
<g>
	<g>
		<rect x="91.5" y="91.5" class="st0" width="317" height="317"/>
		
			<rect x="79.3" y="79.3" transform="matrix(0.7071 -0.7071 0.7071 0.7071 -103.5544 249.9976)" class="st0" width="341.4" height="341.4"/>
	</g>
	<g>
		<g>
			<g>
				<g>
					<rect x="86.3" y="86.3" class="st1" width="17" height="17"/>
					<path class="st2" d="M103.2,86.5v16.7H86.5V86.5H103.2 M103.4,86.2H86.2v17.2h17.2L103.4,86.2L103.4,86.2z"/>
				</g>
				<g>
					<rect x="103.6" y="86.3" class="st1" width="17" height="17"/>
					<path class="st2" d="M120.4,86.5v16.7h-16.7V86.5H120.4 M120.7,86.2h-17.2v17.2h17.2V86.2L120.7,86.2z"/>
				</g>
				<g>
					<rect x="120.8" y="86.3" class="st1" width="17" height="17"/>
					<path class="st2" d="M137.7,86.5v16.7H121V86.5H137.7 M137.9,86.2h-17.2v17.2h17.2V86.2L137.9,86.2z"/>
				</g>
				<g>
					<rect x="138.1" y="86.3" class="st1" width="17" height="17"/>
					<path class="st2" d="M154.9,86.5v16.7h-16.7V86.5H154.9 M155.2,86.2H138v17.2h17.2V86.2L155.2,86.2z"/>
				</g>
				<g>
					<rect x="155.3" y="86.3" class="st1" width="17" height="17"/>
					<path class="st2" d="M172.2,86.5v16.7h-16.7V86.5H172.2 M172.4,86.2h-17.2v17.2h17.2V86.2L172.4,86.2z"/>
				</g>
				<g>
					<rect x="172.5" y="86.3" class="st1" width="17" height="17"/>
					<path class="st2" d="M189.4,86.5v16.7h-16.7V86.5H189.4 M189.7,86.2h-17.2v17.2h17.2V86.2L189.7,86.2z"/>
				</g>
				<g>
					<rect x="172.5" y="69.1" class="st1" width="17" height="17"/>
					<path class="st2" d="M189.4,69.2V86h-16.7V69.2H189.4 M189.7,69h-17.2v17.2h17.2V69L189.7,69z"/>
				</g>
				<g>
					<rect x="310.5" y="69.1" class="st1" width="17" height="17"/>
					<path class="st2" d="M327.3,69.2V86h-16.7V69.2H327.3 M327.6,69h-17.2v17.2h17.2V69L327.6,69z"/>
				</g>
				<g>
					<rect x="310.5" y="86.3" class="st1" width="17" height="17"/>
					<path class="st2" d="M327.3,86.5v16.7h-16.7V86.5H327.3 M327.6,86.2h-17.2v17.2h17.2V86.2L327.6,86.2z"/>
				</g>
				<g>
					<rect x="327.7" y="86.3" class="st1" width="17" height="17"/>
					<path class="st2" d="M344.6,86.5v16.7h-16.7V86.5H344.6 M344.8,86.2h-17.2v17.2h17.2V86.2L344.8,86.2z"/>
				</g>
				<g>
					<rect x="345" y="86.3" class="st1" width="17" height="17"/>
					<path class="st2" d="M361.8,86.5v16.7h-16.7V86.5H361.8 M362.1,86.2h-17.2v17.2h17.2V86.2L362.1,86.2z"/>
				</g>
				<g>
					<rect x="362.2" y="86.3" class="st1" width="17" height="17"/>
					<path class="st2" d="M379.1,86.5v16.7h-16.7V86.5H379.1 M379.3,86.2h-17.2v17.2h17.2V86.2L379.3,86.2z"/>
				</g>
				<g>
					<rect x="379.4" y="86.3" class="st1" width="17" height="17"/>
					<path class="st2" d="M396.3,86.5v16.7h-16.7V86.5H396.3 M396.6,86.2h-17.2v17.2h17.2V86.2L396.6,86.2z"/>
				</g>
				<g>
					<rect x="396.7" y="86.3" class="st1" width="17" height="17"/>
					<path class="st2" d="M413.5,86.5v16.7h-16.7V86.5H413.5 M413.8,86.2h-17.2v17.2h17.2V86.2L413.8,86.2z"/>
				</g>
			</g>
			<g>
				<g>
					<rect x="189.8" y="51.8" class="st1" width="17" height="17"/>
					<path class="st2" d="M206.6,52v16.7h-16.7V52H206.6 M206.9,51.7h-17.2V69h17.2V51.7L206.9,51.7z"/>
				</g>
				<g>
					<rect x="207" y="34.6" class="st1" width="17" height="17"/>
					<path class="st2" d="M223.9,34.7v16.7h-16.7V34.7H223.9 M224.1,34.5h-17.2v17.2h17.2V34.5L224.1,34.5z"/>
				</g>
				<g>
					<rect x="224.3" y="17.4" class="st1" width="17" height="17"/>
					<path class="st2" d="M241.1,17.5v16.7h-16.7V17.5H241.1 M241.4,17.2h-17.2v17.2h17.2V17.2L241.4,17.2z"/>
				</g>
				<g>
					<rect x="241.5" y="0.1" class="st1" width="17" height="17"/>
					<path class="st2" d="M258.4,0.2V17h-16.7V0.2H258.4 M258.6,0h-17.2v17.2h17.2V0L258.6,0z"/>
				</g>
				<g>
					<rect x="258.7" y="17.4" class="st1" width="17" height="17"/>
					<path class="st2" d="M275.6,17.5v16.7h-16.7V17.5H275.6 M275.9,17.2h-17.2v17.2h17.2V17.2L275.9,17.2z"/>
				</g>
				<g>
					<rect x="276" y="34.6" class="st1" width="17" height="17"/>
					<path class="st2" d="M292.9,34.7v16.7h-16.7V34.7H292.9 M293.1,34.5h-17.2v17.2h17.2V34.5L293.1,34.5z"/>
				</g>
				<g>
					<rect x="293.2" y="51.8" class="st1" width="17" height="17"/>
					<path class="st2" d="M310.1,52v16.7h-16.7V52H310.1 M310.3,51.7h-17.2V69h17.2V51.7L310.3,51.7z"/>
				</g>
			</g>
		</g>
		<g>
			<g>
				<g>
					<rect x="396.7" y="396.7" class="st1" width="17" height="17"/>
					<path class="st2" d="M413.5,396.8v16.7h-16.7v-16.7H413.5 M413.8,396.6h-17.2v17.2h17.2V396.6L413.8,396.6z"/>
				</g>
				<g>
					<rect x="379.4" y="396.7" class="st1" width="17" height="17"/>
					<path class="st2" d="M396.3,396.8v16.7h-16.7v-16.7H396.3 M396.6,396.6h-17.2v17.2h17.2V396.6L396.6,396.6z"/>
				</g>
				<g>
					<rect x="362.2" y="396.7" class="st1" width="17" height="17"/>
					<path class="st2" d="M379.1,396.8v16.7h-16.7v-16.7H379.1 M379.3,396.6h-17.2v17.2h17.2V396.6L379.3,396.6z"/>
				</g>
				<g>
					<rect x="345" y="396.7" class="st1" width="17" height="17"/>
					<path class="st2" d="M361.8,396.8v16.7h-16.7v-16.7H361.8 M362.1,396.6h-17.2v17.2h17.2V396.6L362.1,396.6z"/>
				</g>
				<g>
					<rect x="327.7" y="396.7" class="st1" width="17" height="17"/>
					<path class="st2" d="M344.6,396.8v16.7h-16.7v-16.7H344.6 M344.8,396.6h-17.2v17.2h17.2V396.6L344.8,396.6z"/>
				</g>
				<g>
					<rect x="310.5" y="396.7" class="st1" width="17" height="17"/>
					<path class="st2" d="M327.3,396.8v16.7h-16.7v-16.7H327.3 M327.6,396.6h-17.2v17.2h17.2V396.6L327.6,396.6z"/>
				</g>
				<g>
					<rect x="310.5" y="413.9" class="st1" width="17" height="17"/>
					<path class="st2" d="M327.3,414v16.7h-16.7V414H327.3 M327.6,413.8h-17.2V431h17.2V413.8L327.6,413.8z"/>
				</g>
				<g>
					<rect x="172.5" y="413.9" class="st1" width="17" height="17"/>
					<path class="st2" d="M189.4,414v16.7h-16.7V414H189.4 M189.7,413.8h-17.2V431h17.2V413.8L189.7,413.8z"/>
				</g>
				<g>
					<rect x="172.5" y="396.7" class="st1" width="17" height="17"/>
					<path class="st2" d="M189.4,396.8v16.7h-16.7v-16.7H189.4 M189.7,396.6h-17.2v17.2h17.2V396.6L189.7,396.6z"/>
				</g>
				<g>
					<rect x="155.3" y="396.7" class="st1" width="17" height="17"/>
					<path class="st2" d="M172.2,396.8v16.7h-16.7v-16.7H172.2 M172.4,396.6h-17.2v17.2h17.2V396.6L172.4,396.6z"/>
				</g>
				<g>
					<rect x="138.1" y="396.7" class="st1" width="17" height="17"/>
					<path class="st2" d="M154.9,396.8v16.7h-16.7v-16.7H154.9 M155.2,396.6H138v17.2h17.2V396.6L155.2,396.6z"/>
				</g>
				<g>
					<rect x="120.8" y="396.7" class="st1" width="17" height="17"/>
					<path class="st2" d="M137.7,396.8v16.7H121v-16.7H137.7 M137.9,396.6h-17.2v17.2h17.2V396.6L137.9,396.6z"/>
				</g>
				<g>
					<rect x="103.6" y="396.7" class="st1" width="17" height="17"/>
					<path class="st2" d="M120.4,396.8v16.7h-16.7v-16.7H120.4 M120.7,396.6h-17.2v17.2h17.2V396.6L120.7,396.6z"/>
				</g>
				<g>
					<rect x="86.3" y="396.7" class="st1" width="17" height="17"/>
					<path class="st2" d="M103.2,396.8v16.7H86.5v-16.7H103.2 M103.4,396.6H86.2v17.2h17.2L103.4,396.6L103.4,396.6z"/>
				</g>
			</g>
			<g>
				<g>
					<rect x="293.2" y="431.2" class="st1" width="17" height="17"/>
					<path class="st2" d="M310.1,431.3V448h-16.7v-16.7H310.1 M310.3,431h-17.2v17.2h17.2V431L310.3,431z"/>
				</g>
				<g>
					<rect x="276" y="448.4" class="st1" width="17" height="17"/>
					<path class="st2" d="M292.9,448.5v16.7h-16.7v-16.7H292.9 M293.1,448.3h-17.2v17.2h17.2V448.3L293.1,448.3z"/>
				</g>
				<g>
					<rect x="258.7" y="465.6" class="st1" width="17" height="17"/>
					<path class="st2" d="M275.6,465.8v16.7h-16.7v-16.7H275.6 M275.9,465.5h-17.2v17.2h17.2V465.5L275.9,465.5z"/>
				</g>
				<g>
					<rect x="241.5" y="482.9" class="st1" width="17" height="17"/>
					<path class="st2" d="M258.4,483v16.7h-16.7V483H258.4 M258.6,482.8h-17.2V500h17.2V482.8L258.6,482.8z"/>
				</g>
				<g>
					<rect x="224.3" y="465.6" class="st1" width="17" height="17"/>
					<path class="st2" d="M241.1,465.8v16.7h-16.7v-16.7H241.1 M241.4,465.5h-17.2v17.2h17.2V465.5L241.4,465.5z"/>
				</g>
				<g>
					<rect x="207" y="448.4" class="st1" width="17" height="17"/>
					<path class="st2" d="M223.9,448.5v16.7h-16.7v-16.7H223.9 M224.1,448.3h-17.2v17.2h17.2V448.3L224.1,448.3z"/>
				</g>
				<g>
					<rect x="189.8" y="431.2" class="st1" width="17" height="17"/>
					<path class="st2" d="M206.6,431.3V448h-16.7v-16.7H206.6 M206.9,431h-17.2v17.2h17.2V431L206.9,431z"/>
				</g>
			</g>
		</g>
		<g>
			<g>
				<g>
					<rect x="86.3" y="379.4" class="st1" width="17" height="17"/>
					<path class="st2" d="M103.2,379.6v16.7H86.5v-16.7H103.2 M103.4,379.3H86.2v17.2h17.2L103.4,379.3L103.4,379.3z"/>
				</g>
				<g>
					<rect x="86.3" y="362.2" class="st1" width="17" height="17"/>
					<path class="st2" d="M103.2,362.3V379H86.5v-16.7H103.2 M103.4,362.1H86.2v17.2h17.2L103.4,362.1L103.4,362.1z"/>
				</g>
				<g>
					<rect x="86.3" y="345" class="st1" width="17" height="17"/>
					<path class="st2" d="M103.2,345.1v16.7H86.5v-16.7H103.2 M103.4,344.8H86.2V362h17.2L103.4,344.8L103.4,344.8z"/>
				</g>
				<g>
					<rect x="86.3" y="327.7" class="st1" width="17" height="17"/>
					<path class="st2" d="M103.2,327.8v16.7H86.5v-16.7H103.2 M103.4,327.6H86.2v17.2h17.2L103.4,327.6L103.4,327.6z"/>
				</g>
				<g>
					<rect x="86.3" y="310.5" class="st1" width="17" height="17"/>
					<path class="st2" d="M103.2,310.6v16.7H86.5v-16.7H103.2 M103.4,310.3H86.2v17.2h17.2L103.4,310.3L103.4,310.3z"/>
				</g>
				<g>
					<rect x="69.1" y="310.5" class="st1" width="17" height="17"/>
					<path class="st2" d="M86,310.6v16.7H69.2v-16.7H86 M86.2,310.3H69v17.2h17.2V310.3L86.2,310.3z"/>
				</g>
				<g>
					<rect x="69.1" y="172.5" class="st1" width="17" height="17"/>
					<path class="st2" d="M86,172.7v16.7H69.2v-16.7H86 M86.2,172.4H69v17.2h17.2V172.4L86.2,172.4z"/>
				</g>
				<g>
					<rect x="86.3" y="172.5" class="st1" width="17" height="17"/>
					<path class="st2" d="M103.2,172.7v16.7H86.5v-16.7H103.2 M103.4,172.4H86.2v17.2h17.2L103.4,172.4L103.4,172.4z"/>
				</g>
				<g>
					<rect x="86.3" y="155.3" class="st1" width="17" height="17"/>
					<path class="st2" d="M103.2,155.4v16.7H86.5v-16.7H103.2 M103.4,155.2H86.2v17.2h17.2L103.4,155.2L103.4,155.2z"/>
				</g>
				<g>
					<rect x="86.3" y="138.1" class="st1" width="17" height="17"/>
					<path class="st2" d="M103.2,138.2v16.7H86.5v-16.7H103.2 M103.4,137.9H86.2v17.2h17.2L103.4,137.9L103.4,137.9z"/>
				</g>
				<g>
					<rect x="86.3" y="120.8" class="st1" width="17" height="17"/>
					<path class="st2" d="M103.2,120.9v16.7H86.5v-16.7L103.2,120.9 M103.4,120.7H86.2v17.2h17.2L103.4,120.7L103.4,120.7z"/>
				</g>
				<g>
					<rect x="86.3" y="103.6" class="st1" width="17" height="17"/>
					<path class="st2" d="M103.2,103.7v16.7H86.5v-16.7H103.2 M103.4,103.4H86.2v17.2h17.2L103.4,103.4L103.4,103.4z"/>
				</g>
			</g>
			<g>
				<g>
					<rect x="51.8" y="293.2" class="st1" width="17" height="17"/>
					<path class="st2" d="M68.7,293.4v16.7H52v-16.7H68.7 M69,293.1H51.7v17.2H69V293.1L69,293.1z"/>
				</g>
				<g>
					<rect x="34.6" y="276" class="st1" width="17" height="17"/>
					<path class="st2" d="M51.5,276.1v16.7H34.7v-16.7H51.5 M51.7,275.9H34.5v17.2h17.2V275.9L51.7,275.9z"/>
				</g>
				<g>
					<rect x="17.4" y="258.7" class="st1" width="17" height="17"/>
					<path class="st2" d="M34.2,258.9v16.7H17.5v-16.7H34.2 M34.5,258.6H17.2v17.2h17.2L34.5,258.6L34.5,258.6z"/>
				</g>
				<g>
					<rect x="0.1" y="241.5" class="st1" width="17" height="17"/>
					<path class="st2" d="M17,241.6v16.7H0.2v-16.7L17,241.6 M17.2,241.4H0v17.2h17.2V241.4L17.2,241.4z"/>
				</g>
				<g>
					<rect x="17.4" y="224.3" class="st1" width="17" height="17"/>
					<path class="st2" d="M34.2,224.4v16.7H17.5v-16.7H34.2 M34.5,224.1H17.2v17.2h17.2L34.5,224.1L34.5,224.1z"/>
				</g>
				<g>
					<rect x="34.6" y="207" class="st1" width="17" height="17"/>
					<path class="st2" d="M51.5,207.1v16.7H34.7v-16.7H51.5 M51.7,206.9H34.5v17.2h17.2V206.9L51.7,206.9z"/>
				</g>
				<g>
					<rect x="51.8" y="189.8" class="st1" width="17" height="17"/>
					<path class="st2" d="M68.7,189.9v16.7H52v-16.7H68.7 M69,189.7H51.7v17.2H69V189.7L69,189.7z"/>
				</g>
			</g>
		</g>
		<g>
			<g>
				<g>
					<rect x="396.7" y="103.6" class="st1" width="17" height="17"/>
					<path class="st2" d="M413.5,103.7v16.7h-16.7v-16.7H413.5 M413.8,103.4h-17.2v17.2h17.2V103.4L413.8,103.4z"/>
				</g>
				<g>
					<rect x="396.7" y="120.8" class="st1" width="17" height="17"/>
					<path class="st2" d="M413.5,120.9v16.7h-16.7v-16.7L413.5,120.9 M413.8,120.7h-17.2v17.2h17.2V120.7L413.8,120.7z"/>
				</g>
				<g>
					<rect x="396.7" y="138.1" class="st1" width="17" height="17"/>
					<path class="st2" d="M413.5,138.2v16.7h-16.7v-16.7H413.5 M413.8,137.9h-17.2v17.2h17.2V137.9L413.8,137.9z"/>
				</g>
				<g>
					<rect x="396.7" y="155.3" class="st1" width="17" height="17"/>
					<path class="st2" d="M413.5,155.4v16.7h-16.7v-16.7H413.5 M413.8,155.2h-17.2v17.2h17.2V155.2L413.8,155.2z"/>
				</g>
				<g>
					<rect x="396.7" y="172.5" class="st1" width="17" height="17"/>
					<path class="st2" d="M413.5,172.7v16.7h-16.7v-16.7H413.5 M413.8,172.4h-17.2v17.2h17.2V172.4L413.8,172.4z"/>
				</g>
				<g>
					<rect x="413.9" y="172.5" class="st1" width="17" height="17"/>
					<path class="st2" d="M430.8,172.7v16.7H414v-16.7H430.8 M431,172.4h-17.2v17.2H431V172.4L431,172.4z"/>
				</g>
				<g>
					<rect x="413.9" y="310.5" class="st1" width="17" height="17"/>
					<path class="st2" d="M430.8,310.6v16.7H414v-16.7H430.8 M431,310.3h-17.2v17.2H431V310.3L431,310.3z"/>
				</g>
				<g>
					<rect x="396.7" y="310.5" class="st1" width="17" height="17"/>
					<path class="st2" d="M413.5,310.6v16.7h-16.7v-16.7H413.5 M413.8,310.3h-17.2v17.2h17.2V310.3L413.8,310.3z"/>
				</g>
				<g>
					<rect x="396.7" y="327.7" class="st1" width="17" height="17"/>
					<path class="st2" d="M413.5,327.8v16.7h-16.7v-16.7H413.5 M413.8,327.6h-17.2v17.2h17.2V327.6L413.8,327.6z"/>
				</g>
				<g>
					<rect x="396.7" y="345" class="st1" width="17" height="17"/>
					<path class="st2" d="M413.5,345.1v16.7h-16.7v-16.7H413.5 M413.8,344.8h-17.2V362h17.2V344.8L413.8,344.8z"/>
				</g>
				<g>
					<rect x="396.7" y="362.2" class="st1" width="17" height="17"/>
					<path class="st2" d="M413.5,362.3V379h-16.7v-16.7H413.5 M413.8,362.1h-17.2v17.2h17.2V362.1L413.8,362.1z"/>
				</g>
				<g>
					<rect x="396.7" y="379.4" class="st1" width="17" height="17"/>
					<path class="st2" d="M413.5,379.6v16.7h-16.7v-16.7H413.5 M413.8,379.3h-17.2v17.2h17.2V379.3L413.8,379.3z"/>
				</g>
			</g>
			<g>
				<g>
					<rect x="431.2" y="189.8" class="st1" width="17" height="17"/>
					<path class="st2" d="M448,189.9v16.7h-16.7v-16.7H448 M448.3,189.7H431v17.2h17.2L448.3,189.7L448.3,189.7z"/>
				</g>
				<g>
					<rect x="448.4" y="207" class="st1" width="17" height="17"/>
					<path class="st2" d="M465.3,207.1v16.7h-16.7v-16.7H465.3 M465.5,206.9h-17.2v17.2h17.2V206.9L465.5,206.9z"/>
				</g>
				<g>
					<rect x="465.6" y="224.3" class="st1" width="17" height="17"/>
					<path class="st2" d="M482.5,224.4v16.7h-16.7v-16.7H482.5 M482.8,224.1h-17.2v17.2h17.2V224.1L482.8,224.1z"/>
				</g>
				<g>
					<rect x="482.9" y="241.5" class="st1" width="17" height="17"/>
					<path class="st2" d="M499.8,241.6v16.7H483v-16.7L499.8,241.6 M500,241.4h-17.2v17.2H500V241.4L500,241.4z"/>
				</g>
				<g>
					<rect x="465.6" y="258.7" class="st1" width="17" height="17"/>
					<path class="st2" d="M482.5,258.9v16.7h-16.7v-16.7H482.5 M482.8,258.6h-17.2v17.2h17.2V258.6L482.8,258.6z"/>
				</g>
				<g>
					<rect x="448.4" y="276" class="st1" width="17" height="17"/>
					<path class="st2" d="M465.3,276.1v16.7h-16.7v-16.7H465.3 M465.5,275.9h-17.2v17.2h17.2V275.9L465.5,275.9z"/>
				</g>
				<g>
					<rect x="431.2" y="293.2" class="st1" width="17" height="17"/>
					<path class="st2" d="M448,293.4v16.7h-16.7v-16.7H448 M448.3,293.1H431v17.2h17.2L448.3,293.1L448.3,293.1z"/>
				</g>
			</g>
		</g>
	</g>
	<g>
		<g>
			<rect x="224.1" y="69" class="st3" width="17.2" height="17.2"/>
			<rect x="206.9" y="86.2" class="st3" width="17.2" height="17.2"/>
			<rect x="241.4" y="51.7" class="st3" width="17.2" height="17.2"/>
			<rect x="258.6" y="69" class="st3" width="17.2" height="17.2"/>
			<rect x="275.9" y="86.2" class="st3" width="17.2" height="17.2"/>
		</g>
		<g>
			<rect x="258.7" y="413.8" class="st3" width="17.2" height="17.2"/>
			<rect x="275.9" y="396.5" class="st3" width="17.2" height="17.2"/>
			<rect x="241.4" y="431.1" class="st3" width="17.2" height="17.2"/>
			<rect x="224.2" y="413.8" class="st3" width="17.2" height="17.2"/>
			<rect x="206.9" y="396.5" class="st3" width="17.2" height="17.2"/>
		</g>
		<g>
			<rect x="68.9" y="258.6" class="st3" width="17.2" height="17.2"/>
			<rect x="86.2" y="275.9" class="st3" width="17.2" height="17.2"/>
			<rect x="51.7" y="241.4" class="st3" width="17.2" height="17.2"/>
			<rect x="68.9" y="224.1" class="st3" width="17.2" height="17.2"/>
			<rect x="86.2" y="206.9" class="st3" width="17.2" height="17.2"/>
		</g>
		<g>
			<rect x="413.9" y="224.1" class="st3" width="17.2" height="17.2"/>
			<rect x="396.6" y="206.9" class="st3" width="17.2" height="17.2"/>
			<rect x="431.1" y="241.3" class="st3" width="17.2" height="17.2"/>
			<rect x="413.9" y="258.6" class="st3" width="17.2" height="17.2"/>
			<rect x="396.6" y="275.9" class="st3" width="17.2" height="17.2"/>
		</g>
	</g>
</g>
<path class="st4" d="M275.1,161c1,0.3,2.1,0.7,3.2,1c1,0.2,1.9,0.4,2.9,0.4c1.4,0.1,2.9,0.2,4.3,0.1c1.1,0,2.2-0.2,3.4-0.3
	c0.9-0.1,1.7-0.2,2.6-0.4c1.1-0.2,2.1-0.4,3.2-0.6c1.2-0.2,2.3-0.4,3.5-0.6c0.9-0.2,1.9-0.4,2.8-0.5c1.5-0.3,2.9-0.6,4.4-0.9
	c1.2-0.2,2.4-0.5,3.6-0.8c0.6-0.1,1.2-0.3,1.7-0.4c-0.3-1.2-1.2-1.8-2.3-2.2c-1.1-0.5-2.3-0.7-3.5-0.8c-1.1,0-2.1-0.2-3.2-0.1
	c-1.2,0.1-2.3,0.2-3.5,0.4c-1,0.1-2,0.3-3,0.5c-0.9,0.1-1.8,0.3-2.6,0.4c-0.7,0.1-1.4,0.2-2,0.2c-0.9,0.1-1.7,0.2-2.6,0.1
	c-1.5-0.1-2.9-0.1-4.3-0.6c-0.8-0.3-1.5-0.5-2-1.2c-0.5-0.6-0.7-1.3-0.6-2.1c0.2-1.8,1.1-3.4,2-5c0.8-1.3,1.6-2.6,2.5-3.8
	c1.1-1.5,2.4-2.9,3.8-4.2c1.2-1.1,2.5-2.1,3.8-3.1s2.8-1.8,4.4-2.3c0.8-0.2,1.6-0.4,2.4-0.5s1.6,0,2.3,0.3c0.7,0.3,1.1,0.9,1.2,1.7
	c0,0.7-0.1,1.4-0.4,2.1c-0.3,0.9-0.5,1.7-1,2.5c-0.3,0.5-0.5,0.5-0.9,0.1s-0.8-0.8-1.3-1c-0.7-0.4-1.5-0.4-2.2-0.1
	c-1.6,0.6-3,1.4-4.4,2.4c-1.6,1.1-3.3,2.2-4.8,3.5c-1.2,1-2.3,2.2-3.4,3.3c-0.1,0.1-0.2,0.3-0.3,0.5c-0.2,0.6-0.1,1,0.5,1.2
	c0.8,0.2,1.6,0.3,2.4,0.5c0.6,0.1,1.2,0.1,1.8,0.1c1.5-0.1,2.9-0.1,4.4-0.3c1.9-0.2,3.8-0.5,5.7-0.8c1.3-0.2,2.5-0.5,3.8-0.6
	c0.9-0.1,1.9,0.1,2.9,0.1c1.1,0.1,2.2,0.4,3.2,0.8c1.2,0.6,2.3,1.4,2.9,2.7c0.7,1.3,0.7,2.7,0.6,4.1c-0.2,1.6-0.8,3.1-1.5,4.5
	c-0.3,0.6-0.7,1.3-1.3,1.7c-0.4,0.2-0.8,0.3-1.2,0.4c-1.8,0.5-3.6,1-5.4,1.5c-2.4,0.6-4.8,1.1-7.2,1.7c-1.5,0.3-3.1,0.6-4.6,0.8
	c-1.1,0.2-2.2,0.3-3.3,0.4c-1.2,0.1-2.4,0.2-3.5,0.1c-1.9-0.1-3.7-0.6-5.4-1.6c-1.3-0.8-2.4-1.9-3.2-3.1
	C275.7,162.6,275.3,161.8,275.1,161z"/>
<g>
	<g class="st5">
		<path class="st6" d="M164.7,324.4c-1.5,1.5-3.3,2.2-5.6,2.2c-0.4,0-0.7,0-1.1-0.1c-0.9-0.2-1.5-1-2-2.2c-0.2,0.4-0.4,0.9-0.6,1.3
			c-0.3,0.5-0.7,0.8-1.1,1c-0.4,0.2-0.9,0.1-1.5-0.1c-0.8-0.5-1.1-1.3-0.9-2.5c-0.7,0.2-1.2,0.5-1.6,0.8c-1.3,0.4-2.2,0.7-2.9,0.9
			c0.6,0.4,0.9,1.1,1,2c-0.4,1.3-0.8,2.1-1.3,2.4c-1.1,0.2-2-0.1-2.5-1c-0.5-0.9-0.6-1.8-0.4-2.7c-0.2-0.1-0.7-0.2-1.6-0.1l-0.2-0.2
			c-1.1,0.1-1.8,0.1-2.2,0.1c-2.7,0-4.6-0.7-5.7-2.2c-0.8-1.3-1.2-3.1-1.2-5.3c0-0.6,0.1-1.5,0.2-2.9c0.1-1.2,0.1-2.2,0-2.8
			c0-0.4,0-1.3,0-2.5c0-1.1,0-1.9-0.1-2.6l-0.5,0.4c0.4-1.1,0.8-2,1.1-2.6h0.1c0.3,1.6,0.3,4.1,0.1,7.4c-0.2,3.3-0.1,5.7,0.1,7.3
			c0.1,0.9,0.5,1.7,1.2,2.5c0.7,0.8,1.4,1.3,2.3,1.5s1.9,0.4,3.1,0.4c1.3,0,2.5-0.2,3.8-0.5c1.5-2.7,2.7-4.7,3.5-6.1
			c0.1,0.1,0.2,0.2,0.2,0.3c0,0-0.1,0.9-0.1,2.7c0,1.1-0.3,2-0.8,2.5c-0.2,0.3-0.4,0.5-0.4,0.7c2.2-0.3,4-0.8,5.2-1.7l0.1,0.1
			c-0.2,0.7-0.1,1.3,0.3,1.8c0.3,0.6,1,0.8,1.9,0.4c0.6-0.4,0.8-0.7,0.7-0.9c0.1-1,0.2-3.1,0.1-6.4l1,0c0,1.2,0.1,2.5,0.1,3.7
			c0.1,1.4,0.6,2.5,1.3,3.1c-0.2-0.4-0.3-0.9-0.3-1.5c0-0.8,0.2-1.5,0.7-2.1c0.4-0.6,1.1-0.9,2-0.9c0.2,0,0.5,0,0.9,0
			c0.4,0,0.7,0,0.9,0c0.6,0,1.2-0.1,1.6-0.4c0.1-0.1,0.2-0.3,0.4-0.6s0.4-0.5,0.6-0.6c-0.3,1.5-1,2.4-2.1,2.6
			c-0.4,0.2-1,0.3-1.9,0.2c-0.9,0-1.5,0-1.9,0.1c-0.1,0.2-0.1,0.4-0.1,0.6c0,0.7,0.4,1.4,1.1,2.1c0.4,0.4,0.9,0.6,1.5,0.6
			c0.4,0,1.2-0.2,2.4-0.7c0.7-0.5,1.3-0.9,1.7-1.2C165.3,323.3,165.1,323.8,164.7,324.4z M144.9,298.9c-0.1-0.1-0.2-0.2-0.4-0.1
			l-0.8,1.8c0.6,4.1,0.8,7.9,0.5,11.5c-0.6,1.7-1.8,3-3.6,3.9c-1,0.5-2.7,1.1-5.1,1.8v0.1c0.2,0.1,0.3,0.1,0.5,0.1
			c2-0.3,3.4-0.6,4.4-0.8c2-0.5,3.4-2.1,4.3-4.7c0.1,0.9,0.2,1.8,0.3,2.7c0.1,0.9,0.6,1.6,1.3,1.9c0.3,0.1,0.6,0.1,0.9,0.1
			c1.1,0,2.1-0.5,3-1.6c0.1,0.2,0.2,0.5,0.1,0.6c0,0.4,0.2,0.6,0.5,0.8c0.3,0.1,0.7,0.3,1,0.4c0.8,0.1,1.6-0.4,2.6-1.4
			c0.2,0.5,0.4,0.8,0.6,1c0.3,0.3,0.7,0.4,1.3,0.3c0.7,0,1.4-0.5,2.1-1.6l0.9,1.1c0.7,0.2,1.4,0.1,2.1-0.3c0.6-1.2,0.9-2.6,0.9-4.4
			c0-0.9-0.1-2.1-0.3-3.5c-0.2-1.8-0.3-2.9-0.4-3.5c0.1,0,0.1-0.1,0.2-0.2c0.1-0.1,0.1-0.2,0.2-0.2c2,2.7,3.3,5.1,3.7,7.2
			c0.3,1.3,0.2,2.7-0.3,4.3h0.1c0.6-1.2,1-2.5,1-3.8c0-2.9-1.7-6.3-5-10.2c0-0.1-0.1-0.2-0.1-0.4c0-0.2-0.1-0.3-0.2-0.3
			c-0.5,1.1-0.7,1.7-0.7,1.7c0,0.1,0,0.3,0.1,0.4c0,1.1,0,2.5,0.3,4.2c0.3,2.7,0.5,4.1,0.5,4.3c0.1,1.4,0.1,2.5-0.1,3.1
			c-0.4,0.3-0.9,0.4-1.4,0.2c-0.3-0.1-0.5-0.2-0.7-0.6s-0.3-0.6-0.5-0.9c-0.1,0.1-0.3,0.4-0.5,0.8c-0.2,0.4-0.4,0.7-0.6,0.8
			c-0.6,0.5-1.1,0.6-1.7,0.3c-0.3-0.1-0.5-0.4-0.6-0.8c-0.1-0.4-0.3-0.7-0.4-0.8c-1,1.2-1.8,1.8-2.4,1.8c-0.7-0.1-1.1-0.4-1.3-0.8
			c-0.1-0.1-0.1-0.4-0.1-0.7c0-0.3,0-0.5-0.2-0.6c-1.3,1.2-2.4,1.9-3.2,1.9c-0.3,0-0.6,0-0.8-0.1c-0.7-0.4-1.1-1.1-1.2-2
			c-0.1-1-0.2-3.4-0.4-7.2c-0.1-3-0.2-5.3-0.4-7.1C144.9,299.2,144.9,299,144.9,298.9z M136.8,301.9c-0.5-0.4-0.9-0.7-1-1.1
			l-0.3,0.7c-0.1,0.9,0,1.4,0.3,1.6c0.5,1.2,0.9,2.2,1.2,2.7l-1.4,1c-0.1,0-0.1,0-0.1,0.1c0,0.1,0,0.1,0.1,0.1
			c0.8-0.3,1.4-0.6,1.8-0.8c0.5,0.7,1.4,1.8,2.7,3c1.3,1.3,2.2,2.2,2.6,2.8c0.1,0.1,0.2,0.3,0.2,0.6c0,0.3,0.1,0.5,0.3,0.6
			c0.2-0.4,0.2-0.8,0.2-1.3c0-0.8-0.2-1.5-0.7-2c-0.2-0.3-1-1-2.3-2.3c-1-0.9-1.7-1.7-2.2-2.4l0.7-1.1c0-0.5-0.1-0.8-0.1-0.9
			c-0.2,0.2-0.3,0.4-0.2,0.6c-0.2,0.5-0.5,0.8-0.7,0.9c-0.4-0.4-0.5-0.9-0.2-1.4c0.1,0,0.2,0,0.2,0.1c0.2-0.1,0.3-0.3,0.2-0.5
			C137.9,302.8,137.5,302.5,136.8,301.9z M147.2,328c-0.5-0.7-1.3-1.2-2.3-1.4c0,0.6,0.3,1.2,0.8,1.6s1.1,0.6,1.7,0.5
			C147.4,328.6,147.3,328.4,147.2,328z M145.5,324c0.9-0.3,1.6-0.7,1.9-1.2c0.1-0.5,0.1-1.2-0.1-1.9
			C146.6,322.1,146,323.1,145.5,324z M158.6,299.6l1.3,1.7l-0.6,1.2l-2.2,0.2c-0.2,0.2-0.3,0.3-0.4,0.4l-0.3-0.3
			c-1.3,0.2-2.7,0.8-4.2,1.7c-1.2,0.9-2.5,1.8-3.8,2.6c-0.6,0.2-1.2,0-1.8-0.4c-0.4-0.6-0.6-1.2-0.6-2c0-1.9,1.1-3.6,3.2-5.3
			c0.1,0,0.2,0,0.2,0.1c-0.6,0.7-1.2,1.4-1.7,2.1c-0.7,0.9-1,1.7-1,2.5c0,0.2,0,0.4,0,0.6c0.2,0.2,0.3,0.4,0.3,0.4
			c0.5,0.4,1.1,0.6,1.7,0.4c1.1-0.7,2.3-1.5,3.4-2.2c1.4-0.9,2.6-1.4,3.7-1.7c0-0.1-0.1-0.2-0.2-0.5s-0.2-0.5-0.2-0.6
			c0-0.2,0-0.3,0.1-0.4c0.1-0.1,0.3-0.4,0.6-1c0.2-0.4,0.5-0.7,0.8-0.7C157.5,298.6,158.1,299,158.6,299.6z M152.7,328.3
			c-0.2,0-0.5,0.1-0.8,0.5c-0.3,0.4-0.5,0.6-0.6,0.6c-0.1,0-0.2-0.1-0.4-0.3c-0.2-0.2-0.3-0.3-0.5-0.4c-0.4,0.4-0.8,0.8-0.9,1
			l0.7,0.8c0.2,0,0.6-0.3,1.3-0.9c0.4,0.3,0.7,0.5,0.8,0.8c0.7-0.5,1-0.9,1-1.2L152.7,328.3z M155.7,304.9c-0.5,0.6-0.7,1.3-0.6,2.1
			c0.3,3.5,0.4,6.1,0.5,7.8c0.2,0.4,0.5,0.6,0.9,0.5c0-0.2-0.2-3.7-0.5-10.3C155.9,305,155.8,304.9,155.7,304.9z M158,301.2
			c-0.8-0.8-1.4-1.2-1.7-1.2c-0.1,0-0.2,0-0.3,0.1c-0.1,0.1-0.1,0.2-0.1,0.3c0,0.3,0.2,0.6,0.7,1.1
			C157.2,301.3,157.7,301.2,158,301.2z"/>
	</g>
	<g>
		<path class="st6" d="M316.9,165.5c0,0.1,0,0.2,0,0.3c1.2,0.2,2.4-0.7,3.3-1.1c2.4-1,4.7-1.9,7-2.9c8.3-3.6,15.5-8.6,20.4-15.6
			c1.1-1.6,2.1-3.2,2.9-5.1c0.3-0.7,0.8-1.4,1-2.2c0.3,0.1,0.6,0.6,0.8,0.9c0.6,0.7,2.6,2.6,4.1,2.2c0.7-0.2,0.7-0.8,1.4-1
			c1.2,0,2.1,3,2.5,4c1.4,3.2,2.5,6.7,3.4,10.3c0.3,1,0.2,2.5,0.5,3.6c0.1,0.1,0.1,0.1,0.2,0.2c1.4-0.1,2.1-3.1,2.5-4.4
			c1.4-4.8,1.7-10.5,3.2-15.2c0.4-1.3,1.4-4.9,3.1-4.6c1.8,0.4,2,2.5,3.4,3.2c1,0,2.1-3.3,1.8-4.8c-0.4-2.2-2.1-5.3-4.6-5.3
			c-0.5,0.3-1,0.3-1.5,0.6c-4.6,3.3-5.3,14.8-6.9,21.4c-0.3-0.4-0.9-4.9-1.1-5.8c-1.1-4.2-2.7-7.7-5-10.6c-1-1.3-2.5-2.5-4.7-2.5
			c-1.7,1.6-2.7,5.3-4,7.4c-1.7,2.9-4.9,6.2-7.5,8.2c-5.8,4.4-11.8,8.7-17.8,12.9c-1.8,1.2-3.5,2.4-5.3,3.6
			C318.9,163.9,317.6,164.5,316.9,165.5z"/>
		<path class="st6" d="M164.8,363.4c-1,0.6-1.9,1.4-2.9,2c-1.5,0.8-3.1,1.5-4.7,2.2c-2.7,1.2-5.5,2.5-8.6,3.3
			c-2.1,0.5-5.1,1-6.4-0.7c-1.4-1.8,0-4.9,0.7-6.6c0.7-1.6,1.5-3.2,2.3-4.7c1.1-2.1,2.2-4.3,3.2-6.4c0.6-1.5,1.2-3.1,1.8-4.6
			c0.6-1.6,1.4-5.2,0.4-6.9c-0.8-1.4-2.6-1.9-4.7-1.9c-0.5,0-0.9,0.1-1.4,0.1c-0.4,0.1-0.9,0.3-1.3,0.4c-0.4,0.1-0.8,0.1-1.2,0.2
			c-2.8,0.8-4.9,2.4-5.9,5.1c-0.1,0.4-0.1,0.7-0.2,1.1c-0.2,0.8-0.7,2.2-0.5,3.2c0.1,0,0.1,0.1,0.2,0.1c0.9-0.1,1.8-1.6,2.4-2.1
			c1-0.9,2.8-0.7,4.3-1.1c0.5-0.1,1-0.3,1.5-0.4c1-0.1,2.4-0.1,2.9,0.3c0.5,0.4,0.5,1.5,0.2,2.4c-0.7,1.7-1.5,3.3-2.2,5
			c-2,4.1-3.9,8-5,13.2c-0.7,3.5,0.7,7.9,2.3,9.3c1.8,1.5,5.1,1.9,7.9,1c5-1.7,9.9-4.6,12.9-8.5c0.9-1.2,1.9-2.3,2.7-3.7
			c0.3-0.5,0.8-1,0.7-1.7c0.1,0,0.1-0.1-0.1-0.1C165.7,362.8,165.1,363.2,164.8,363.4z"/>
		<path class="st6" d="M152.4,247.7c-3.3,2.5-6.9,4.8-10.2,7.3c-1.2,0.9-2.4,1.8-3.5,2.7c-0.3,0.3-1,0.6-1.2,1c0,0.1,0,0.1,0,0.2
			l0.1,0.1c0.5-0.1,1.6-0.7,2.1-1c1.2-0.6,2.5-1,3.7-1.5s2.1-0.8,3.1-1.4c1.2-0.8,2.3-1.8,3.5-2.6c4.1-2.8,6.9-5.4,8.8-10.5
			c0.7-1.9,1.1-4.2,1.5-6.3c0.2-1,0.3-2,0.5-3c0.5-2.1,1-4.1,1.7-5.9c0.3-0.7,0.5-1.4,0.9-2c1.1-1.6,2.1,0.1,2.9,0.8
			c0.4,0.3,0.9,0.7,1.3,0.1c0.2-0.3,0.2-0.6,0.3-1c0.5-2.2-0.9-4.9-2.8-5.1c-3.1,1.3-3.8,6-4.6,9.7c-0.3,1.2-0.5,2.4-0.8,3.5
			c-0.2,0.6-0.1,1.1-0.4,1.4h-0.1c-0.6-0.4-0.9-2.8-1.1-3.7c-0.8-2.7-2.2-5.2-3.9-6.9c-0.3-0.3-1.5-1.6-2.1-1.4
			c-0.9,0.2-2.4,2.8-2.6,3.8c-0.2,0.8,0.2,1.4,0.4,1.8c0.4,0.5,1.1,1.3,1.8,1.4c0.4,0.1,0.6-0.4,1-0.5c0.5-0.1,1.1,0.3,1.3,0.5
			c0.9,0.7,1.3,1.8,1.8,3.1c0.8,2,1.7,4.3,2.2,6.5c0.3,1.1,0,2.3-0.3,3.1C156.7,244.5,154.5,246.1,152.4,247.7z"/>
		<path class="st6" d="M140,287.3c0.3,0,0.6,0.1,0.9,0.1c1.4,0.3,3.3,0.3,4.7,0c0.7-0.1,1.3-0.1,2-0.2c2.7-0.7,5.1-1.8,7.4-2.9
			c1.1-0.5,4.1-2,4.6-2.9c0.3-0.5,0-2,0-2.6c-0.1-2.3-0.1-4.5-0.2-6.8c-0.1-0.8,0.1-2.5-0.3-2.7c-0.4-0.1-0.8,0.3-1.1,0.4
			c-1.1,0.4-2.1,0.9-3.1,1.3c-2.5,1.1-5.1,1.8-7.8,2.7c-1.1,0.4-3.4,1.3-5,1c-1.1-0.2-2.3-0.3-3.3-0.7c-5.4-2.2-8.2-7.3-9.5-13.9
			c-0.5-2.4-0.9-6.2-0.4-9.1c0.3-1.6,0.5-3.3,0.8-4.9c0-0.5,0.1-1,0.1-1.4c0.3-1.6,0.4-3.1,0.8-4.6c0.3-0.9,0.5-1.9,0.7-3
			c0.1-0.6,0.1-1.2,0.2-1.7c0.2-0.7,0.8-1.2,0.8-2.1c-0.1-0.1-0.2-0.2-0.2-0.2c-0.5,0.1-0.8,0.6-1.2,0.9c-0.7,0.6-1.6,1.4-2.7,1.6
			c-2.3,0.5-3.6-2.5-3.2-5.1c0.4-2.7,1.5-5.1,2.5-7.2c0.4-0.8,1.4-2.5,1.4-3.5c-0.1-0.1-0.2-0.2-0.4-0.3c-1.1,0.8-1.5,2.4-2.2,3.6
			c-0.6,1-0.9,2.2-1.4,3.3c-0.9,2.3-1.8,4.3-2.3,7.1c-0.6,3.4,1.2,8.1,4.6,6.8c0.8-0.3,1.3-0.9,1.9-1.4c0.2,0,0.2,0.1,0.3,0.2
			c0.1,0.3-0.2,0.6-0.2,0.8c0,0.4-0.1,0.8-0.1,1.2c-0.1,0.4-0.2,0.8-0.3,1.2c-0.4,2.1-0.8,4.2-1.3,6.3c-0.3,1.3-0.3,2.7-0.5,4
			c0,0.8-0.1,1.5-0.1,2.3c-0.1,1.3-0.3,2.5-0.4,3.8c0,0.9,0,1.7-0.1,2.6c0,0.5,0,1,0,1.5c0,0.4,0,0.9,0,1.3c0.1,1.1,0.3,2.3,0.4,3.4
			c0,0.5,0.1,1.1,0.1,1.6c1.5,7.7,4.3,13.5,9.7,16.9C137.6,286.6,138.7,287,140,287.3z"/>
		<path class="st6" d="M184.6,169.8c-1.6,0.8-2.5,2.6-3.4,4.1c-2,3.4-4,7.1-5.5,11c-1.1,3-0.6,5.4,1.9,6.4c1.4,0.6,2.8,0.2,3.8-0.4
			c2.3-1.3,3.6-4,4.3-7c0.2-0.9,0.3-2.4,0.1-3.5c-0.3-1.6-1.3-2.8-2-4.1c-0.3-0.5-0.6-1-0.7-1.5c-0.3-1.5,1.4-2.9,1.8-3.7
			C185.2,170.8,185.3,170,184.6,169.8z M183.7,183.1c0.2,0.3,0.8,1,0.7,1.6c-0.2,1-1.5,1.1-2.3,1.4c-0.6,0.3-1.3,0.6-2,0.8
			c-0.4,0.1-1,0.1-1.4,0c-1.1-0.3-1.5-1.6-1.2-3.1c0.4-1.7,1.2-3.7,2.5-4.4C181.3,179.5,183.1,182.1,183.7,183.1z"/>
		<path class="st6" d="M210.2,161.3c0.5,0.2,1.5-0.5,1.9-0.6c1.8-0.7,3.4-1.7,5.1-2.4c0.9-0.4,1.8-0.6,2.7-1.1
			c1-0.5,1.9-1.2,2.7-1.8c3.2-2.2,6.2-4.6,8.9-7.3c1.1-1.1,2.1-2.3,3.1-3.6c0.4-0.5,0.8-1,1.2-1.5c0.5-0.7,1-1.8,1.9-2.3
			c1.3,0.1,1.8,1.6,3,1.9c0.6,0.2,0.9-0.5,1.1-0.8c0.5-0.7,1.8-3,1.1-4.3c-0.6-1.2-2.6-1.5-3-2.8c-0.2-0.7,0.3-2.4,0.4-3.2
			c0.2-1.1,0.2-2.2,0.2-3.5c0-3-0.4-5.6-3.2-5.5c-0.5,0.2-1,0.3-1.5,0.5c-2.5,1.2-4.2,3.5-5.3,6.2c-0.4,1.1-1,3.6-0.4,5.1
			c0.6,1.5,1.4,2.6,2.7,3.4c0.6,0.4,2,0.7,2.3,1.5c0.3,0.7-0.5,1.4-0.7,1.8c-1.8,2.6-4.4,4.7-6.9,6.6c-3.7,2.8-7.5,5.5-11.1,8.4
			c-1.5,1.2-3.1,2.4-4.6,3.6c-0.4,0.3-1.5,0.9-1.7,1.3C209.9,161.1,210,161.2,210.2,161.3z M232.8,129.7c0.3-1.3,2-1.5,3.1-2
			c1.6,0,1.5,2.1,1.8,3.5c0.1,0.9,0,2.1-0.6,2.2c-0.4,0.1-0.9-0.5-1.2-0.7C235,132.4,232.5,131.1,232.8,129.7z"/>
		<path class="st6" d="M195.6,157.2c0.9,0.9,1.9,1.8,2.8,2.8c1.1,0.9,2.1,2,2.9,3.3c0.4,0.7,0.8,1.8,1,2.7c0,0.4,0.1,0.8,0.1,1.2
			c0.3,2.2-0.7,5.1-1.2,6.5c-0.7,1.9-1.6,3.6-2.3,5.4c-0.8,2.1-1.5,4-2.2,6.2c-0.5,1.5-0.9,3-1.3,4.6c-0.2,0.6-0.4,1.4,0.1,1.8
			c0.7,0,1.6-2.3,1.9-2.9c1.5-3.3,2.9-6.7,4.4-10c0.7-1.6,1.7-3,2.4-4.7c1.4-3.5,2.8-7.1,3.6-11.1c0-0.4,0.1-0.9,0.1-1.3
			c0.6-2.9,0.9-6.8-0.1-9.4c-1.1-2.8-3.3-4.2-5.3-5.9c-1.6-1.4-3.2-2.9-4.7-4.3c-0.8-0.7-1.4-1.7-1.7-2.9c-0.3-1-0.3-2.4-1.1-2.9
			c-0.1,0-0.1,0-0.2,0c-0.4,0.3-0.5,0.8-0.7,1.2c-0.7,1.2-1.3,2.3-2,3.5c-0.7,1.3-1.3,2.8-1.9,4.3c-0.2,0.7-0.4,1.5-0.6,2.2
			c-0.7,3.3,1.7,5.6,3,7C193.5,155.5,194.6,156.4,195.6,157.2z"/>
		<path class="st6" d="M142.3,213.7c1.6,0.1,3.2,0.2,4.8,0.2c0.5,0,0.9,0,1.4,0c2.1,0,4.2,0,6.3,0c0.8,0,1.5,0,2.3,0
			c0.9-0.2,1.9,0.1,2.7-0.1c1.1,0,2.1-0.1,3.2-0.1c2-0.4,4-0.3,6.1-0.7c0.7,0,1.4,0,2.1,0c0.6-0.1,1.3-0.1,1.8,0
			c1.2,0.2,2.7,0,3.8,0c1.2,0,2.8,0.1,3.7-0.3c1.4-0.6,2.3-1.9,3.4-2.8c1.3-1,2.7-2,4-3.1c2.1-1.5,4.2-3,6.2-4.6
			c0.5-0.4,1.9-1.3,1.9-2c-0.6-0.8-2.4-0.5-3.6-0.7c-1.4-0.2-4-0.1-5.4,0.1c-1.3,0-2.6,0.1-3.8,0.1c-1.2,0.1-2.3,0.1-3.5,0.2
			c-1.9,0.2-3.7,0.5-5.6,0.7c-0.6,0-1.3,0.1-1.9,0.1c-1.8,0-3.7,0.1-5.5,0.1c-1.8,0.1-3.6,0.2-5.3,0.3c-0.5,0-1,0-1.5,0
			c-0.8,0.1-1.9,0.2-2.8,0.1c-0.5,0-1,0-1.5,0c-0.7,0-1.5,0-2.2,0c-0.4,0-0.8,0-1.2,0c-0.9,0.2-2.1,0.1-3-0.1c-0.8,0-1.6,0-2.4-0.1
			c-2.1-0.3-4.6-0.2-6.4-0.7c-1-0.3-2.1-0.4-2.6-1.2c-0.7-1.3,1.5-3.2,2.2-3.7c1.4-1.2,3-2.1,4.5-3.2c1.2-0.8,2.3-1.7,3.6-2.3
			c0.9-0.4,1.8-0.7,2.8-1.2c8.1-3.7,13.9-8.6,18.2-16.5c0.9-1.7,1.4-3.7,2.2-5.5c1.1-2.8,2.8-5.2,4.4-7.6c1.2-1.8,2.4-3.9,4.7-4.5
			c1-0.2,1.8,0.7,2.2,1.2c1.4,2,1.7,4.8,2.2,7.7c0.1,0.8,0,3.5,0.4,3.7h0.1c1.6-1.4,1.6-3.3,2-5.9c0.3-1.6,0.5-3.2,0.4-5.1
			c0-0.6,0-1.2-0.1-1.8c-0.5-2.6-1.4-5-2.3-7.2c-0.8-1.9-1.6-4.1-4.2-4c-0.7,0.3-1.2,0.5-1.8,0.9c-2.3,1.6-3.4,4.6-4.8,7.2
			c-2.3,4.2-4.1,8.9-6.6,12.8c-3.3,5-8.2,8.3-13.2,11.5c-0.8,0.5-1.7,0.9-2.5,1.4c-3.1,2-6.3,3.8-9.1,6.1s-4.9,5.3-6.7,8.8
			c-1.5,3-2.4,6.1-3.1,10c0,0.7-0.1,1.3-0.1,2c0,2.5,0.4,4.1,1.4,5.6C136.2,212.1,139,213.1,142.3,213.7z"/>
		<path class="st6" d="M152.9,166.4c0.3,0.5,0.7,0.9,1.2,1.2c2.9,2,5.5-1.4,6.7-3.2c0.4-0.6,1.1-1.7,1.1-2.6
			c-0.1-0.1-0.2-0.2-0.2-0.2c-0.5,0.1-0.8,0.5-1.1,0.7c-0.8,0.5-1.5,1.1-2.7,1.3c-0.5,0.1-0.9-0.1-1.2-0.2c-1.6-0.7-2.3-2.6-1.7-4.9
			c0.6-2.3,1.4-4.4,2.5-6.3c0.3-0.7,0.6-1.3,0.9-2c0.8-1.4,2-2.8,2.5-4.3l-0.1-0.1c-0.1-0.1-0.1-0.1-0.2-0.1
			c-3.4,2.8-6.3,8.6-7.7,13.5C152.2,161.3,151.6,164.4,152.9,166.4z"/>
		<path class="st6" d="M137.6,136.1c0.5,0.1,0.7-0.4,1-0.5c0.6-0.2,1.3,0.5,1.6,0.8c1,0.8,1.3,2.4,1.8,3.7c0.6,1.7,1.4,3.6,1.9,5.4
			c0.1,0.6-0.1,1.5,0.1,2.1c0.1,0.5,0.3,1,0.4,1.6c0.1,0,0.1,0.1,0.2,0.1c0.4-0.1,0.3-0.6,0.4-1c0.3-0.9,0.5-2,0.8-2.9
			c0.5-1.7,0.6-3.6,1-5.4c0.5-2.5,1.2-4.8,2-6.9c0.1-0.3,0.2-0.7,0.4-1c0.2-0.2,0.3-0.5,0.5-0.7c1.5-1.7,2.5,1.8,3.6,1.5
			c0.6-0.3,1-1.8,0.7-2.9c-0.3-1.4-1.4-3.5-3-3.5c-3.2,2-3.4,5.8-4.6,9.9c-0.1,0.4-0.1,0.7-0.2,1.1c-0.2,0.7-0.4,1.4-0.6,2.1
			c-0.1,0.6-0.1,1.2-0.5,1.5c-0.6-0.1-1-2.9-1.2-3.6c-0.8-2.8-2.2-5.1-3.9-7c-0.5-0.6-1.4-1.8-2.5-1.2c-0.7,0.3-2,2.7-2.2,3.6
			c-0.1,0.8,0.2,1.4,0.4,1.8C136.1,135.3,137,136,137.6,136.1z"/>
		<path class="st6" d="M198.7,329.9c0.4-0.7,1.2-1.9,1.2-2.8c-0.1-0.1-0.2-0.3-0.4-0.3c-1.1,0.8-1.6,2.3-2.3,3.5
			c-0.9,1.5-1.5,3.3-2.4,4.8c-0.6,1.2-1.4,2.6-1.7,4.1c-0.5,2.4-0.6,5.1,0.6,6.9c1,1.5,2.7,1.9,4.4,0.9c1.6-0.9,3.9-4,4.4-6
			c-0.4-0.8-1.3,0.3-1.7,0.5c-1.4,1-3.5,2.1-4.8,0.1c-0.7-1.1-0.9-3-0.5-4.6C196.4,334.3,197.5,332.1,198.7,329.9z"/>
		<path class="st6" d="M272.9,256.2c0.5-1.2,0.8-2.6,1.2-3.7c0.1-0.4,0.2-0.8-0.2-0.9c-1.1,1-2.1,3.3-2.9,4.8
			c-2.8,5.1-7,15.8-2.5,21.9c1.1,1.5,3.4,2.9,5.7,1.5c2.2-1.4,3.2-3.4,4.2-6c0.3-0.8,0.9-2.2,0.8-3.4c-0.1-0.1-0.1-0.1-0.2-0.2
			c-0.3-0.1-1.8,1.9-2.1,2.2c-0.8,0.8-2.6,2.5-4.5,1.9c-1.2-0.4-2.1-1.6-2.6-2.8c-0.6-1.4-0.6-3.9-0.2-5.6
			C270.5,262.5,271.7,259.3,272.9,256.2z"/>
		<path class="st6" d="M344.4,232.2c0.3-0.7,1.3-2.4,1.3-3.1c-0.1,0-0.1-0.1-0.2-0.1h-0.1c-1.3,1.5-2.6,3.3-3.6,5.1
			c-0.5,1-0.9,2-1.4,3c-1,1.8-2,4-2.5,6.4c-0.7,3.8-0.2,8.3,2.7,9.1c0.4,0,0.9,0,1.3,0.1c2.8,0,3.9-1.9,5.1-3.6
			c0.3-0.4,1.3-1.7,1.1-2.5c-0.3-1.1-1.7,0-2.1,0.3c-2.2,1.4-4.4,1.6-5.3-1.3c-0.3-1-0.3-3.6,0-4.6
			C341.6,237.5,343.2,235,344.4,232.2z"/>
		<path class="st6" d="M363.3,243.2c-0.4,1.6-1.3,3-1.9,4.5c-0.7,1.8-1.3,3.7-1.8,5.8c-0.5,2.5-0.1,5.4,0.9,6.8
			c0.4,0.5,0.9,1.1,1.5,1.4c3.1,1.9,6.4-1.8,7.4-3.9c0.2-0.5,1.3-2.5,1.1-3.1c-0.1-0.2-0.1-0.2-0.3-0.3c-0.5,0.2-0.7,0.6-1.1,0.9
			c-0.8,0.6-1.6,1.3-2.6,1.7c-0.8,0.3-1.7,0-2.2-0.4c-1.5-1-2.1-2.2-1.8-4.6c0-0.5,0.1-1,0.1-1.4c0.7-3.7,2.4-6.7,3.8-9.8
			c0.6-1.2,1.5-3.1,1.7-4.5c0.2-1.1,0.3-3-0.1-3.9c-0.7-1.9-2.2-3-2.7-5.1c-0.4-2.1,0.8-4.7,1.3-6.1c0.1-0.3,0.2-0.6,0.4-0.9
			c-0.1-0.1-0.1-0.1-0.2-0.2h-0.1c-2.3,2.6-4,5.8-5.2,9.5c-0.4,1.2-1.1,2.8-0.7,4.5c0.5,2.6,3.2,4.1,2.7,7.5
			C363.5,242.1,363.4,242.6,363.3,243.2z"/>
		<path class="st6" d="M252.7,257.7c0.7,0.4,1.6,1.1,2.8,0.9c1.4-0.2,1.9-1.1,2.7-1.9c1.4-1.5,2.9-3.1,4.1-4.8
			c0.4-0.5,1.5-2,1.1-2.9c-0.2-0.7-1-1.1-1.5-1.5c-1.1-0.8-2.4-1.5-3.4-2.6c-0.9-0.9-1.6-2-2.4-3.1c-0.3-0.5-0.7-1.1-1.5-1.1
			c-1,0.8-1.8,1.8-2.5,2.8c-0.3,0.4-0.7,0.7-1,1.1c-1.4,1.9-3.4,4-3.9,6.6c-0.2,1.1,0.6,2.1,1,2.7
			C249.4,255.5,250.9,256.6,252.7,257.7z"/>
		<path class="st6" d="M198.9,255.9c0.6,0.3,1.3,0.8,2.3,0.6c0.9-0.2,1.6-0.9,2.2-1.5c1.6-1.3,3-3.1,4.1-4.8
			c0.3-0.5,1.5-1.9,1.3-2.6c-0.3-1.2-2.7-2.3-3.6-3c-0.4-0.4-0.7-0.7-1.1-1.1c-0.8-0.9-1.6-1.9-2.3-2.9c-0.3-0.4-0.6-1-1.2-1
			c-2.2,1.3-4.3,4.6-5.7,6.9c-0.5,0.9-1.4,1.7-1.6,2.9c-0.2,1.1,0.5,2.1,0.9,2.7C195.4,253.7,197,255,198.9,255.9z"/>
		<path class="st6" d="M311.2,208.3c0.1-0.4-0.4-0.7-0.5-1c-0.5-0.8-1.2-1.4-1.8-2.2c-0.7-0.9-1.5-1.7-2.3-2.5
			c-0.3-0.3-0.6-0.7-0.9-1c-1.3-1.1-2.4-2.4-3.5-3.7c-0.6-0.7-1.5-2.2-2.7-2.2c-1.2,0.8-1.7,3.4-2,5.2c0,0.7-0.1,1.5-0.1,2.2
			c-0.1,0.7-0.2,2.9,0,3.4s0.7,0.6,1,0.9c0.4,0.4,0.8,0.9,1.1,1.5c0.5,1.2,0.7,3,1.7,3.7c0.8,0.6,3.8-0.3,4.7-0.5
			c0.5-0.1,1.3-0.1,1.5-0.5c0.4-0.6-0.5-1.8-0.3-2.4C307.4,208.3,311,209.3,311.2,208.3z"/>
		<path class="st6" d="M373,264.6c-0.5,0-0.9-0.1-1.4-0.1c-0.6,0-1.1,0-1.7-0.1c-0.8,0-1.5-0.1-2.3-0.1c-0.8-0.1-1.4-0.3-2.1-0.5
			c-0.7-0.1-1.5,0.1-2.2,0c-1.1-0.1-2.2-0.3-3.3-0.4c-2.1-0.4-4.1-0.6-6-1c-0.7-0.1-1.5-0.1-2.2-0.2c-2.8-0.6-6-1.1-8.8-1.8
			c-0.5,0-1-0.1-1.5-0.1c-5.6-1.2-11.5-2.4-16.9-3.8c-0.4,0-0.8-0.1-1.3-0.1c-2.1-0.6-4.6-1.2-6.8-1.8c-0.8-0.2-2.3-0.2-2.7-0.9
			c0.1-0.5,0.7-0.9,0.9-1.3c0.7-1,1.2-2.2,1.8-3.3c1-1.9,1.6-4.5,2-6.8c0.2-1.2,0.1-2.7,0.1-4c0-1.1,0-2.2-0.1-3.2
			c0-0.5,0-1.1-0.1-1.6c-0.2-1.3-0.6-4.4-1.6-4.7c-0.4,0.1-0.8,0.2-1.2,0.3c-1.3,0.3-2.6,0.5-4,0.8c-0.5,0.1-1.6,0.1-1.9,0.6
			c0.1,0.7,0.9,1.8,1.3,2.3c1.1,1.6,2.1,3.3,3,5c0.3,0.6,1.4,2.2,0.9,3c-0.9,1.3-4,2.6-5.5,3.3c-2.3,1.1-4.7,2.2-7,3.2
			c-1.2,0.5-2.4,0.9-3.5,1.3c-0.3,0.1-0.6,0.1-0.8,0.2c-1.1,0.5-2.3,0.8-3.4,1.3c-0.3,0.2-0.6,0.3-0.9,0.5c-0.9,0.3-1.8,0.6-2.7,0.9
			c-1.5,0.5-3,0.5-4.1,1.4c-1.4,1.2-2.7,4.7-3.4,6.7c-0.2,0.4-0.3,2.2-0.2,2.6c0.3,0.9,1.9,1,3.2,0.8c2.6-0.5,5.5-0.1,7.7,0.4
			c2.7,0.6,5.3,1.2,7.9,1.9c0.8,0.1,1.6,0.2,2.4,0.3c1.1,0.2,2.3,0.5,3.4,0.7c0.6,0.1,1.2,0.1,1.8,0.2c3.1,0.7,6.3,1.5,9.5,2.2
			c1.5,0.3,2.8,0.4,4.3,0.8c0.9,0.2,1.8,0.6,2.6,0.8c0.7,0.2,2.2,0.4,2.5,1c0,0.1,0,0.1,0,0.2c-0.3,0.3-0.7,0.5-1.1,0.7
			c-1,0.6-2.1,1-3.2,1.5c-2.8,1.3-6.1,2.4-9.3,3.4c-1.6,0.5-3.1,0.7-4.7,1.2c-2.3,0.8-4.7,1.3-7.2,1.9c-0.8,0.2-1.7,0.6-2.5,0.8
			c-1,0.2-2,0.4-3,0.6c-0.4,0.1-0.7,0.3-1.1,0.4c-0.5,0.1-1.1,0.2-1.6,0.2c-2.4,0.7-5.2,1.2-7.7,1.8c-0.5,0-1.1,0.1-1.6,0.1
			c-1.1,0.2-2.1,0.3-3.3,0.6c-1.4,0.3-3.2,0.2-4.8,0.5c-0.8,0-1.6,0.1-2.3,0.1c-0.8,0.1-1.6,0.1-2.5,0.1c-1.4,0-2.8,0-4.1-0.2
			c-1.1-0.1-2.2-0.2-3.2-0.3c-0.8-0.2-1.9-0.5-2.7-0.7c-0.5-0.1-1.1-0.2-1.6-0.3c-5-1.7-9.1-4-12.7-7.1c-4.3-3.8-7.8-9.3-10.8-14.5
			c-0.5-1-1-1.9-1.5-2.9c-1.2-2.1-2.6-4.1-4-6c-1.8-2.4-3.6-3.9-7.1-4.5c-0.5-0.1-1.3-0.2-1.9-0.1c-6,1.1-9.7,5.4-12.8,9.7
			c-1.3,1.9-2.7,3.8-4,5.7c-1.2,1.7-2.1,3.6-3.2,5.4c-3.1,5.3-6.2,10.7-9.6,15.6c-2.6,3.7-5.7,7.1-9.9,9c-1.7,0.8-4.7,1.5-7,0.7
			c-9.8-3.2-11-13.8-11-27.4c0-3.2,0.4-5.8,0.9-8.5c0.2-2,0.5-3.9,0.7-5.9c0.2-1.1,0.2-2.5,0-3.6c-0.1-0.5,0.1-1.1-0.3-1.2h-0.1
			c-1.1,1.1-1.9,3.9-2.5,5.7c-0.6,1.9-1.1,4-1.5,6.1c0,0.4-0.1,0.8-0.1,1.2c-0.5,2.5-0.9,5.1-0.9,8.3c0,1.8,0,3.7,0,5.5
			c0,1.2,0.1,2.3,0.1,3.5c0.2,1.2,0.3,2.3,0.5,3.5c0.6,3.3,1.5,6.3,2.6,9.1c2.5,6.8,5.4,12,12.1,14.3c2.3,0.8,6.2,2.5,9.5,1.6
			c6.5-1.8,10-7.4,13.2-12.8c4-6.9,7.6-14.2,11.9-20.8c3-4.6,6.1-9.5,12.2-10.7c2.1-0.4,3.4,0.7,4.4,1.5c2.6,2.3,4,5.7,5.8,8.9
			c5.2,9.4,10.8,19.7,21.3,23.4c8.1,2.8,20.7,2,29.2,0.1c0.9-0.2,1.7-0.4,2.5-0.6c0.4,0,0.8-0.1,1.2-0.1c2.2-0.5,4.6-1.2,6.7-1.8
			c1.7-0.5,3.2-0.7,4.8-1.2c8.5-2.7,16.7-5.8,25-8.7c0.4-0.1,0.7-0.1,1.1-0.2c0.6-0.2,1.2-0.5,1.8-0.7c0.4-0.1,0.9-0.2,1.3-0.3
			c1.9-0.6,4-1.2,5.9-1.8c0.3-0.1,0.7-0.1,1-0.2c1-0.3,2.2-0.7,3.2-0.9c0.4,0,0.7-0.1,1.1-0.1c4.4-1.2,9.3-2.1,13.8-3.1
			c1-0.1,2-0.2,3-0.3c1.5,0,3,0,4.5,0c1.9,0,3.8,0.1,5.7,0.1c0.9,0.2,3.6,0.2,4.2-0.2c0.5-0.3,0.8-0.9,1.1-1.4
			c0.8-1.3,1.5-2.8,2-4.3c0.2-0.8,0.5-1.5,0.7-2.3c0.2-0.6,1.1-2.1,1-2.8C375.8,264.5,374.2,264.8,373,264.6z"/>
		<path class="st6" d="M247.6,161.2c0.4-1,0.9-1.9,1.3-2.9c0.1-0.3,0.5-0.8,0.1-1c-0.1,0-0.1,0-0.2,0c-2.5,2.2-4,5.8-5.5,9
			c-0.7,1.5-1.7,3.5-2.2,5.1c-0.7,2.8-0.8,6,0.5,8.2c1.1,1.9,3.3,2.5,5.5,1.5c1.7-0.7,3.3-3.7,4.1-5.6c0.3-0.7,0.9-1.4,0.9-2.2
			c-0.1-0.1-0.2-0.2-0.3-0.2c-0.7,0.4-1.2,1.3-1.8,1.8c-1.9,1.6-5.5,2.3-6.2-0.9c-0.4-1.6-0.1-3.7,0.3-4.9
			C245,166,246.4,163.8,247.6,161.2z"/>
		<path class="st6" d="M376.4,196.5c-0.5-1.8-1.3-3.6-2.1-5.1c-3.4-6.1-8.9-9.9-16-12.1c-0.4-0.1-0.8-0.2-1.2-0.2
			c-1.1-0.3-2.3-0.7-3.4-0.9c-1.4-0.3-2.5-0.2-3.8-0.5c-2.5-0.5-5.4-0.5-8.3-0.4c-1.6,0-3.1,0.1-4.7,0.1c-3.7,0.6-7.7,0.5-11.3,1.2
			c-0.5,0-1,0.1-1.5,0.1c-2.6,0.6-5.8,0.8-8.4,1.3c-1.1,0.1-2.3,0.2-3.4,0.4c-1.2,0.2-2.5,0.4-3.6,0.7c-1,0.1-2.1,0.2-3.1,0.3
			c-1.4,0.3-2.7,0.5-4.1,0.8c-0.7,0.1-1.4,0.1-2.1,0.2c-5.5,1.2-11.6,1.6-17.1,2.8c-0.7,0-1.4,0.1-2.1,0.1c-1.3,0.2-2.5,0.5-3.8,0.7
			c-0.7,0.1-1.4,0.1-2.1,0.2c-2,0.4-4,0.5-5.9,0.9c-1,0.1-2.1,0.1-3.1,0.2c-2.3,0.4-4.7,0.5-7,0.9c-1.7,0.3-3.4,0.1-5,0.4
			c-1.7,0.1-3.4,0.2-5.2,0.3c-1.1,0.2-2.3,0.2-3.5,0.4c-0.9,0-1.7,0-2.6,0.1c-1,0-2.1,0-3.1,0c-1.3,0-2.5,0.1-3.8,0.1
			c-1,0-2.2,0.1-3.1-0.1c-1.5,0-3-0.1-4.6-0.1c-3.8-0.7-7.4-1.3-9.8-3.3c-1.3-1.1-2-3.4-1.2-5.6c0.9-2.4,2.1-3.7,3.5-5.5
			c0.6-0.8,1.3-1.7,2-2.3c3-2.6,5.7-5.5,8.7-8.1c0.6-0.6,1.2-1.2,1.7-1.8c1.2-1.2,2.4-2.3,3.6-3.5c2.8-2.4,5.8-4.6,8.8-6.9
			c3.5-2.8,6.5-6,10.9-7.9c5.2-2.2,13.8-0.4,17.9-3.8c2.1-1.7,3-4.7,1.3-7.6c-1.5-2.6-4.5-4.6-8.4-4.6c-0.5,0.1-1,0.1-1.5,0.2
			c-1.4,0.4-2.7,0.9-3.9,1.4c-6,2.9-11.1,7.4-16.2,11.4c-11.3,8.7-21.6,18.2-29.4,30.8c-1.8,3-3.6,7-4.6,10.8c-0.3,1-0.3,1.8-0.5,3
			c-0.4,2.3-0.5,5.3,0.1,7.4c0.9,3.3,3.1,5.7,5.9,7.1c3.8,1.8,8.7,2.3,14.3,2.3c2.1,0,4.3,0.2,6.3-0.1c1.1,0,2.3-0.1,3.4-0.1
			c0.9-0.1,1.9,0,2.8-0.1c2.4-0.4,5-0.4,7.2-0.8c0.6,0,1.3-0.1,1.9-0.1c0.9-0.2,1.9-0.2,2.7-0.3c1.3-0.3,2.6-0.3,3.8-0.5
			c0.8,0,1.5-0.1,2.3-0.1c4.1-0.8,8.6-1,12.6-1.8c1.1-0.1,2.2-0.2,3.2-0.3c1.5-0.3,3.3-0.5,4.8-0.8c0.9-0.1,1.8-0.1,2.7-0.2
			c1.3-0.3,2.7-0.5,4.1-0.7c1.1-0.2,2-0.1,3-0.3c5.9-1.1,12.3-1.6,18.2-2.7c1-0.1,1.9-0.1,2.9-0.2c3.6-0.8,7.9-1.1,11.5-1.8
			c0.9-0.1,1.8-0.1,2.7-0.2c1.2-0.2,2.5-0.4,3.7-0.6c0.8-0.1,1.5-0.2,2.3-0.2c1.5-0.1,3-0.2,4.6-0.3c1-0.2,2.2-0.1,3.3-0.3
			c0.6,0,1.2,0,1.7,0c0.6,0,1.2,0,1.8,0c1.7,0.1,3.2,0,4.6,0.3c1.4,0.1,2.8,0.3,4.2,0.4c3.8,0.9,7.2,1.9,10.1,3.7
			c1.7,1.1,3.2,2.4,4.4,4c0.5,0.6,1.1,1.7,0.9,2.9c-0.8,4.1-6.7,4.6-10.8,5.3c-1,0.2-2,0.3-3,0.5c-1.1,0-2.2,0.1-3.3,0.1
			c-1.7,0.3-3.2,0.2-4.9,0.5c-1,0.2-2.2,0.3-3.3,0.5c-0.5,0-0.9,0.1-1.4,0.1c-4.5,1-9.1,1.6-13.5,2.7c-0.7,0.1-1.5,0.2-2.2,0.3
			c-5.1,1.1-10.7,1.7-15.8,2.7c-0.9,0.1-1.7,0.2-2.6,0.3c-1.4,0.3-2.9,0.5-4.2,0.8c-0.7,0.1-1.5,0.2-2.2,0.2
			c-2.9,0.7-6.3,1.1-9.2,1.7c-0.7,0.1-1.3,0.1-2,0.2c-10.1,2.2-20.8,3.6-30.9,5.8c-0.8,0.1-1.7,0.2-2.5,0.3
			c-5.3,1.2-11.2,1.6-16.8,2.7c-0.6,0-1.2,0.1-1.8,0.1c-1.8,0.2-3.6,0.3-5.5,0.5c-0.9,0.1-1.8,0-2.6,0.1c-1,0-1.9,0.1-2.9,0.1
			c-0.5,0-1.1,0-1.6,0c-0.4,0-0.8,0-1.2,0c-0.8-0.1-1.5-0.1-2.3-0.2c-0.8,0-1.7-0.1-2.5-0.1c-2-0.4-4-0.6-5.7-1.2
			c-0.4-0.1-0.7-0.2-1.1-0.2c-4-1.8-7-4.2-8.7-8.5c-0.5-1.3-0.8-2.8-1.1-4.3c-0.1-0.8-0.3-1.6-0.4-2.5c-0.1-1.3-0.1-2.6-0.2-3.8
			c-0.2-1.3-0.3-2.7-0.3-4.2c-0.3-0.4-1.5-0.5-2.2-0.3c-0.8,0.3-1.4,1-2,1.5c-0.4,0.3-0.8,0.6-1.2,0.8c-3,2.2-6.2,4.3-9.2,6.5
			c-1.2,0.9-2.9,1.8-3.8,3c-0.4,0.7-0.9,1.4-1.3,2.1c-0.8,1.4-1.5,3.2-1.9,4.9c-0.1,0.5-0.1,0.9-0.2,1.4c-0.3,1.4-0.7,3.5-0.4,5.2
			c0.8,3.5,2.4,6.4,3.9,9.2c1.1,2,1.8,4.3,2.9,6.3c0.3,0.5,1.1,1.8,0.9,2.6c-0.4,1.5-3.2,4.4-4.3,5.3c-1.1,1-2.1,2.1-3.3,3.1
			c-0.4,0.4-0.7,0.8-1.1,1.1c-1.9,1.6-3.7,3.4-5.6,5c-0.8,0.6-1.5,1.2-2.3,1.9c-1,0.8-2.5,1.4-3.2,2.6c-0.4,0.8-0.2,1.9-0.2,3
			c0,2.2,0.2,6.7,1.5,7.3c0.8-0.1,1.9-1.2,2.4-1.7c1.4-1.1,2.6-2.3,3.9-3.5c0.7-0.7,1.3-1.4,2-2.1c0.6-0.6,1.2-1.2,1.8-1.8
			c0.7-0.6,1.4-1.3,2-2.1c0.3-0.3,0.6-0.6,0.9-1c0.7-0.8,1.4-1.6,2.1-2.4c0.8-0.9,1.6-1.8,2.4-2.7c0.8-1,1.4-2.1,2.1-3.3
			c0.3-0.4,0.5-0.8,0.8-1.2c0.6-1.5,0.7-3.1,1.1-4.7c0.6-2.4,1-5.1,1.4-7.8c0.2-1.4-0.3-2.7-0.5-3.7c-0.8-3.1-1.9-5.6-3.2-8.2
			c-0.4-0.9-0.8-1.9-1.2-2.9c-0.1-0.2-0.4-0.6-0.4-1c0.1-0.5,2-1.6,2.5-2c1.9-1.3,3.7-2.7,5.6-4c0.5-0.4,2.1-1.9,2.7-2
			c0.9,0.5,0.6,2.4,0.9,3.5c0.1,0.4,0.2,0.9,0.3,1.3c0,0.5,0.1,1,0.1,1.5c0.5,2.3,1.1,4.5,1.9,6.5c2.5,6.5,8.9,10.2,16,11.8
			c0.6,0.1,1.2,0.1,1.8,0.2c5.4,1.2,13.5,1,19-0.1c0.8,0,1.6-0.1,2.3-0.1c1.1-0.2,2.5-0.5,3.6-0.7c1.3-0.3,2.5-0.3,3.8-0.5
			c5.5-1.3,11.3-2.1,16.8-3.5c1.2-0.3,2.4-0.3,3.5-0.6c4.1-1,8.5-1.6,12.6-2.5c0.4,0,0.8-0.1,1.2-0.1c6.8-1.5,14.3-2.3,21.2-3.8
			c0.9-0.1,1.8-0.1,2.7-0.2c3.5-0.7,7.4-1.1,10.9-1.8c0.6-0.1,1.3-0.1,1.9-0.2c3.2-0.7,6.9-1,10.1-1.8c0.7-0.1,1.4-0.1,2-0.2
			c2-0.4,4.3-0.7,6.3-1.2c0.4,0,0.8-0.1,1.2-0.1c0.6-0.2,1.1-0.3,1.7-0.5c0.6-0.1,1.2-0.1,1.8-0.2c2.9-0.6,6.1-1.2,9.1-1.8
			c0.7,0,1.4-0.1,2.1-0.1c1.3-0.2,2.7-0.5,4-0.7c0.7-0.1,1.3-0.2,2-0.2c6-1.3,11-2.3,15-5.8c0.6-0.5,1-1.2,1.4-1.9
			c1.3-2.2,2.1-4.2,2.5-7.4c0.8-2.5,0.4-4.9,0.1-6.2C376.8,198.2,376.7,197.3,376.4,196.5z"/>
		<path class="st6" d="M228.9,221.2c1.6-0.7,3.2-1,4.8-1.5c1.8-0.6,3.5-1.2,5.3-1.8c1.6-0.6,3.3-1.3,4.9-1.9c2.7-0.9,5.3-1.4,8-2.3
			c2.7-0.9,5.3-1.9,7.9-2.7c3.8-1.3,7.8-2.1,11.4-3.7c2.1-1,4.8-1.7,7.1-2.3c0.3,0,0.7-0.1,1-0.1c0.6-0.1,1.2-0.4,1.7-0.7
			c0.6-0.4,1.3-1,1.5-1.7c0.3-1.2-0.9-1.5-1.9-1.5c-1.4,0.4-2.7,0.7-4.1,1.1c-1.7,0.5-3.5,1.2-5.2,1.7c-0.8,0.2-1.6,0.5-2.4,0.7
			c-2.2,0.8-4.6,1.5-6.9,2.3c-0.5,0.1-0.9,0.2-1.4,0.3c-2.1,0.7-4.2,1.2-6.3,1.9c-1,0.3-2.2,0.7-3.3,1.1c-0.6,0.2-1.3,0.5-1.9,0.7
			c-4,1.2-8.1,2.1-11.9,3.5c-2.1,0.8-4.1,1.7-6.2,2.4c-1.6,0.5-3,0.6-4,1.6c-0.4,0.4-1.6,2-1.3,3C226,222.2,228.3,221.4,228.9,221.2
			z"/>
		<path class="st6" d="M278.8,331.6c-0.8-0.8-2.2-3.9-3.2-4c-0.4,0.2-0.8,0.2-1.2,0.4c-1.7,1.1-2.9,3-4,4.8
			c-0.8,1.2-1.8,2.7-2.2,4.3c-0.3,1.4,0.4,2.2,1.1,2.7c0.6,0.6,1.3,1.3,1.9,1.9c0.8,0.7,1.6,1.2,2.4,1.8c0.5,0.3,1.6,1.1,2.3,1
			c0.9-0.2,1.5-0.9,2.1-1.4c1.6-1.4,3-3.3,4.2-5.2c0.3-0.5,1.6-2,1.3-2.8C282.9,333.4,280,332.8,278.8,331.6z"/>
		<path class="st6" d="M363.8,354.6c-1.8,0.9-3,3.4-3.7,5.7c-0.4,1.3-0.5,2.8-0.9,4.1c-0.3,1.2-0.5,2.4-0.8,3.6
			c-0.1,0.5-0.1,1.1-0.5,1.2h-0.1c-0.7-0.7-0.9-3.2-1.3-4.3c-0.9-2.5-2-4-3.4-5.9c-0.3-0.4-1.6-1.7-2.1-1.8c-0.5-0.1-1,0.4-1.2,0.7
			c-0.6,0.9-2.1,3-1.5,4.4c0.3,0.7,1.2,1.7,2.1,1.8c0.4,0.1,0.7-0.4,1-0.5c0.7-0.2,1.9,1.1,2.1,1.5c0.9,1.5,1.3,3.3,1.9,5.1
			c0.4,1.1,1,2.3,1.2,3.6c0.2,1-0.1,3.5,0.7,3.6c0.6-0.8,0.7-2.6,1.1-3.7c1-3.7,1.1-8.2,2.6-11.4c0.4-0.8,1.1-3.5,2.1-3.2
			c1.1,0.2,1.6,1.5,2.5,2c0.9,0,1.2-1.8,1-2.9C366.4,356.6,365.4,354.6,363.8,354.6z"/>
		<path class="st6" d="M351,324.7c-0.4-0.9-1.3-0.7-2.4-0.9c-1.2-0.2-2.3-0.3-3.5-0.6c-0.8-0.2-1.7-0.2-2.6-0.4
			c-1.4-0.3-2.8-0.6-4.2-0.8c-0.6-0.1-1.3-0.1-1.9-0.2c-2.6-0.6-5.7-1.2-8.3-1.8c-0.5,0-1-0.1-1.5-0.1c-1-0.2-2.2-0.5-3.2-0.8
			c-0.6-0.1-1.2-0.2-1.8-0.3c-0.9-0.2-1.9-0.5-2.8-0.7c-0.5-0.1-1.1-0.1-1.6-0.2c-2.2-0.6-4.8-1.2-7-1.8c-0.4,0-0.8-0.1-1.2-0.1
			c-1-0.3-2-0.5-2.9-0.8c-0.9-0.2-1.8-0.4-2.7-0.6c-1.2-0.3-2.5-0.9-3.7-1.2c-1.9-0.5-3.8-0.8-5.7-1.3c-0.9-0.3-1.8-0.3-2.7-0.6
			c-1.4-0.5-2.8-1-4.3-1.4c-0.6-0.1-1.3-0.2-1.9-0.3c-0.9-0.2-2-0.5-3-0.7c-0.6-0.1-1.3-0.2-1.9-0.3c-1.5-0.4-4.1-1-5.9-0.7
			c-0.5,0-0.9,0-1.4,0c-2,0.4-4,0.6-5.8,1.2c-2.8,0.9-5.3,2.4-7.3,4.1c-0.7,0.6-1.4,1.1-1.9,1.8c-0.6,0.8-1.3,1.6-1.9,2.4
			c-1,1.5-1.8,3.4-2.4,5.3c-0.3,0.9-0.4,1.9-0.6,2.9c-0.8,3.8-0.6,9.1,0,13c0,0.4,0,0.7,0.1,1.1c0.3,1.6,0.6,3.1,0.9,4.6
			c0.2,1.1,0.3,2.3,0.5,3.3c0.1,0.8,0.5,2.7-0.1,3c-1.6-0.7-2.9-2.3-4.2-3.5c-2.6-2.2-4-4.9-5.5-8.2c-0.5-1.1-1.1-2.2-1.5-3.3
			c-0.1-0.3-0.1-0.7-0.2-1c-0.3-1-0.6-1.9-0.9-2.9c-0.5-1.2-0.9-2.3-1.4-3.5c-0.9-2.4-1.4-4.9-2.1-7.4c-0.3-1.7-0.7-3.3-1-5
			c0-0.5-0.1-1.1-0.1-1.6c-0.2-1.1-0.5-2.3-0.7-3.4c-0.1-0.7-0.2-1.3-0.3-2c-1.7-7.2-3.3-14.3-5.6-20.7c-2-5.4-3.9-10.7-6.5-15.4
			c-0.6-1-1.7-3.8-3-3.9c-1.1,1-1,3-1.4,4.8c-0.3,1.4-0.6,2.8-0.9,4.2c-0.7,2.4-1.5,5.3-0.4,7.9c0.9,2.3,2.2,4.5,3.2,6.9
			c2.9,7.3,5.5,14.8,8.1,22.5c0.9,2.7,1.6,5.5,2.3,8.5c0.3,1.3,0.8,2.9,0.6,4.5c-0.7,4.2-3.1,6.5-5.1,9.3c-1.9,2.6-4.5,5-7,7
			c-2.1,1.7-4.3,3.5-6.4,5.1c-2.2,1.7-4.6,3.1-7,4.6c-5,3.2-10.1,5.6-16.9,6.8c-0.7,0-1.4,0.1-2.1,0.1c-2.8,0.5-6.1,0-7.9-1.2
			c-2.1-1.4-3.6-5.5-2.9-9.5c0.8-4.6,2.1-8.4,3.6-12.1c0.6-1.5,1.2-3.1,1.7-4.8c0.2-0.6,0.4-1.6-0.2-1.8c-0.5-0.2-1.4,0.9-1.6,1.2
			c-0.8,1-2.6,3.4-4.5,3c-2.7-0.5-4.8-2.4-4.2-6.3c0-0.6,0.1-1.3,0.1-1.9c0.1-0.8,0.4-1.7,0.7-2.4c0.4-1.4,0.6-2.6,1.1-3.9
			c0.6-1.6,1.3-3.3,1.9-4.9c0.4-1,0.6-2,1-3c0.1-0.4,0.4-0.7,0.4-1.3c-0.1,0-0.1-0.1-0.2-0.1c-0.4-0.1-0.8,0.9-1,1.2
			c-0.4,0.5-0.8,1.1-1.2,1.6c-0.4,0.7-0.8,1.4-1.2,2.1c-2,3.6-3.5,7.8-4.2,12.8c0,0.6,0,1.2,0,1.8c0,0.7,0,1.4,0,2.1
			c0,1.1,0,2.2,0.1,3.2c0.2,1,0.5,2,0.8,2.9c0.5,1.3,1.6,2.1,3,2.3c0.9,0.2,3.8-0.3,4.1,0.4c0.2,0.6-0.2,2.5-0.4,3
			c-0.6,2.3-0.8,4.6-1.3,7c-0.2,1.1-0.1,2.2-0.3,3.4c-0.3,1.9,0,4.3,0.3,6c0.1,0.6,0.1,1.2,0.2,1.8c0.9,3.8,2.2,7.6,4.7,9.7
			c1.3,1.1,2.6,2.2,4.5,2.8c1.3,0.4,3.5,0.3,4.9-0.1c0.6-0.1,1.1-0.2,1.7-0.3c2.1-0.6,4.3-1.5,6.1-2.5c6.3-3.5,12-7.8,17.4-12.3
			c1.2-1.1,2.4-2.2,3.5-3.3c1.2-1,2.2-2.4,3.2-3.6c1.2-1.3,2.6-2.6,3.7-4c0.7-0.8,1.5-1.6,2.2-2.4c1.9-2.6,3.7-5.2,5-8.5
			c0.3-0.7,1-3.5,1.6-3.6c1.3,0.8,1.1,2.9,1.5,4.6c0.6,3.1,1.3,5.7,2.6,8c1.5,2.7,2.9,5.5,4.7,8c0.7,1,1.6,1.8,2.5,2.6
			c0.6,0.7,1.2,1.3,1.8,2c0.7,0.5,1.4,1,2,1.5c0.8,0.6,1.6,1.3,2.5,1.9c1.1,0.7,2.8,1.5,4.1,2c0.9,0.3,2.1,0.3,2.7,0.8
			c1,0.8,0.9,2.8,1.3,4.3c0.2,0.7,0.2,1.6,0.8,1.8c0.6,0.2,1-0.5,1.2-0.8c0.7-1.1,0.5-3.8,1.7-4.4c0.6-0.3,1.5-0.1,2.3-0.2
			c0.7-0.1,1.4-0.2,2.1-0.4c0.5,0,0.9-0.1,1.4-0.1c0.5-0.2,1-0.4,1.5-0.5c1.1-0.2,2.2-0.4,3.3-0.5c2.4-0.6,5-1.6,7.2-2.6
			c3.6-1.7,7.3-3.1,10.9-4.8c2.6-1.3,5.3-2.7,7.9-4c1.1-0.7,2.4-1.4,3.6-2c2.5-1.2,5-2.3,7.5-3.5c4.5-2.1,8.7-4.7,13.3-6.9
			c1.2-0.6,2.5-1.3,3.8-1.8c2.9-1.1,6-1.8,9.4-2.4c1.6-0.2,3.3-0.4,4.9-0.6c0.8-0.1,1.8,0.2,2.5-0.1c0.7-0.3,1.3-2.4,1.7-3.2
			c0.9-2.3,1.9-4.7,2.8-7C350.2,326.8,351,325.4,351,324.7z M314.6,335.9c-0.5,0.2-1.1,0.5-1.6,0.7c-0.3,0.1-0.6,0.2-0.9,0.2
			c-2.2,0.9-4.4,2-6.6,3c-1.7,0.7-3.3,1.7-5,2.4c-2,0.9-4.2,1.6-6.3,2.5c-1.5,0.8-2.9,1.5-4.4,2.3c-1.6,0.7-3.1,1.1-4.8,1.8
			c-2.8,1.2-5.9,2.2-9,2.8c-3.3,0.7-9.1,2.6-12.4,1.1c-1.4-0.7-1.6-2.2-2.1-3.7c-0.6-1.7-1.2-3.4-1.8-5.1c-0.4-1-0.8-2.1-1.2-3.1
			c-0.2-0.6-0.4-1.3-0.6-1.9c-0.8-1.9-1.6-4.1-2-6.4c-0.3-1.5,1-3.3,1.6-4.1c1.6-2.3,5.4-4.3,8.2-5.3c0.8-0.2,1.7-0.4,2.5-0.6
			c0.5-0.1,0.9-0.1,1.4-0.2c6,0,11.3,1.2,16.3,2.4c0.6,0.1,1.2,0.2,1.8,0.3c2.2,0.6,4.7,1.2,6.9,1.8c0.4,0.1,0.8,0.1,1.2,0.2
			c3.9,1,7.9,2.2,11.6,3.5c2.5,0.9,5.3,1.6,7.9,2.3c0.7,0.1,2.6,0.4,2.4,1.2C317.5,334.9,315.5,335.5,314.6,335.9z"/>
		<path class="st6" d="M231.7,370.8c-2.3,1-4.5,0.8-5.4-1.5c-0.4-0.9-0.3-2.9,0.1-3.8c0.3-0.5,0.5-1,0.8-1.5
			c0.9-1.6,1.7-3.2,2.7-4.7c0.4-0.5,0.8-0.9,1.1-1.4c0.5-0.7,1.2-1.4,1.6-2.2c0.1-0.3,0.4-0.8,0.1-1h-0.1c-3.7,3.1-6.7,6.9-8.6,12
			c-0.7,1.9-1.9,4.4-0.7,6.5c0.5,1,1.6,1.8,2.8,2.1c0.5,0,1,0.1,1.4,0.1c0.4,0.1,1,0.1,1.4-0.1c1.3-0.4,2.8-1.8,3.5-2.8
			c0.5-0.6,1.3-1.4,1.4-2.4c-0.1-0.1-0.2-0.2-0.2-0.2C233.4,369.9,232.1,370.7,231.7,370.8z"/>
		<path class="st6" d="M322.9,370.8c-2.3,1-4.4-0.1-4.9-2.3c-0.2-1-0.1-2.2,0.2-3c0.6-1.5,1.4-2.8,2.2-4.1c0.6-1.1,1.1-2.2,1.9-3.1
			c0.5-0.6,2.6-2.7,2.4-3.7c-0.1-0.1-0.1-0.1-0.3-0.1c-1,0.7-1.8,1.6-2.7,2.5c-2.6,2.8-4.5,5.7-6,9.7c-0.5,1.4-1.7,4.3-0.7,6.2
			c0.6,1.1,3.2,3.1,5.3,2.4c1.8-0.5,3.4-2.1,4.4-3.5c0.4-0.5,0.9-1.1,1-1.8c-0.1-0.1-0.1-0.2-0.2-0.3
			C325.3,369.7,323.2,370.6,322.9,370.8z"/>
		<path class="st6" d="M362.9,303.3c-0.7-0.5-1.5-1-2.2-1.5c-1-0.8-2-1.9-2.7-3c-0.4-0.6-1.3-2.1-2.1-2.1c-1.8,1.3-3.2,3.2-4.5,5.1
			c-0.3,0.5-1.2,2.2-1.8,2.2c-0.7-0.7-1.5-1.3-2.3-1.8c-0.7-0.5-1.5-0.9-2-1.6c-0.7-0.9-1.5-1.8-2.1-2.8c-0.3-0.4-0.6-0.9-1-1.1
			c-0.7-0.2-2,1.3-2.3,1.6c-1.5,1.9-2.9,3.8-4.2,6c-0.4,0.6-1.3,1.5-1.1,2.6c0.5,3,3,4.8,5.2,6c0.9,0.5,2.1,1.2,3.2,0.6
			c1.5-0.9,3-2.4,4-3.8c0.3-0.4,1.3-1.9,1.7-2.1c0.3,0.2,0.9,1.7,1.2,2.1c1,1.3,2.4,2.3,3.8,3.1c0.4,0.3,2,1.1,2.6,1
			c1.3-0.3,2.2-1.3,3-2.1c1.4-1.4,2.5-2.8,3.7-4.5c0.4-0.6,0.9-1.2,1.2-1.9C364.4,304.4,363.3,303.6,362.9,303.3z"/>
		<path class="st6" d="M342.6,288.4c-0.5,0.1-1,0.2-1.4,0.3c-1.1,0.4-2.4,1-3.4,1.3c-1.8,0.6-3.7,1-5.4,1.6c-2.9,1.1-6,2.3-9,3.3
			c-1.4,0.5-2.7,0.8-4.1,1.2c-3.5,1.1-7.2,2.6-10.6,3.8c-1.5,0.5-3,0.8-4.6,1.3c-1,0.3-1.8,0.5-2.9,0.8c-0.8,0.3-1.6,0.6-2.4,0.9
			c-1.1,0.4-2.2,0.5-3,1.1c-0.6,0.5-1,1.3-1.4,2c-0.3,0.5-1.2,2.7-0.9,3.5c0.3,1,2.2,0.4,3,0.1c1.3-0.5,2.7-1.1,4.1-1.7
			c0.4-0.1,0.7-0.2,1.1-0.2c1.3-0.4,2.6-0.9,3.9-1.4c1.8-0.7,3.8-1.3,5.7-2c2.6-0.9,5.1-1.8,7.8-2.6c3.4-1.3,6.7-2.5,10.1-3.8
			c3.1-1,6.4-2,9.5-3c0.6-0.2,1.2-0.5,1.8-0.7c1.5-0.6,2-0.6,2.6-2.2c0.2-0.5,0.3-1.1,0.5-1.6C343.7,289.6,344.3,288.5,342.6,288.4z
			"/>
		<path class="st6" d="M210.9,298.2c0.4-0.6,1.1-1.9,1.1-2.8c-0.1-0.1-0.1-0.1-0.2-0.2c-0.1,0-0.1,0-0.2,0c-1,0.9-1.6,2.4-2.3,3.6
			c-0.8,1.5-1.7,3.1-2.3,4.7c-0.6,1.4-1.3,2.6-1.7,4.2c-0.5,2.2-0.5,5.3,0.6,6.8c0.3,0.4,0.7,0.9,1.2,1.1c0.6,0.4,1.9,0.5,2.6,0.1
			c1.7-0.7,2.9-2.4,3.9-4c0.4-0.5,1.2-1.8,1.2-2.5c-0.1-0.1-0.1-0.2-0.3-0.3c-0.4-0.1-0.8,0.5-1.1,0.7c-0.7,0.5-2.1,1.7-3.4,1.4
			c-1.8-0.3-2.8-2.6-2.3-4.9C208.1,303.1,209.5,300.6,210.9,298.2z"/>
		<path class="st6" d="M361.3,328.6c0.4-0.5,0.7-0.9,1.1-1.4c0.3-0.3,0.6-0.6,0.9-1c0.5-0.7,1-1.4,1.5-2.2c0.2-0.3,0.7-0.7,0.7-1.1
			c-0.1-0.1-0.1-0.2-0.3-0.2c-2.4,2.3-4.7,4.7-6.5,7.7c-1.1,1.7-1.8,3.6-2.7,5.5c-1.2,2.6-1.5,6.2,0,8.8c0.7,1.2,2.6,2.3,4.4,1.5
			c1.9-0.8,3.4-2.4,4.4-4.1c0.3-0.5,0.8-1.2,0.9-2c-0.1-0.1-0.2-0.2-0.2-0.3c-1.3,0.2-1.7,1.6-3,1.8c-0.9,0.2-1.6-0.2-2.1-0.4
			c-0.3-0.1-0.7-0.3-1-0.4c-1.4-1-1.6-3.5-1-5.7c-0.1-1,0.5-1.9,1-2.8C360,331.1,360.6,329.8,361.3,328.6z"/>
		<path class="st6" d="M277.7,168.5c1-0.1,2-0.1,3-0.2c1.9-0.1,3.7,0.3,5.3,1.5c0.8,0.7,0.9,2.1,0,2.6c-3.8,2.1-7.5,4.1-11.3,6.1
			c-1.1,0.6-1.8,1-0.7,2c0.6,0.7,2.3-0.2,2.6-0.2c7.4-1,12.9-4.8,16.5-11.4c0.8-1.5,0.6-2.8-0.2-4.2c-1.1-2-2.9-2.9-4.9-3.6
			l-3.4-1.2c-0.8-0.2-1-1.2-0.4-1.7c1.6-1.6,3.3-3.2,5.1-4.7c5.2-4.2,11.2-7.1,17-10.4s11.5-6.7,16.2-11.6c0.9-0.9,1.7-1.7,2.5-2.6
			c0-0.4,0.3-0.8,0-1.1c-0.3-0.3-0.7,0-1.1,0c-1.6,1.2-3.1,2.6-4.8,3.6c-6.5,3.9-13,7.7-19.5,11.6c-5.9,3.6-11.7,7.3-16.6,12.1
			c-2.1,2.1-3.9,4.4-5.4,6.9c-0.8,1.5-0.9,3.5-1.2,5.3C276.3,168.1,276.7,168.6,277.7,168.5z"/>
	</g>
</g>
</svg>
