<?xml version="1.0" encoding="UTF-8" standalone="no"?>
<!DOCTYPE svg  PUBLIC '-//W3C//DTD SVG 20010904//EN'  'http://www.w3.org/TR/2001/REC-SVG-20010904/DTD/svg10.dtd'>
<svg xmlns="http://www.w3.org/2000/svg" height="500pt" width="500pt" version="1.0" preserveAspectRatio="xMidYMid meet" viewBox="0 0 500.000000 500.000000">
 <metadata>Created by potrace 1.11, written by Peter Selinger 2001-2013</metadata>
 <g transform="translate(0 500) scale(0.1 -0.1)">
  <path d="m2400 4915v-85h-85-85v-85-85h-85-85v-85-85h-85-85v-85-85h-85-85v-90-90h-430-430v-430-430h-91-90l3-85 3-85h-87-88v-85-85h-85-85v-85-85h-85-85v-85-85h-85-85v-100-100h85 85v-85-85h85 85v-85-85h85 85v-85-85h85 85v-85-85h90 90v-430-430h430 430v-90-90h85 85v-85-85h85 85v-85-85h85 85v-85-85h85 85v-85-85h101 101l-3 85-4 85h88 87v85 85h85 85v85 85h85 85v85 85h85 85v90 90h430 430v430 430h90 90v85 85h85 85v85 85h85 85v85 85h85 85v85 85h85 85v100 100h-85-85v85 85h-85-85v85 85h-85-85v85 85h-87-88l3 85 3 85h-90-91v430 430h-430-430v90 90h-85-85v85 85h-85-85v85 85h-85-85v85 85h-87-88l4 85 3 85h-101-101v-85zm-40-1140c8-10 11-32 7-64-5-43-3-51 15-63s19-17 9-36c-10-18-15-20-30-10-15 9-24 4-61-36-55-59-120-106-192-139-32-14-58-25-58-23s46 35 103 74c114 78 181 141 158 150-7 2-22 13-33 24-27 27-17 74 22 111 35 31 43 33 60 12zm-932-65c3-21 2-22-12-11-13 11-19 11-31 1-8-7-15-20-16-29 0-9-3-11-5-4-3 6 2 26 11 43 19 37 48 37 53 0zm1296-1c34-27 35-72 3-93-12-9-60-20-105-25-47-5-94-16-110-26-80-52-218-164-305-247-92-87-98-96-95-128 2-29 9-38 43-55 35-17 58-20 185-19 180 2 295 13 653 66 243 36 306 42 457 42 201 1 248-9 320-71 53-46 79-102 80-171 0-69-20-105-72-131-46-22-270-62-703-126-132-19-337-53-455-75-355-66-475-69-587-14-62 30-90 71-106 154-6 33-15 60-19 60-16 0-118-75-118-86 0-7 11-36 25-66 28-60 30-81 14-161-9-42-22-69-53-104-51-60-162-163-176-163-5 0-10 21-10 48v47l96 80c53 43 101 89 106 100 8 18 1 38-32 105-36 72-42 90-38 131 3 26 12 59 22 73 13 21 185 146 199 146 3 0 8-27 11-61 9-77 20-107 54-142 74-78 224-75 762 12 625 101 742 120 810 126 188 17 231 58 137 128-92 70-224 69-757-1-477-63-612-76-721-70-146 9-197 50-186 153 14 139 157 307 414 488 138 97 205 117 257 76zm-1404-68c0-11 6-26 14-34 10-10 12-24 7-48l-7-34-7 35c-10 51-43 100-67 100-23 0-27 29-7 49 10 10 17 6 40-19 15-16 27-39 27-49zm37-13c-3-8-6-5-6 6-1 11 2 17 5 13 3-3 4-12 1-19zm577-57c75-62 86-78 86-123 0-25-7-69-16-99-15-51-109-249-119-249-5 0 15 56 49 137 14 34 26 79 26 100 0 34-7 44-66 100-76 70-80 86-43 164l23 50 14-27c8-15 28-39 46-53zm-162-41c20-39 25-154 8-180-7-11-10-8-10 16 0 67-29 111-64 98-20-8-69-80-104-155-40-83-89-129-196-180-103-49-167-101-148-121 15-15 257-18 487-5l140 8-30-25c-16-14-54-43-83-64l-53-39-184-8c-235-9-293 1-315 56-10 22-10 40-1 75 27 108 67 153 211 237 115 67 145 97 205 207 26 47 54 93 63 103 24 27 54 17 74-23zm876-67c6-79 9-88 27-88 12 0 20 7 20 17 0 9 4 20 8 24s7-2 7-14c0-20-24-52-38-52-22 1-30 25-35 113-7 122 2 122 11 0zm432-70c5-13 18-23 29-23 15 0 19 7 17 32-1 24 5 35 23 44 24 12 51 9 51-6 0-4-10-5-22-3-13 2-29-1-37-6-24-15 5-41 48-42 33-1 31-2-24-18-51-15-63-16-82-4-13 7-23 9-23 4 0-14-30-22-49-12-10 6-23 6-31 1-18-11-40 6-40 31s-4 24-33-5c-46-46-177-45-177 1 0 15 2 15 13-1 19-26 116-18 155 11 25 20 27 25 24 89-5 90 5 78 18-21 11-88 21-106 49-88 13 8 22 8 29 1 6-6 18-8 27-4 13 5 15 20 11 98l-5 93 9-75c5-41 14-85 20-97zm401-10c14-16 55-17 65-2 4 8 9 7 15-2 6-11 11-11 20-2s16 9 25 2c8-7 14-7 19 0 4 7 13 6 26-2 16-10 21-9 29 3 5 8 10 10 10 4 0-17-24-34-37-26-7 4-43 5-80 1-78-7-100 1-109 37-7 26-7 25-28-13-26-46-64-67-97-54-22 9-21 10 13 10 63 1 108 79 96 164-3 18-3 39 1 47 3 8 9-23 13-69 5-46 13-90 19-98zm207 100c-2-71-2-73-5-20-3 47-7 58-19 53-10-4-13-2-8 7 10 18 26 37 30 37 2 0 3-35 2-77zm45-28c4-71 3-85-3-50-8 51-13 162-6 154 2-2 6-49 9-104zm-2258 45c-35-55-42-101-20-120 13-11 21-11 36-2 31 19 34 14 9-13-16-17-33-25-50-23-30 4-36 29-21 85 10 37 61 126 69 119 2-2-8-23-23-46zm1897-1c15-19 30-50 33-69 5-32 4-33-4-7-13 38-30 57-45 51-7-3-18 7-24 21-26 57-5 59 40 4zm-58-19c5-5-9-17-30-27l-39-18 4-95c4-117-4-116-13 1-5 76-4 88 14 107 12 12 16 23 10 27s-8 11-4 16c6 10 42 3 58-11zm285-4c-2-2-15-9-29-15-24-11-24-11-6 3 16 13 49 24 35 12zm-1171-113c-32-66-33-105-2-117 9-4 27 1 40 9 29 19 30 12 3-26-36-51-89-31-89 33 0 24 67 174 75 167 2-3-10-32-27-66zm-670-77c-8-20-7-32 6-60 21-44 20-54-4-93-15-25-27-33-49-33-17 0-33 5-36 11-13 20 5 74 45 137 40 64 58 81 38 38zm967-7c-8-11-55-12-55-1 0 5 14 9 30 10 17 0 28-4 25-9zm305 3c0-5-14-9-30-10-17 0-28 4-25 9 8 11 55 12 55 1zm94-354c-3-4-12-8-20-8s-14-6-14-14c0-15-45-30-60-21-6 4-10 12-10 19 0 8-7 19-16 27-12 10-14 23-9 58 4 25 9 50 12 54 3 5 32-17 64-49 32-31 56-61 53-66zm-299 53c-6-5-26-14-45-19-29-8-221-66-518-157-39-12-43-12-40 3 3 18-5 15 323 112 215 64 303 83 280 61zm-1681-212c-31-60-34-87-15-111 18-22 19-22 47-3 18 11 25 13 18 4-14-18-34-142-34-211 0-65 35-146 74-172 45-29 85-29 165-2 41 14 78 26 83 26 4 0 8-26 8-59v-59l-52-22c-221-95-339 62-283 375 8 44 15 81 15 83s-8-1-17-7c-29-16-53 5-53 46 0 33 48 158 57 149 3-2-3-19-13-37zm436-2c0-16-3-18-12-9-19 19-28 15-44-20-14-32-15-32-9-4 3 15 13 39 22 52 12 19 19 22 29 13 8-6 14-21 14-32zm2150-1c-6-18-4-33 11-60 10-20 19-41 19-47s-16-47-36-91c-25-55-34-87-30-104 8-31 30-40 62-25 20 9 24 8 18-1-26-46-66-62-92-36-18 18-14 77 8 127 24 51 25 79 6 116-15 29-11 58 18 113 19 38 29 42 16 8zm-2270-37c11-21 20-45 20-54 0-8 5-15 11-15 16 0 2-67-21-106-23-36-87-83-152-112-27-11-48-19-48-18 0 2 43 31 95 66 124 80 134 101 95 188-13 30-25 42-40 42-25 0-37 25-20 45s38 8 60-36zm1755-69c8-57 0-99-27-153-11-22-17-41-15-44 17-17 376-84 552-104 61-6 111-13 113-14 2-2-6-25-18-53l-21-50-122-5c-136-5-268-35-505-111-252-82-412-113-537-103-138 10-215 65-312 222-68 111-90 135-120 135-64 0-114-52-223-232-120-198-162-232-258-208-76 18-120 53-152 122-54 115-62 270-20 398 17 52 18 53 19 20 0-19-4-65-8-102-12-90 2-208 30-258 32-56 96-87 148-71 61 18 107 67 219 235 118 176 158 216 224 223 58 7 81-13 163-136 35-54 80-112 100-130 84-73 204-108 335-97 96 9 328 59 444 97 90 30 115 43 104 55-12 11-392 84-440 84-54 0-57 7-29 59 16 29 29 37 112 65 117 40 219 86 219 98 0 5-13 29-30 53-32 46-29 53 22 54 24 1 27-3 33-49zm-1708 18c-3-8-6-5-6 6-1 11 2 17 5 13 3-3 4-12 1-19zm1967-42c-35-77-16-134 36-106 29 15 32 12 15-14-9-13-25-26-36-29-61-16-74 45-31 138 17 36 33 65 36 65s-6-24-20-54zm-1489-73l44-36-20-29c-32-44-64-62-88-49-30 17-51 41-51 59 0 16 55 92 66 92 3 0 25-17 49-37zm594-14l44-40-19-26c-11-15-32-35-46-46-24-18-27-18-56-3s-52 43-52 64c0 11 69 92 78 92 4-1 27-19 51-41zm135-128c-38-94-40-113-11-147l25-29 31 23c35 26 37 23 16-18-22-43-50-55-80-36-46 30-42 114 11 218 13 27 26 48 28 48s-7-27-20-59zm-506-178c44-84 86-210 120-364 43-191 84-292 143-354 26-27 51-46 55-42s2 36-4 71c-28 150-8 245 63 303 77 64 168 67 382 14 143-35 453-97 536-107 32-4 59-10 61-13s-9-33-24-67l-28-61-63-6c-79-7-102-16-319-117-239-112-362-161-445-175-56-9-71-15-73-31-7-34-19-36-25-4-5 21-15 33-34 40-112 41-198 140-224 258-6 29-15 52-19 52-5 0-18-21-29-46-45-100-272-296-401-345-76-29-116-25-155 14-43 43-59 102-52 192 4 39 9 80 13 93 5 18 2 22-18 22-64 0-83 68-49 177 11 37 30 79 41 93 17 22 17 17-6-39-41-102-33-171 19-171 11 0 32 10 45 23 29 26 29 23-7-76-12-32-24-78-28-102-5-40-3-47 25-74 23-24 39-31 69-31 88 0 209 50 328 135 116 83 185 164 185 219 0 38-50 184-111 328-45 105-49 121-41 155 6 21 13 50 16 66 4 15 10 27 15 27 4 0 22-26 39-57zm1282-141c0-18-27-40-60-50-19-6-134-42-254-81-121-39-221-69-224-66-3 2 2 15 10 27 12 17 69 40 254 99 240 77 274 86 274 71zm-1455-112c-29-57-31-82-9-101 12-10 20-10 35-1 29 18 34 14 13-9-31-34-51-41-68-23-9 8-16 25-16 37 0 23 55 147 65 147 3 0-6-22-20-50zm1460 17c8-13 27-30 40-37 24-13 27-12 56 23l31 38 41-38c23-20 43-40 45-44s-11-23-29-43c-39-45-71-47-108-7l-26 28-27-28c-14-16-35-29-45-29-27 0-73 37-73 59 0 19 57 101 71 101 5 0 15-11 24-23zm-2255-29c0-7 11-26 24-43 20-25 26-28 40-16 9 7 16 21 16 30 0 12 2 13 8 3 5-7 16-10 25-6 20 7 22 20 5 27-8 4-9 6-2 6 6 1 17-6 24-14 11-13 8-17-19-26-18-6-31-18-31-27 0-14-2-14-9-3-11 17-25-4-15-21 6-10 5-10-7-1-11 9-18 8-33-3-19-13-36-11-36 6 0 5 7 7 15 4 29-12 35 7 12 39-34 46-40 57-28 57 6 0 11-6 11-12zm188-88c0-16-3-11-9 15-4 22-8 51-7 65 0 16 3 11 9-15 4-22 8-51 7-65zm112 58c16-22 30-46 30-52s-9 4-20 22-27 35-35 38c-14 6-22 34-10 34 3 0 18-19 35-42zm-172-98c10 0 23 5 30 12 9 9 12 9 12-1 0-7 6-11 14-8 10 4 16-6 20-31 7-45 25-74 33-54 4 10 8 10 19 1s21-9 40 0c14 6 23 7 19 1-3-5-22-14-42-19-45-13-68 3-77 54-7 37-28 50-56 35-22-12-50 11-49 38 0 12 3 11 9-5 5-13 18-23 28-23zm-151 8c-3-8-6-5-6 6-1 11 2 17 5 13 3-3 4-12 1-19zm289 0c5-8 2-9-9-5-9 3-19 2-22-4-4-5-11-6-18-2s-4 9 9 14c27 11 32 10 40-3zm-186-2c0-2-8-10-17-17-16-13-17-12-4 4s21 21 21 13zm203-53c-7-2-19-2-25 0-7 3-2 5 12 5s19-2 13-5zm-264-54c13 0 13-2 2-6-14-6-42 22-40 41 0 6 5 1 11-11 6-13 18-23 27-24zm99 13c23 3 28 1 25-12-5-17-29-20-52-6-8 5-16 4-21-4s-9-5-13 9c-6 25 2 34 19 20 8-6 27-9 42-7zm67-11c-6-5-25 10-25 20 0 5 6 4 14-3s12-15 11-17zm2278-13c-33-36-63-91-63-115 0-12 10-29 22-37 12-9 18-16 14-16-5 0-18 8-29 17-18 17-19 17-16-7 5-33 35-37 66-8l26 23-12-22c-14-28-56-40-76-23-32 27-9 108 50 179 15 17 29 31 33 31 3 0-4-10-15-22zm-2323-22c0-11-19-15-25-6-3 5 1 10 9 10 9 0 16-2 16-4zm525-42c-29-54-32-86-10-104 12-10 20-9 41 5 24 16 25 16 15-3-16-30-38-44-63-40-41 6-35 72 14 156 29 48 31 39 3-14zm-516-83c21-14 6-71-45-168-55-103-56-136-5-141 37-4 135 28 189 60 48 29 39 6-19-46-34-30-69-51-104-61-68-20-100-9-114 40-12 43-1 86 45 178 19 37 32 72 29 77-10 16-78 12-103-6-27-19-31-1-6 34 26 37 98 55 133 33zm868-192c-62-72-57-126 11-115 33 5 34 5 17-14-38-41-95-32-95 16 0 40 69 154 93 154 5 0-7-18-26-41zm1007 19c-71-81-69-149 3-135l28 5-27-23c-28-24-58-24-78 0-17 20 7 88 47 135 19 22 37 40 41 40 3 0-3-10-14-22zm474-8c3-20 1-23-9-12-24 22-38 13-53-35-8-27-15-39-15-28s8 39 19 63c22 49 53 55 58 12zm-145-8c9-10 24-36 33-57 9-22 20-42 24-45 5-3 5-21 0-40-4-19-8-27-9-17-2 39-43 117-62 117-23 0-32 15-24 40s17 25 38 2z"/>
  <path d="m2293 3724c-4-11 1-22 12-30 36-27 55-12 39 30-8 21-43 21-51 0z"/>
  <path d="m1695 3188c-7-18-11-36-9-40 8-12 48-9 68 5 16 12 16 14-4 40-28 35-38 34-55-5z"/>
  <path d="m2624 1761c-48-22-84-57-84-83 0-27 69-201 83-210 20-13 70-9 153 12 102 26 448 170 436 182s-243 73-370 98-166 25-218 1zm199-106c16-9 16-13-9-47-35-50-57-55-100-26-40 27-41 39-13 84 31 51 48 57 79 25 14-14 33-30 43-36z"/>
 </g>
</svg>
