<?xml version="1.0" standalone="no"?>
<!DOCTYPE svg PUBLIC "-//W3C//DTD SVG 20010904//EN"
 "http://www.w3.org/TR/2001/REC-SVG-20010904/DTD/svg10.dtd">
<svg version="1.0" xmlns="http://www.w3.org/2000/svg"
 width="500.000000pt" height="500.000000pt" viewBox="0 0 500.000000 500.000000"
 preserveAspectRatio="xMidYMid meet">
<metadata>
Created by potrace 1.11, written by Peter Selinger 2001-2013
</metadata>
<g transform="translate(0.000000,500.000000) scale(0.100000,-0.100000)"
fill="#000000" stroke="none">
<path d="M2450 4712 l-35 -3 0 -81 0 -80 -79 -2 -80 -1 0 -80 -1 -80 -82 -3
-82 -3 -3 -82 -3 -82 -77 -3 c-66 -2 -78 -6 -78 -20 0 -9 -1 -80 -3 -157 l-2
-140 -405 -1 c-246 0 -410 3 -417 9 -7 5 -13 6 -13 1 -1 -5 0 -196 0 -424 l1
-416 -88 -1 c-49 0 -121 -1 -160 -2 l-73 -1 0 -79 0 -79 -37 -5 c-21 -3 -57
-4 -81 -3 -46 2 -49 -3 -43 -83 1 -19 0 -45 -4 -59 -6 -23 -8 -24 -74 -19 -38
3 -73 2 -79 -2 -6 -4 -12 -40 -14 -81 l-3 -75 -80 -5 -80 -5 0 -70 0 -70 80
-5 80 -5 5 -80 5 -80 70 0 c97 -1 99 -3 92 -91 l-5 -74 84 0 84 0 0 -85 0 -85
160 0 160 0 0 -415 0 -415 418 -2 417 -3 2 -85 c1 -47 2 -118 2 -157 l1 -73
80 0 79 0 3 -82 3 -83 70 -2 c39 -1 75 -2 81 -2 7 -1 11 -28 10 -78 l-1 -77
72 1 c49 0 76 -4 84 -13 6 -8 9 -42 7 -84 l-3 -70 50 -1 c58 -1 88 1 95 8 3 2
5 37 5 76 l1 72 74 7 c41 3 78 4 82 2 5 -3 8 31 8 74 0 59 4 81 14 85 8 3 46
4 85 1 l71 -4 0 84 0 85 82 3 83 3 0 152 c0 83 3 154 6 157 3 3 191 6 417 6
l412 1 2 415 3 416 155 1 155 2 3 83 3 82 84 0 85 0 0 83 0 82 66 -2 c95 -3
95 -2 93 77 -1 37 1 72 5 79 4 6 35 11 74 11 70 0 89 6 86 28 -1 6 -2 37 -3
67 l-1 55 -78 0 -79 0 -2 72 c-1 40 -7 78 -12 84 -6 8 -33 10 -79 7 l-69 -5
-3 83 -3 83 -80 1 -80 0 -3 83 -3 82 -72 1 c-40 1 -111 1 -159 1 l-88 -2 0
419 0 419 -241 -4 c-173 -3 -245 -1 -255 7 -11 9 -14 9 -14 -1 0 -9 -39 -11
-157 -8 l-158 3 -2 135 c-4 191 2 179 -91 182 l-77 3 -5 80 -5 80 -80 5 -80 5
-3 82 -3 82 -82 3 -82 3 0 72 c0 39 -2 73 -5 76 -8 7 -73 13 -110 9z m124
-338 c3 -9 6 -45 6 -80 0 -50 3 -64 15 -64 8 0 15 -4 15 -10 0 -5 7 -10 15
-10 8 0 15 5 15 10 0 13 67 13 75 0 4 -6 10 -8 15 -5 5 3 10 -29 12 -72 l3
-78 60 -3 c106 -4 103 -2 101 -79 -1 -38 -5 -74 -9 -81 -9 -13 -94 -17 -134
-6 -20 6 -22 13 -25 83 l-3 76 -70 3 c-38 2 -74 7 -79 12 -5 5 -10 38 -11 72
-1 35 -3 67 -4 71 0 4 -36 7 -78 5 l-78 -3 -5 -75 -5 -75 -75 -5 -75 -5 -3
-75 c-2 -44 -8 -78 -15 -82 -7 -4 -40 -8 -75 -8 -58 0 -63 2 -72 26 -6 14 -10
50 -10 80 0 59 16 77 51 56 13 -8 20 -8 25 -1 3 6 19 9 34 6 46 -10 59 9 62
93 l3 75 75 5 75 5 3 65 c1 36 4 71 7 78 3 8 28 12 79 12 58 0 75 -3 80 -16z
m-216 -646 c7 -7 12 -37 12 -68 0 -85 17 -90 110 -29 77 51 164 89 203 89 36
0 67 -28 67 -60 0 -47 -29 -110 -51 -110 -10 0 -19 4 -19 10 0 43 -129 -6
-260 -99 -96 -68 -303 -273 -299 -296 10 -47 185 -65 399 -41 211 24 360 43
485 61 198 29 265 37 415 49 14 1 59 -4 100 -11 187 -32 282 -135 264 -288 -6
-48 -12 -60 -39 -80 -28 -22 -163 -64 -205 -65 -43 -1 -88 -22 -100 -48 -24
-51 -30 -93 -13 -99 8 -3 19 -1 26 6 17 17 27 13 27 -9 0 -27 -43 -70 -69 -70
-13 0 -27 12 -36 31 -15 29 -15 34 9 97 14 36 25 67 23 68 -1 1 -55 -7 -119
-18 l-118 -21 8 -26 c15 -53 6 -147 -17 -186 -12 -21 -18 -41 -14 -45 10 -8
232 -54 354 -73 l87 -13 6 44 c3 24 13 65 23 91 15 45 15 50 0 90 -13 31 -15
47 -7 61 6 11 8 20 6 20 -11 0 30 64 43 68 10 3 12 -2 7 -22 -4 -16 -1 -38 9
-56 21 -40 19 -60 -10 -125 -34 -79 -41 -121 -20 -129 9 -3 27 -3 41 0 18 5
24 2 24 -9 0 -9 -4 -19 -10 -22 -16 -10 -11 -26 8 -24 68 7 76 -8 42 -85 l-21
-46 -67 0 c-73 0 -214 -22 -302 -46 -46 -13 -379 -114 -474 -144 -67 -21 -232
-34 -299 -23 -125 21 -170 59 -282 238 -58 93 -65 100 -98 103 -30 3 -41 -3
-76 -40 -23 -23 -60 -74 -82 -113 -23 -38 -65 -106 -95 -150 -33 -50 -49 -84
-43 -89 17 -18 9 -104 -16 -174 -14 -38 -25 -79 -25 -91 0 -27 26 -38 51 -23
25 16 29 15 29 -4 0 -32 -40 -84 -65 -84 -58 0 -70 79 -29 201 35 105 28 121
-40 93 -17 -6 -18 -4 -12 19 6 25 4 27 -29 27 -41 0 -101 28 -131 62 -29 31
-61 95 -75 152 l-11 46 -27 -19 c-37 -26 -118 -51 -164 -51 -44 0 -97 28 -120
64 -27 41 -57 148 -57 204 0 63 18 178 32 205 7 13 5 17 -11 17 -28 0 -51 38
-51 85 0 52 26 134 51 160 19 19 19 19 19 -2 0 -11 -7 -37 -15 -56 -19 -47
-19 -91 0 -107 12 -10 19 -10 27 -2 15 15 38 15 38 1 0 -6 -6 -25 -14 -42 -14
-32 -19 -57 -32 -168 -8 -71 14 -144 57 -185 43 -41 102 -39 194 7 l69 34 13
63 c15 73 32 114 52 120 11 4 12 -7 7 -54 -4 -33 -10 -68 -13 -78 -7 -24 63
24 150 105 l61 56 -42 87 c-45 94 -49 119 -28 179 l14 38 -57 -3 c-41 -2 -55
-7 -53 -17 4 -20 -19 -42 -38 -36 -20 6 -29 -11 -36 -70 -7 -58 -50 -140 -92
-175 -60 -50 -175 -99 -187 -80 -8 13 6 24 168 133 26 17 50 42 53 54 8 30
-23 91 -55 106 -20 10 -26 20 -25 44 l2 30 -65 6 c-93 7 -117 27 -121 101 -2
46 3 68 27 119 33 70 72 106 174 162 103 57 150 104 195 198 67 138 119 168
159 89 22 -45 25 -186 4 -226 -12 -21 -11 -30 3 -61 14 -29 15 -42 7 -67 -17
-47 -40 -68 -76 -68 -35 0 -55 15 -55 41 0 20 43 110 72 152 23 32 18 97 -9
119 -13 10 -20 7 -43 -22 -16 -19 -43 -63 -60 -96 -47 -95 -86 -131 -206 -198
-66 -37 -110 -68 -112 -79 -3 -17 8 -18 205 -14 114 2 243 7 285 11 58 5 80 3
90 -7 8 -8 25 -14 38 -13 23 1 25 -2 26 -50 3 -105 43 -165 124 -183 64 -15
110 -14 110 2 0 16 18 24 240 110 209 81 258 99 265 98 3 -1 18 5 35 14 39 20
50 19 50 -5 0 -26 -27 -42 -130 -80 -100 -37 -363 -141 -369 -146 -11 -10 182
18 389 56 63 12 152 27 198 34 45 7 85 16 89 20 4 3 -3 20 -15 36 -24 32 -27
58 -12 109 l9 34 -47 -7 c-26 -4 -114 -16 -197 -27 -82 -11 -179 -24 -215 -29
-36 -5 -126 -9 -200 -9 -184 0 -242 22 -256 97 -13 67 41 202 116 292 l37 45
-66 -32 c-36 -18 -71 -37 -77 -42 -6 -5 -33 -59 -60 -120 -35 -79 -54 -110
-66 -111 -10 0 -18 2 -18 3 0 13 46 139 61 169 35 68 27 98 -40 160 -33 30
-63 67 -67 82 -7 31 16 101 47 141 23 28 40 26 32 -5 -4 -16 10 -36 62 -85
l67 -65 -4 -59 c-3 -41 -1 -58 6 -54 45 27 166 117 189 140 l27 29 -25 22
c-40 35 -31 94 23 139 31 26 43 28 60 11z m-873 -32 c13 -19 14 -29 5 -45 -12
-24 -21 -26 -37 -10 -19 19 -31 1 -42 -66 -23 -133 -48 -151 -74 -55 -15 52
-21 62 -51 74 -44 18 -50 30 -34 66 23 54 72 36 104 -38 14 -33 17 -35 24 -17
5 11 9 30 9 41 1 29 38 74 61 74 11 0 27 -11 35 -24z m2111 -122 l19 -35 5 33
c7 46 31 47 51 1 12 -27 14 -46 8 -68 -5 -16 -9 -59 -9 -94 0 -69 -17 -133
-35 -128 -5 2 -13 39 -17 83 -4 43 -7 84 -8 89 -1 6 1 23 3 40 4 27 4 28 -9
10 -9 -12 -14 -46 -14 -96 0 -69 -3 -81 -26 -108 -14 -17 -29 -29 -33 -26 -5
2 -23 0 -42 -5 -28 -8 -36 -7 -46 7 -11 14 -18 15 -51 5 -50 -15 -85 -15 -100
0 -9 9 -16 8 -30 -5 -25 -23 -53 -21 -59 3 -5 17 -12 19 -72 14 -72 -6 -122
-21 -134 -40 -11 -19 -94 -29 -113 -14 -10 9 -12 16 -4 24 17 17 11 27 -11 16
-11 -7 -44 -13 -72 -15 -29 -2 -52 -4 -52 -5 0 -8 -105 -8 -110 0 -10 16 15
52 33 47 30 -6 72 21 72 48 0 13 5 27 11 31 8 5 10 37 7 100 -5 98 0 121 26
111 13 -5 16 -22 16 -82 0 -60 3 -75 15 -75 28 0 39 -44 22 -80 -16 -30 -16
-31 6 -24 67 21 65 17 56 82 -5 33 -13 79 -18 103 -7 28 -6 49 1 62 18 35 37
-2 54 -113 23 -143 20 -135 49 -116 22 15 25 15 34 -1 19 -34 23 -3 13 99 -9
99 -4 148 17 148 11 0 18 -31 26 -125 8 -92 15 -125 26 -125 5 0 9 11 9 24 0
13 9 34 19 47 27 33 54 17 77 -46 16 -43 16 15 0 69 -27 92 -19 128 20 89 15
-16 16 -15 10 13 -3 16 -2 35 3 43 15 24 39 -4 47 -55 7 -47 18 -57 27 -23 9
33 32 17 29 -19 -4 -37 4 -39 71 -16 55 19 62 35 12 27 -33 -5 -35 -4 -35 23
0 23 7 32 30 43 34 15 60 9 60 -13 0 -9 6 -13 14 -10 8 3 17 1 21 -5 9 -16 25
-14 19 2 -7 20 13 67 29 67 8 0 22 -16 33 -36z m-2046 -68 c0 -8 -5 -18 -10
-21 -13 -8 -42 -73 -46 -102 -3 -27 13 -40 29 -24 17 17 37 13 37 -8 0 -21
-46 -71 -66 -71 -20 0 -54 37 -54 59 0 29 28 102 56 144 24 37 54 50 54 23z
m930 -83 c0 -5 -14 -35 -30 -67 -33 -65 -37 -88 -16 -105 10 -9 16 -8 26 4 17
20 40 19 40 -2 0 -10 -9 -33 -20 -50 -16 -27 -26 -33 -54 -33 -56 0 -72 41
-50 127 15 58 66 133 90 133 8 0 14 -3 14 -7z m-1414 -519 c29 -5 29 -6 27
-77 -1 -40 -2 -75 -3 -80 0 -4 -12 -7 -27 -7 -140 1 -142 0 -136 -83 6 -76 2
-81 -76 -78 -78 2 -82 -2 -79 -90 l3 -74 73 -3 c60 -2 72 -6 73 -20 3 -60 9
-118 13 -129 4 -9 27 -13 80 -13 85 0 83 2 78 -102 l-4 -68 -73 0 c-46 0 -76
5 -82 13 -5 6 -9 37 -8 68 4 80 0 84 -89 80 l-76 -3 0 81 c0 95 -4 99 -97 94
l-63 -3 0 80 c0 44 3 80 8 81 4 0 34 2 68 3 33 1 66 6 72 10 8 4 12 35 12 80
l0 74 76 4 c52 2 78 8 84 18 5 8 10 43 10 77 0 56 2 62 23 66 36 7 82 7 113 1z
m2999 -76 c0 -68 2 -74 25 -85 15 -7 39 -9 60 -4 20 4 45 2 57 -4 20 -9 23
-18 23 -72 0 -93 0 -93 86 -93 l74 0 -1 -75 c-1 -62 -5 -77 -20 -85 -11 -6
-20 -6 -23 -1 -4 5 -26 9 -50 9 -39 0 -46 -3 -56 -28 -6 -15 -12 -51 -13 -79
-3 -63 -12 -71 -94 -71 l-63 0 -2 -47 c-1 -27 -2 -61 -2 -78 l-1 -30 -81 -3
c-78 -3 -82 -2 -88 20 -8 32 -7 121 2 135 4 7 38 13 82 15 l75 3 3 45 c1 25 5
60 7 78 l6 32 70 0 c64 0 70 2 79 24 11 29 6 124 -7 137 -5 5 -40 10 -78 11
l-69 3 -3 65 c-2 36 -5 71 -8 78 -3 8 -28 12 -75 12 -66 0 -71 1 -80 26 -6 14
-7 50 -4 80 l7 54 81 0 81 0 0 -72z m-1858 -530 c43 -74 92 -212 122 -344 55
-241 93 -345 145 -393 14 -14 28 -22 30 -20 3 3 1 22 -4 44 -24 104 -2 227 50
283 68 71 148 90 271 64 80 -18 87 -18 96 -3 6 10 30 23 54 30 24 7 71 23 104
36 207 80 340 125 352 121 9 -4 11 -14 7 -30 -5 -21 0 -29 28 -46 l33 -20 35
40 c19 22 39 40 44 40 4 0 23 -12 41 -27 17 -16 40 -33 51 -39 16 -9 17 -15 7
-36 -6 -14 -26 -42 -43 -62 -36 -40 -51 -41 -104 -3 l-29 20 -26 -31 c-31 -38
-56 -40 -102 -9 -36 24 -48 59 -28 83 6 8 10 17 7 19 -6 6 -338 -117 -338
-125 0 -12 308 -81 399 -89 51 -5 97 -13 102 -18 7 -7 1 -33 -18 -79 l-29 -69
-70 -7 c-76 -8 -95 -15 -384 -156 -158 -76 -306 -132 -353 -132 -28 0 -41 -9
-56 -37 -16 -31 -30 -29 -37 6 -5 24 -17 35 -60 56 -86 42 -147 122 -188 249
-6 16 -10 13 -27 -22 -62 -124 -351 -342 -453 -342 -52 0 -78 18 -113 78 -22
38 -28 59 -28 112 0 36 3 81 8 101 7 34 5 37 -18 43 -40 10 -58 48 -53 114 5
64 53 182 74 182 18 0 18 -5 -7 -77 -11 -34 -19 -77 -17 -95 2 -27 8 -34 30
-36 19 -2 31 3 40 17 12 20 38 29 38 15 0 -4 -13 -49 -30 -101 -34 -106 -37
-139 -13 -165 24 -27 122 -24 195 6 121 50 319 210 334 272 7 28 -10 120 -31
169 -7 17 -17 41 -20 55 -7 24 -50 128 -82 196 -12 28 -12 41 0 102 22 104 32
114 64 60z m-772 -262 c19 8 29 -14 15 -31 -7 -8 -9 -15 -4 -15 14 1 44 26 44
38 0 5 7 13 16 16 34 13 114 -82 114 -135 0 -31 -24 -58 -34 -37 -5 10 -7 10
-12 1 -3 -7 -14 -13 -25 -13 -10 0 -19 -4 -19 -10 0 -6 9 -6 26 0 29 11 48 4
40 -15 -2 -7 0 -17 5 -22 5 -5 4 -16 -4 -27 -17 -23 -122 -33 -134 -13 -5 8
-9 3 -13 -13 -8 -32 -44 -39 -60 -11 -7 14 -21 21 -38 21 -52 0 -62 17 -65
108 -2 51 1 88 7 95 6 7 11 19 11 27 0 27 39 17 55 -15 l15 -30 3 35 c4 41 21
65 35 51 5 -5 15 -7 22 -5z m609 -68 c-6 -65 6 -89 36 -70 29 18 33 15 25 -15
-15 -63 -67 -81 -93 -33 -14 27 -11 96 7 143 17 44 30 31 25 -25z m1621 -138
c3 -5 -10 -34 -28 -63 -46 -71 -53 -95 -31 -104 9 -3 26 -1 37 6 30 19 42 0
23 -37 -24 -47 -86 -60 -114 -24 -20 25 -1 129 27 152 3 3 19 22 34 43 29 38
41 45 52 27z m-2225 -195 c18 -22 4 -78 -41 -166 -21 -41 -39 -88 -39 -102 0
-23 4 -27 28 -27 33 0 119 31 169 60 62 36 63 8 2 -53 -64 -63 -144 -97 -184
-79 -65 30 -70 102 -14 217 19 39 35 73 37 78 5 11 -76 8 -83 -3 -9 -15 -35
-12 -35 5 0 26 22 63 44 73 32 16 102 14 116 -3z m2255 -139 c22 -34 10 -59
-25 -51 -28 6 -29 5 -40 -52 -31 -156 -47 -170 -77 -70 -14 48 -23 63 -40 65
-11 2 -29 12 -39 23 -14 16 -15 23 -6 44 7 14 19 28 27 32 20 7 59 -29 75 -68
14 -33 30 -38 30 -9 0 41 41 110 66 110 8 0 20 -11 29 -24z m-1395 0 c0 -2
-16 -27 -35 -56 -19 -29 -35 -57 -35 -64 0 -22 23 -35 51 -29 37 7 37 -6 0
-41 -23 -22 -35 -27 -56 -22 -40 10 -51 46 -32 98 20 51 72 118 93 118 8 0 14
-2 14 -4z m950 -2 c0 -3 -14 -25 -31 -49 -19 -26 -29 -52 -27 -66 2 -20 8 -24
36 -21 38 3 41 -12 10 -45 -23 -25 -48 -29 -79 -13 -36 20 -19 103 35 168 24
28 56 43 56 26z m-1000 -485 c0 -79 -1 -78 86 -83 32 -2 62 -4 67 -5 4 -1 7
-32 7 -69 0 -40 5 -73 12 -80 7 -7 39 -12 75 -12 75 0 86 13 82 94 -1 29 1 58
5 64 4 7 34 12 76 12 78 0 78 0 79 89 0 30 5 59 9 63 14 14 94 19 127 8 28 -9
30 -13 28 -57 -1 -27 -2 -62 -2 -79 l-1 -30 -67 2 c-38 1 -74 -2 -80 -8 -8 -7
-13 -36 -13 -78 0 -79 -1 -80 -96 -80 -35 0 -64 -3 -65 -7 0 -5 -3 -37 -5 -73
-2 -36 -6 -71 -9 -77 -3 -9 -27 -13 -74 -13 -81 0 -81 0 -81 101 0 78 7 73
-97 69 l-63 -2 0 69 c0 93 -4 97 -88 94 l-69 -2 -7 32 c-3 17 -6 55 -6 85 l0
53 68 3 c98 4 102 1 102 -83z"/>
<path d="M2300 3651 c0 -5 7 -11 15 -15 9 -3 15 0 15 9 0 8 -7 15 -15 15 -8 0
-15 -4 -15 -9z"/>
<path d="M1754 3189 c-10 -17 13 -36 27 -22 12 12 4 33 -11 33 -5 0 -12 -5
-16 -11z"/>
<path d="M3160 3067 c-85 -11 -157 -22 -159 -24 -3 -2 21 -30 53 -62 55 -56
64 -81 30 -81 -9 0 -14 -6 -11 -12 5 -15 -4 -15 177 13 74 11 204 31 287 43
84 13 156 26 160 30 15 15 -74 84 -128 100 -70 21 -212 19 -409 -7z"/>
<path d="M1520 2843 c0 -5 7 -16 15 -26 13 -18 14 -18 24 2 15 28 14 31 -14
31 -14 0 -25 -3 -25 -7z"/>
<path d="M1890 2804 c-19 -14 -42 -29 -50 -34 -12 -7 -11 -15 8 -54 13 -25 26
-61 29 -81 5 -31 23 -51 23 -25 0 20 26 8 68 -31 49 -46 49 -56 -3 -111 -37
-39 -46 -40 -94 -9 -21 13 -24 13 -34 -5 -17 -31 -128 -143 -179 -181 -43 -31
-47 -37 -41 -66 15 -80 68 -137 128 -137 11 0 42 13 67 29 36 23 65 58 130
158 47 70 95 145 107 166 13 20 42 50 64 66 103 70 162 45 242 -107 54 -100
141 -172 244 -202 26 -7 26 -6 28 39 1 25 12 80 26 122 16 52 21 82 15 98 -8
22 -9 23 -33 7 -51 -33 -52 7 -2 62 39 42 87 18 87 -44 0 -20 -11 -69 -25
-110 -14 -41 -25 -86 -25 -100 0 -28 25 -43 43 -25 6 6 17 11 25 11 14 0 13
-13 -4 -54 -7 -18 -4 -19 52 -13 82 9 260 50 379 88 l100 32 -80 18 c-44 10
-111 26 -150 35 -38 9 -105 19 -147 23 -42 4 -80 10 -85 14 -4 5 4 29 17 55
24 45 29 49 120 83 113 42 190 77 190 85 0 15 -65 104 -75 104 -7 0 -52 -7
-101 -15 -49 -9 -141 -25 -204 -36 -171 -29 -220 -40 -220 -47 0 -4 14 -16 30
-27 39 -26 38 -43 -8 -93 -45 -49 -63 -51 -109 -16 -37 28 -43 60 -16 100 l16
25 -44 -5 c-140 -18 -236 -18 -287 -2 -102 34 -181 120 -184 200 -1 20 -2 36
-2 36 -1 -1 -17 -12 -36 -26z"/>
<path d="M3514 3433 c-10 -15 -20 -30 -22 -33 -2 -3 -10 4 -18 15 -13 17 -17
18 -47 6 -48 -20 -95 -25 -112 -11 -13 11 -14 8 -9 -21 11 -58 24 -64 91 -46
82 22 132 25 144 7 7 -11 8 3 5 44 -3 33 -8 61 -10 63 -2 3 -12 -8 -22 -24z"/>
<path d="M2650 1780 c-44 -8 -90 -37 -100 -64 -7 -20 40 -174 63 -204 14 -18
92 -6 197 29 124 41 338 137 320 143 -176 63 -404 108 -480 96z m126 -67 c24
-21 44 -42 44 -48 0 -23 -62 -85 -84 -85 -35 0 -76 37 -76 68 0 24 51 102 66
102 3 0 25 -17 50 -37z"/>
<path d="M1520 1940 c0 -22 5 -40 10 -40 6 0 10 18 10 40 0 22 -4 40 -10 40
-5 0 -10 -18 -10 -40z"/>
<path d="M1454 1952 c-39 -22 -34 -57 9 -57 25 -1 27 2 27 37 0 21 -1 38 -2
38 -2 -1 -17 -9 -34 -18z"/>
<path d="M1320 1912 c0 -41 1 -41 25 -30 14 6 25 14 25 18 0 4 -11 17 -25 30
l-25 23 0 -41z"/>
<path d="M1386 1862 c-3 -6 -19 -13 -36 -17 -40 -9 -29 -35 15 -35 25 0 35 5
40 21 8 23 -8 48 -19 31z"/>
<path d="M1450 1836 c0 -7 9 -16 20 -19 15 -4 20 0 20 14 0 12 -7 19 -20 19
-11 0 -20 -6 -20 -14z"/>
<path d="M948 4053 c12 -2 30 -2 40 0 9 3 -1 5 -23 4 -22 0 -30 -2 -17 -4z"/>
<path d="M1188 4053 c101 -2 263 -2 360 0 97 1 15 2 -183 2 -198 0 -278 -1
-177 -2z"/>
<path d="M3230 4049 c0 -5 5 -7 10 -4 6 3 10 8 10 11 0 2 -4 4 -10 4 -5 0 -10
-5 -10 -11z"/>
<path d="M3288 4053 c12 -2 32 -2 45 0 12 2 2 4 -23 4 -25 0 -35 -2 -22 -4z"/>
<path d="M3468 4053 c46 -2 118 -2 160 0 42 1 5 3 -83 3 -88 0 -123 -2 -77 -3z"/>
<path d="M3728 4053 c6 -2 18 -2 25 0 6 3 1 5 -13 5 -14 0 -19 -2 -12 -5z"/>
<path d="M3803 4053 c15 -2 37 -2 50 0 12 2 0 4 -28 4 -27 0 -38 -2 -22 -4z"/>
<path d="M3953 4053 c20 -2 54 -2 75 0 20 2 3 4 -38 4 -41 0 -58 -2 -37 -4z"/>
<path d="M4563 2830 c0 -25 2 -35 4 -22 2 12 2 32 0 45 -2 12 -4 2 -4 -23z"/>
<path d="M4563 2145 c0 -22 2 -30 4 -17 2 12 2 30 0 40 -3 9 -5 -1 -4 -23z"/>
<path d="M3231 804 c0 -11 3 -14 6 -6 3 7 2 16 -1 19 -3 4 -6 -2 -5 -13z"/>
<path d="M2088 423 c7 -3 16 -2 19 1 4 3 -2 6 -13 5 -11 0 -14 -3 -6 -6z"/>
<path d="M2798 423 c7 -3 16 -2 19 1 4 3 -2 6 -13 5 -11 0 -14 -3 -6 -6z"/>
<path d="M2730 270 c0 -5 5 -10 10 -10 6 0 10 5 10 10 0 6 -4 10 -10 10 -5 0
-10 -4 -10 -10z"/>
</g>
</svg>
